<?xml version="1.0"?>
<svg xmlns="http://www.w3.org/2000/svg" xmlns:xlink="http://www.w3.org/1999/xlink" xmlns:svgjs="http://svgjs.com/svgjs" version="1.1" width="512" height="512" x="0" y="0" viewBox="0 0 128 128" style="enable-background:new 0 0 512 512" xml:space="preserve" class=""><g><g xmlns="http://www.w3.org/2000/svg"><path d="m104.571 86.744c-3.64 0-7.035 1.037-9.938 2.804l-.882-.882c1.989-3.167 3.414-6.601 4.243-10.225h4.783c1.827 0 3.313-1.486 3.313-3.313v-8.308c0-1.826-1.486-3.313-3.313-3.313h-4.783c-.829-3.625-2.254-7.058-4.242-10.225l3.387-3.388c1.292-1.292 1.292-3.395 0-4.687l-5.874-5.874c-1.291-1.293-3.395-1.291-4.686 0l-3.388 3.388c-1.777-1.116-3.645-2.034-5.577-2.789 4.319-3.523 7.084-8.881 7.084-14.877 0-10.585-8.612-19.197-19.198-19.197s-19.198 8.612-19.198 19.197c0 5.995 2.766 11.354 7.084 14.877-1.932.755-3.801 1.673-5.578 2.789l-3.387-3.388c-1.292-1.291-3.395-1.291-4.686 0l-5.875 5.874c-1.291 1.292-1.291 3.395 0 4.687l3.388 3.388c-1.989 3.167-3.414 6.6-4.243 10.225h-4.783c-1.827 0-3.313 1.486-3.313 3.313v8.308c0 1.827 1.486 3.313 3.313 3.313h4.783c.829 3.624 2.253 7.057 4.243 10.225l-.882.882c-2.904-1.767-6.298-2.804-9.938-2.804-10.585 0-19.198 8.612-19.198 19.198s8.612 19.198 19.198 19.198 19.198-8.612 19.198-19.198c0-1.403-.161-2.769-.448-4.087l2.63-2.63c3.167 1.989 6.6 3.414 10.225 4.243v4.783c0 1.827 1.486 3.313 3.313 3.313h8.307c1.827 0 3.313-1.486 3.313-3.313v-4.783c3.625-.829 7.058-2.254 10.225-4.242l2.63 2.629c-.287 1.319-.448 2.684-.448 4.087 0 10.586 8.612 19.198 19.198 19.198s19.198-8.612 19.198-19.198-8.612-19.198-19.198-19.198z" fill="#e6e7e8" data-original="#e6e7e8" style=""/><g><g><circle cx="61.5" cy="66.975" fill="#d4fbff" r="19.583" data-original="#d4fbff" style=""/><path d="m61.5 50.392c10.309 0 18.739 7.97 19.507 18.083.038-.497.076-.994.076-1.5 0-10.815-8.768-19.583-19.583-19.583s-19.583 8.767-19.583 19.583c0 .506.038 1.003.076 1.5.768-10.113 9.198-18.083 19.507-18.083z" fill="#ffffff" data-original="#ffffff" style=""/><path d="m98.777 60.507h-5.591c-.838-4.128-2.466-7.967-4.713-11.361l3.958-3.958c.904-.904.904-2.368 0-3.272l-5.874-5.874c-.903-.904-2.368-.904-3.272 0l-3.958 3.958c-2.395-1.586-5.016-2.856-7.799-3.765-2.876 1.904-6.321 3.019-10.029 3.019s-7.152-1.115-10.029-3.019c-2.784.909-5.404 2.179-7.799 3.765l-3.958-3.958c-.903-.904-2.368-.904-3.272 0l-5.874 5.874c-.904.904-.904 2.368 0 3.272l3.958 3.958c-2.247 3.394-3.875 7.233-4.713 11.361h-5.591c-1.278 0-2.313 1.036-2.313 2.313v8.307c0 1.278 1.036 2.313 2.313 2.313h5.591c.838 4.128 2.466 7.967 4.713 11.361l-2.002 2.002c3.71 2.479 6.44 6.291 7.546 10.746l3.602-3.602c3.394 2.247 7.233 3.875 11.361 4.713v5.59c0 1.278 1.036 2.313 2.313 2.313h8.307c1.278 0 2.313-1.036 2.313-2.313v-5.59c4.128-.838 7.967-2.466 11.361-4.713l3.601 3.602c1.106-4.455 3.836-8.266 7.546-10.746l-2.002-2.002c2.247-3.394 3.875-7.233 4.713-11.361h5.591c1.278 0 2.313-1.036 2.313-2.313v-8.307c.003-1.277-1.033-2.313-2.311-2.313zm-37.277 26.051c-10.815 0-19.583-8.768-19.583-19.583s8.768-19.583 19.583-19.583 19.583 8.767 19.583 19.583c0 10.815-8.768 19.582-19.583 19.583z" fill="#31446c" data-original="#0089ef" style="" class=""/></g><g><circle cx="61.5" cy="21.057" fill="#8aaae5" r="18.198" data-original="#6dc9f7" style="" class=""/><g><path d="m66.298 19.352h-.836c-1.116.802-2.481 1.28-3.962 1.28s-2.847-.478-3.962-1.28h-.836c-3.314 0-6 2.686-6 6v4.063c0 1.104.895 2 2 2h17.596c1.105 0 2-.896 2-2v-4.063c0-3.314-2.686-6-6-6z" fill="#ffd7e5" data-original="#ffd7e5" style=""/><ellipse cx="61.5" cy="13.877" fill="#ffffff" rx="6.784" ry="6.755" data-original="#ffffff" style=""/></g></g><g><g><circle cx="100.571" cy="101.942" fill="#8aaae5" r="18.198" data-original="#6dc9f7" style="" class=""/><g><path d="m105.369 100.237h-.836c-1.116.802-2.481 1.28-3.962 1.28s-2.847-.478-3.962-1.28h-.836c-3.314 0-6 2.686-6 6v4.063c0 1.105.895 2 2 2h17.596c1.105 0 2-.895 2-2v-4.063c0-3.314-2.686-6-6-6z" fill="#ffd7e5" data-original="#ffd7e5" style=""/><ellipse cx="100.571" cy="94.762" fill="#ffffff" rx="6.784" ry="6.755" data-original="#ffffff" style=""/></g></g><g><circle cx="22.429" cy="101.942" fill="#8aaae5" r="18.198" data-original="#6dc9f7" style="" class=""/><g><path d="m27.227 100.237h-.836c-1.116.802-2.481 1.28-3.962 1.28s-2.847-.478-3.962-1.28h-.836c-3.314 0-6 2.686-6 6v4.063c0 1.105.895 2 2 2h17.596c1.105 0 2-.895 2-2v-4.063c0-3.314-2.687-6-6-6z" fill="#ffd7e5" data-original="#ffd7e5" style=""/><ellipse cx="22.429" cy="94.762" fill="#ffffff" rx="6.784" ry="6.755" data-original="#ffffff" style=""/></g></g></g><g><path d="m66.298 66.237h-.836c-1.116.802-2.481 1.28-3.962 1.28s-2.847-.478-3.962-1.28h-.836c-3.314 0-6 2.686-6 6v4.063c0 1.105.895 2 2 2h17.596c1.105 0 2-.895 2-2v-4.063c0-3.314-2.686-6-6-6z" fill="#fa759e" data-original="#fa759e" style="" class=""/><g><g><ellipse cx="61.5" cy="60.762" fill="#ffffff" rx="6.784" ry="6.755" data-original="#ffffff" style=""/><g fill="#3a2c60"><path d="m61.5 46.392c-11.35 0-20.583 9.233-20.583 20.583s9.233 20.583 20.583 20.583 20.583-9.233 20.583-20.583-9.233-20.583-20.583-20.583zm0 39.166c-10.247 0-18.583-8.336-18.583-18.583s8.336-18.583 18.583-18.583 18.583 8.336 18.583 18.583-8.336 18.583-18.583 18.583z" fill="#263350" data-original="#3a2c60" style="" class=""/><path d="m73.298 29.415v-4.063c0-3.369-2.397-6.177-5.573-6.838.974-1.295 1.559-2.897 1.559-4.636 0-4.276-3.492-7.756-7.784-7.756s-7.784 3.479-7.784 7.756c0 1.739.585 3.341 1.559 4.636-3.176.661-5.573 3.469-5.573 6.838v4.063c0 1.654 1.346 3 3 3h17.596c1.654 0 3-1.346 3-3zm-11.798-21.294c3.189 0 5.784 2.582 5.784 5.756 0 3.173-2.595 5.755-5.784 5.755s-5.784-2.582-5.784-5.755c0-3.174 2.595-5.756 5.784-5.756zm-9.798 21.294v-4.063c0-2.757 2.243-5 5-5h.525c1.228.807 2.696 1.28 4.273 1.28s3.046-.473 4.273-1.28h.524c2.757 0 5 2.243 5 5v4.063c0 .552-.448 1-1 1h-17.595c-.552 0-1-.448-1-1z" fill="#263350" data-original="#3a2c60" style="" class=""/><path d="m100.571 82.744c-3.64 0-7.034 1.037-9.938 2.804l-.881-.882c1.988-3.167 3.413-6.6 4.242-10.225h4.783c1.827 0 3.313-1.486 3.313-3.313v-8.307c0-1.827-1.486-3.313-3.313-3.313h-4.783c-.829-3.625-2.254-7.058-4.242-10.225l3.387-3.388c1.291-1.291 1.292-3.394 0-4.687l-5.874-5.874c-.626-.626-1.457-.971-2.343-.971-.886.001-1.718.346-2.343.972l-3.388 3.387c-1.779-1.118-3.653-2.029-5.59-2.78 4.326-3.523 7.097-8.885 7.097-14.885 0-10.586-8.612-19.198-19.198-19.198s-19.198 8.612-19.198 19.198c0 6 2.771 11.362 7.097 14.885-1.937.75-3.811 1.662-5.591 2.78l-3.387-3.387c-.626-.626-1.458-.971-2.343-.972-.885 0-1.717.345-2.342.971l-5.874 5.875c-1.292 1.292-1.292 3.394 0 4.686l3.388 3.388c-1.989 3.167-3.414 6.6-4.243 10.225h-4.784c-1.827 0-3.313 1.486-3.313 3.313v8.307c0 1.827 1.486 3.313 3.313 3.313h4.784c.829 3.625 2.253 7.058 4.243 10.225l-.882.882c-2.904-1.767-6.298-2.804-9.938-2.804-10.586 0-19.198 8.612-19.198 19.198s8.612 19.198 19.198 19.198c10.585 0 19.198-8.612 19.198-19.198 0-1.403-.161-2.769-.448-4.087l2.63-2.63c3.167 1.989 6.599 3.414 10.225 4.243v4.783c0 1.827 1.486 3.313 3.313 3.313h8.307c1.827 0 3.313-1.486 3.313-3.313v-4.783c3.626-.829 7.059-2.254 10.225-4.242l2.63 2.629c-.287 1.319-.448 2.684-.448 4.087 0 10.586 8.612 19.198 19.198 19.198s19.198-8.612 19.198-19.198-8.614-19.198-19.2-19.198zm-56.269-61.686c0-9.483 7.715-17.198 17.198-17.198s17.198 7.715 17.198 17.198c0 9.482-7.715 17.197-17.198 17.197s-17.198-7.715-17.198-17.197zm-21.873 98.083c-9.483 0-17.198-7.715-17.198-17.198s7.715-17.198 17.198-17.198 17.198 7.715 17.198 17.198-7.715 17.198-17.198 17.198zm57.606-25.9c-.337-.337-.864-.389-1.259-.127-3.37 2.231-7.073 3.769-11.009 4.568-.466.094-.801.504-.801.979v5.59c0 .725-.589 1.313-1.313 1.313h-8.307c-.724 0-1.313-.589-1.313-1.313v-5.59c0-.476-.335-.886-.801-.979-3.935-.8-7.638-2.337-11.008-4.568-.169-.111-.361-.166-.552-.166-.258 0-.514.1-.708.293l-2.417 2.416c-1.25-3.593-3.534-6.695-6.501-8.962l1.186-1.186c.336-.336.389-.862.126-1.259-2.231-3.37-3.768-7.074-4.567-11.009-.095-.466-.504-.801-.98-.801h-5.591c-.724 0-1.313-.589-1.313-1.313v-8.307c0-.725.589-1.313 1.313-1.313h5.591c.476 0 .885-.335.98-.801.799-3.935 2.335-7.639 4.567-11.009.263-.396.21-.923-.126-1.259l-3.958-3.958c-.512-.512-.512-1.346 0-1.857l5.874-5.875c.248-.248.578-.385.928-.385.351 0 .68.137.929.386l3.958 3.958c.336.337.863.389 1.259.127 2.243-1.486 4.643-2.64 7.154-3.496 2.943 1.836 6.405 2.916 10.122 2.916s7.179-1.079 10.122-2.916c2.511.856 4.911 2.01 7.153 3.496.396.261.923.209 1.26-.127l3.958-3.958c.496-.498 1.361-.497 1.857-.001l5.874 5.874c.512.513.512 1.347 0 1.858l-3.958 3.958c-.336.336-.39.862-.127 1.259 2.231 3.37 3.769 7.074 4.566 11.009.095.466.505.801.98.801h5.591c.725 0 1.313.589 1.313 1.313v8.307c0 .725-.589 1.313-1.313 1.313h-5.591c-.476 0-.886.335-.98.801-.798 3.935-2.335 7.639-4.566 11.009-.263.396-.209.923.127 1.259l1.186 1.186c-2.967 2.266-5.251 5.369-6.501 8.962zm20.536 25.9c-9.483 0-17.198-7.715-17.198-17.198s7.715-17.198 17.198-17.198 17.198 7.715 17.198 17.198-7.714 17.198-17.198 17.198z" fill="#263350" data-original="#3a2c60" style="" class=""/><path d="m106.796 99.399c.975-1.295 1.56-2.897 1.56-4.637 0-4.276-3.492-7.755-7.784-7.755s-7.784 3.479-7.784 7.755c0 1.74.585 3.342 1.56 4.637-3.176.661-5.574 3.469-5.574 6.838v4.063c0 1.654 1.346 3 3 3h17.596c1.654 0 3-1.346 3-3v-4.063c-.001-3.369-2.398-6.177-5.574-6.838zm-6.225-10.392c3.189 0 5.784 2.582 5.784 5.755s-2.595 5.755-5.784 5.755-5.784-2.582-5.784-5.755 2.595-5.755 5.784-5.755zm9.798 21.294c0 .552-.448 1-1 1h-17.596c-.552 0-1-.448-1-1v-4.063c0-2.757 2.243-5 5-5h.526c1.228.806 2.695 1.279 4.272 1.279s3.044-.473 4.272-1.279h.526c2.757 0 5 2.243 5 5z" fill="#263350" data-original="#3a2c60" style="" class=""/><path d="m28.653 99.399c.975-1.295 1.56-2.897 1.56-4.637 0-4.276-3.492-7.755-7.784-7.755s-7.784 3.479-7.784 7.755c0 1.74.585 3.342 1.56 4.637-3.176.661-5.574 3.469-5.574 6.838v4.063c0 1.654 1.346 3 3 3h17.596c1.654 0 3-1.346 3-3v-4.063c0-3.369-2.398-6.177-5.574-6.838zm-6.224-10.392c3.189 0 5.784 2.582 5.784 5.755s-2.595 5.755-5.784 5.755-5.784-2.582-5.784-5.755 2.594-5.755 5.784-5.755zm9.798 21.294c0 .552-.449 1-1 1h-17.597c-.551 0-1-.448-1-1v-4.063c0-2.757 2.243-5 5-5h.526c1.228.806 2.695 1.279 4.272 1.279s3.044-.473 4.272-1.279h.526c2.757 0 5 2.243 5 5v4.063z" fill="#263350" data-original="#3a2c60" style="" class=""/><path d="m64.667 77.301h-6.083c-.552 0-1 .447-1 1s.448 1 1 1h6.083c.552 0 1-.447 1-1s-.448-1-1-1z" fill="#263350" data-original="#3a2c60" style="" class=""/><path d="m67.724 65.399c.975-1.295 1.56-2.897 1.56-4.637 0-4.276-3.492-7.755-7.784-7.755s-7.784 3.479-7.784 7.755c0 1.74.585 3.342 1.56 4.637-3.177.661-5.574 3.469-5.574 6.838v4.063c0 1.654 1.346 3 3 3h2.715c.552 0 1-.447 1-1s-.448-1-1-1h-2.715c-.551 0-1-.448-1-1v-4.063c0-2.757 2.243-5 5-5h.526c1.228.806 2.695 1.279 4.272 1.279s3.044-.473 4.272-1.279h.526c2.757 0 5 2.243 5 5v4.063c0 .552-.448 1-1 1h-2.548c-.553 0-1 .447-1 1s.447 1 1 1h2.548c1.654 0 3-1.346 3-3v-4.063c0-3.369-2.398-6.177-5.574-6.838zm-12.008-4.637c0-3.173 2.595-5.755 5.784-5.755s5.784 2.582 5.784 5.755-2.595 5.755-5.784 5.755-5.784-2.582-5.784-5.755z" fill="#263350" data-original="#3a2c60" style="" class=""/></g></g></g></g></g></g></g></svg>
