<svg width="84" height="50" viewBox="0 0 84 50" fill="none" xmlns="http://www.w3.org/2000/svg">
<path d="M32.3949 13.2436C31.5509 11.8016 30.7167 10.3538 29.8776 8.90891C29.6988 8.60107 29.512 8.29792 29.3983 8.1084C28.9343 8.51764 28.4804 8.92518 28.0188 9.32379C26.9117 10.2797 25.6795 11.0013 24.1963 11.1378C23.5163 11.2004 22.823 11.1279 22.136 11.1042C19.706 11.0204 17.7733 11.9603 16.3199 13.9053C16.1948 14.0727 16.1808 14.2034 16.2869 14.3898C16.5827 14.9095 16.8543 15.443 17.1381 15.9695C17.786 17.1712 18.4354 18.372 19.1011 19.6044C20.0103 18.476 20.7421 17.9885 22.1684 17.8213C23.2158 17.6986 24.2837 17.7373 25.3427 17.7294C28.4491 17.7063 30.7385 16.2636 32.398 13.7069C32.5053 13.5417 32.4932 13.4115 32.3949 13.2436Z" fill="#224B8F"/>
<path d="M23.4907 14.2453C23.4637 14.0888 23.4606 13.9298 23.4823 13.7672C23.504 13.6048 23.5515 13.4502 23.626 13.3033C23.7004 13.1561 23.8015 13.0217 23.9294 12.8992C24.0573 12.7766 24.2144 12.677 24.3994 12.6008C24.6593 12.4938 24.9075 12.4581 25.1446 12.4939C25.3808 12.5302 25.5837 12.6201 25.7512 12.7653L25.4492 13.2292C25.3793 13.1649 25.307 13.1164 25.2312 13.0839C25.1554 13.0515 25.0813 13.0318 25.0071 13.025C24.933 13.0184 24.8599 13.0214 24.7878 13.034C24.7152 13.047 24.6477 13.0663 24.5841 13.0925C24.4804 13.1352 24.3933 13.1894 24.323 13.2557C24.2527 13.3218 24.1968 13.3954 24.1557 13.4759C24.114 13.5566 24.0863 13.6426 24.0716 13.7338C24.0559 13.8257 24.0538 13.9173 24.0637 14.0092L25.0816 13.5899L25.0838 13.933L24.1329 14.3246L24.151 14.3686C24.174 14.4243 24.1999 14.4756 24.2288 14.5227L25.1593 14.1395L25.161 14.4829L24.4334 14.7826C24.5632 14.9028 24.7105 14.9832 24.8749 15.0243C25.0391 15.065 25.2047 15.051 25.3715 14.9823C25.435 14.9562 25.4983 14.9207 25.561 14.8765C25.6226 14.8326 25.6783 14.78 25.7262 14.7203C25.7745 14.66 25.8136 14.5917 25.8446 14.5153C25.8751 14.4393 25.8903 14.3563 25.8907 14.2663L26.4465 14.3394C26.445 14.4642 26.4194 14.584 26.3689 14.6996C26.3188 14.8149 26.2529 14.9218 26.1711 15.0207C26.0887 15.1196 25.9948 15.2079 25.8874 15.2864C25.7804 15.3645 25.6689 15.4274 25.5555 15.474C25.3989 15.5386 25.2417 15.5726 25.083 15.5759C24.9244 15.5789 24.7716 15.5592 24.6237 15.5161C24.4757 15.4731 24.3367 15.4085 24.2068 15.3226C24.0767 15.2365 23.9613 15.1352 23.8604 15.0187L23.447 15.1889L23.4488 14.844L23.6715 14.7523C23.641 14.6998 23.6128 14.6429 23.5877 14.582L23.5761 14.5539L23.2975 14.6687L23.2959 14.3255L23.4907 14.2453Z" fill="white"/>
<path d="M59.3257 29.5177C59.3985 29.2447 59.4412 28.9596 59.4416 28.6639C59.4439 26.8157 57.9385 25.3156 56.0791 25.3133C55.7311 25.3129 55.3952 25.3651 55.0792 25.4622L54.9035 25.462C54.7496 25.1761 54.551 24.9069 54.308 24.6647C53.38 23.74 52.0559 23.4618 50.9124 23.8319C50.5933 23.2475 49.971 22.8504 49.255 22.8495C49.0854 22.8493 48.9218 22.8734 48.7655 22.9149C48.6149 22.5364 48.3863 22.1814 48.0785 21.8748C46.8693 20.6697 44.9061 20.6673 43.6938 21.8694C43.2437 22.3157 42.9612 22.8654 42.8447 23.4417C42.6964 23.4009 42.5408 23.3772 42.3794 23.377C41.7083 23.3762 41.1254 23.7508 40.8304 24.3011C40.4098 23.5871 39.6325 23.1057 38.74 23.1046C38.5652 23.1044 38.3951 23.1234 38.2307 23.1581C35.701 20.7163 34.78 13.1956 35.7537 11.2659L33.811 11.2617C33.811 11.2617 34.536 18.2637 32.1898 21.0089C31.213 20.8198 30.1622 21.1006 29.4046 21.8518C29.1615 22.0928 28.9693 22.3648 28.8236 22.654C28.6355 22.5914 28.4351 22.5559 28.2259 22.5557C27.1836 22.5544 26.3376 23.3932 26.3363 24.4293C26.3362 24.5051 26.3419 24.5794 26.3506 24.6529C25.8826 24.3436 25.3233 24.16 24.719 24.1593C23.9429 24.1583 23.2389 24.4564 22.7101 24.941C22.298 24.6182 21.7793 24.4237 21.2137 24.423C20.6293 24.4223 20.0955 24.63 19.6768 24.9721C19.6722 24.1469 19.3547 23.3231 18.722 22.6928C17.4456 21.4208 15.5033 21.4184 14.2235 22.6872C13.8717 23.0361 13.6211 23.4456 13.4631 23.8811C13.439 23.8801 13.4152 23.8774 13.3908 23.8773C12.5426 23.8763 11.8424 24.4774 11.6797 25.2729C9.95279 25.4139 8.59391 26.848 8.5917 28.6013C8.59069 29.4336 8.89716 30.1935 9.40229 30.7797C8.86685 31.7454 8.56098 32.8546 8.55958 34.0351C8.55486 37.7757 11.6017 40.8118 15.3647 40.8164C15.5368 40.8166 15.7067 40.8084 15.8756 40.7961C15.8393 41.0778 15.8184 41.3642 15.818 41.6555C15.8132 45.3961 18.8601 48.4322 22.6232 48.4368C23.7429 48.4382 24.7988 48.1693 25.7314 47.6947C28.3575 49.1332 31.6701 49.996 35.2752 50.0004C39.3054 50.0054 42.9753 48.9387 45.7275 47.189C47.4825 48.3234 49.5746 48.986 51.8239 48.9887C58.024 48.9964 63.0564 44.0065 63.0641 37.8435C63.0682 34.5359 61.623 31.564 59.3257 29.5177Z" fill="#F5F9FD"/>
<path d="M36.0786 1.30092C35.7584 0.867501 35.3835 0.475741 34.9642 0.144263C34.7234 -0.046295 34.3855 -0.0482362 34.1424 0.139422C33.7317 0.456749 33.3627 0.831747 33.0439 1.2468C33.5129 1.39989 34.0557 1.48322 34.6211 1.48649C35.132 1.48939 35.6372 1.42477 36.0786 1.30092Z" fill="#A5BEEB"/>
<path d="M37.0554 3.72373C37.0071 3.27091 36.8999 2.81585 36.6584 2.25302C36.5392 1.97536 36.3711 1.72106 36.1999 1.47217C36.1889 1.48213 36.1761 1.49028 36.1611 1.49466C35.7033 1.62647 35.18 1.69564 34.6463 1.69492C34.6374 1.69492 34.6285 1.69479 34.6195 1.69476C34.0062 1.69134 33.4165 1.59713 32.9126 1.42285C32.7301 1.67875 32.5656 1.94784 32.4246 2.22894C32.1013 2.87328 32.0049 3.55636 31.9749 4.29451C31.9646 4.33371 31.9573 4.37405 31.9573 4.41645V5.09205L31.9541 5.19966C31.9539 5.20654 31.9563 5.21262 31.9573 5.21918V9.33167C31.9573 9.54157 32.1275 9.71174 32.3374 9.71174H32.9255L32.9104 9.76033H32.9475C32.9529 9.83231 32.9631 9.90373 32.9772 9.9725L33.6596 11.7757L35.6148 11.7698L36.1613 10.1221C36.1911 10.0103 36.2279 9.86033 36.2444 9.71905C36.2558 9.71671 36.2672 9.71389 36.2787 9.71174H36.7347C36.9446 9.71174 37.1147 9.54157 37.1147 9.33167V4.41645C37.1147 4.00366 37.0932 3.80411 37.0554 3.72373Z" fill="#A5BEEB"/>
<path d="M34.6091 5.95312C34.6085 5.95312 34.6079 5.95312 34.6073 5.95312C34.4094 5.95312 34.2509 6.14532 34.1207 7.07646C34.0311 7.7169 33.9791 8.56716 33.9741 9.47083C33.9682 10.5295 34.0146 12.9922 34.5698 12.9953C34.5704 12.9953 34.571 12.9953 34.5716 12.9953C34.7694 12.9953 34.9278 12.8031 35.0579 11.8719C35.1476 11.2315 35.1996 10.3811 35.2046 9.47758C35.2104 8.4189 35.1643 5.95625 34.6091 5.95312Z" fill="#3C62A4"/>
<path d="M38.6676 6.90531L37.09 4.94056C37.0329 4.86965 36.9292 4.85817 36.8579 4.91518C36.8202 4.94545 36.8006 4.98881 36.7977 5.03354L36.7964 5.03344L36.542 9.03495L36.5434 9.03505C36.5422 9.05384 36.5428 9.07303 36.5484 9.09216L37.4268 12.0691C37.4476 12.139 37.5114 12.1871 37.5843 12.1874C37.5852 12.1874 37.586 12.1874 37.5868 12.1874C37.9768 12.1874 38.2381 11.6901 38.2397 11.3629C38.2441 11.2725 38.3874 10.3032 38.5137 9.44814C38.718 8.06703 38.8141 7.40684 38.8145 7.32102C38.8153 7.16922 38.7627 7.02115 38.6676 6.90531Z" fill="#3C62A4"/>
<path d="M32.3564 9.32176L32.2231 5.19776L32.2214 5.19781C32.22 5.15226 32.2014 5.10758 32.1636 5.07617C32.0937 5.01805 31.9895 5.02742 31.9311 5.09764L30.314 7.04383C30.2163 7.15988 30.1621 7.30755 30.1621 7.47678L30.5775 11.6136C30.5755 11.9729 30.8664 12.2668 31.2256 12.2688C31.226 12.2688 31.2262 12.2688 31.2266 12.2688C31.2969 12.2688 31.3594 12.2244 31.3826 12.158L32.3474 9.38128C32.3542 9.36155 32.3566 9.34147 32.356 9.32177L32.3564 9.32176Z" fill="#3C62A4"/>
<path d="M36.0888 4.37588C36.2893 3.58865 35.8137 2.78796 35.0264 2.58746C34.2392 2.38697 33.4385 2.86259 33.238 3.64981C33.0375 4.43704 33.5132 5.23773 34.3004 5.43823C35.0876 5.63872 35.8883 5.1631 36.0888 4.37588Z" fill="#3C62A4"/>
<path d="M35.903 3.9817C35.8591 3.91219 35.7666 3.89114 35.6965 3.93506C35.627 3.97909 35.6061 4.07164 35.6498 4.14136L35.65 4.14156C35.6784 4.18649 35.7271 4.21116 35.7769 4.21116C35.8041 4.21116 35.8317 4.20381 35.8563 4.1882C35.9262 4.14427 35.9471 4.05171 35.903 3.9817Z" fill="white"/>
<path d="M33.6472 3.89683C33.6032 3.82723 33.5108 3.80617 33.4407 3.85009C33.3711 3.89411 33.3502 3.98668 33.3939 4.05639C33.4153 4.09033 33.4485 4.1138 33.4874 4.12267C33.4987 4.12517 33.5098 4.12639 33.5208 4.12639C33.5489 4.12639 33.5763 4.11854 33.6006 4.10332C33.6701 4.05929 33.6911 3.96674 33.6472 3.89683Z" fill="white"/>
<path d="M35.6025 3.17173C35.5814 3.13789 35.5481 3.11431 35.509 3.10544C35.4697 3.09638 35.4297 3.10334 35.396 3.1248C35.3622 3.14616 35.3388 3.17939 35.33 3.21817C35.3211 3.25715 35.3279 3.29736 35.3493 3.33118C35.3706 3.36504 35.4039 3.38852 35.443 3.39726C35.454 3.39979 35.4651 3.4011 35.4762 3.4011C35.5042 3.4011 35.5316 3.39324 35.5558 3.37794C35.5896 3.35658 35.613 3.32333 35.6219 3.28455C35.6307 3.24567 35.6239 3.20559 35.6025 3.17173Z" fill="white"/>
<path d="M33.9474 4.70667C33.9262 4.67283 33.893 4.64925 33.8539 4.64039C33.7747 4.62237 33.6931 4.67242 33.6745 4.75331C33.6659 4.7923 33.6727 4.83239 33.6941 4.86612C33.7155 4.89998 33.7487 4.92354 33.7878 4.93232C33.7989 4.93473 33.8099 4.93604 33.821 4.93604C33.849 4.93604 33.8764 4.92818 33.9006 4.91288C33.9345 4.89152 33.9578 4.85828 33.9667 4.81949C33.9755 4.78061 33.9687 4.74053 33.9474 4.70667Z" fill="white"/>
<path d="M34.8172 2.81085C34.7733 2.74105 34.6804 2.72051 34.6105 2.76392C34.541 2.80795 34.5201 2.9005 34.564 2.97042C34.5924 3.01544 34.6411 3.04012 34.6909 3.04012C34.7181 3.04012 34.7457 3.03267 34.7703 3.01715H34.7705C34.84 2.97314 34.8609 2.88057 34.8172 2.81085Z" fill="white"/>
<path d="M34.7323 5.06677C34.6883 4.99716 34.5956 4.97601 34.526 5.02014C34.4561 5.06404 34.4351 5.15663 34.479 5.22643C34.5004 5.26027 34.5336 5.28384 34.5725 5.2926C34.5836 5.29513 34.5949 5.29644 34.6059 5.29644C34.6337 5.29644 34.6611 5.28857 34.6853 5.27328C34.7552 5.22934 34.7764 5.13678 34.7323 5.06677Z" fill="white"/>
<path d="M35.4495 4.70115C35.4102 4.69208 35.3701 4.69904 35.3365 4.7205C35.3026 4.74184 35.2792 4.77509 35.2704 4.81387C35.2615 4.85275 35.2684 4.89284 35.2897 4.92668C35.3109 4.96054 35.3441 4.9841 35.3832 4.99297C35.3943 4.99549 35.4054 4.9967 35.4164 4.9967C35.4845 4.9967 35.5465 4.94955 35.5625 4.88024V4.88005C35.5806 4.79957 35.5298 4.71928 35.4495 4.70115Z" fill="white"/>
<path d="M34.664 4.86221C35.1332 4.86221 35.5136 4.48185 35.5136 4.01265C35.5136 3.54345 35.1332 3.16309 34.664 3.16309C34.1948 3.16309 33.8145 3.54345 33.8145 4.01265C33.8145 4.48185 34.1948 4.86221 34.664 4.86221Z" fill="white"/>
<path d="M34.0069 3.11096C33.9858 3.07712 33.9526 3.05355 33.9135 3.04469C33.8347 3.02665 33.7527 3.07672 33.7341 3.1577C33.716 3.23818 33.7668 3.31847 33.8472 3.33661C33.8582 3.33912 33.8695 3.34043 33.8806 3.34043C33.9086 3.34043 33.936 3.33248 33.9602 3.31726C33.9941 3.2959 34.0174 3.26267 34.0263 3.22358C34.0351 3.1848 34.0283 3.14481 34.0069 3.11096Z" fill="white"/>
<path d="M59.7959 49.2712H59.7954C59.6472 49.271 59.5108 49.19 59.44 49.06L58.4076 47.167L56.5173 46.1301C56.3871 46.0589 56.3066 45.9223 56.3066 45.7743C56.3071 45.626 56.388 45.4897 56.5182 45.4188L58.4111 44.3866L59.4479 42.4964C59.5192 42.3666 59.6555 42.2861 59.8034 42.2861H59.8038C59.952 42.2864 60.0884 42.3673 60.1592 42.4973L61.1917 44.3901L63.0814 45.427C63.2116 45.4982 63.2921 45.6348 63.2921 45.7828C63.2917 45.9311 63.2108 46.0675 63.0806 46.1383L61.1881 47.1705L60.1513 49.0607C60.08 49.1905 59.9437 49.2712 59.7959 49.2712ZM57.5573 45.7758L58.9016 46.5133C58.9698 46.5505 59.0256 46.6065 59.0626 46.6745L59.7968 48.021L60.5345 46.6765C60.5718 46.6085 60.6277 46.5527 60.6959 46.5155L62.042 45.7813L60.6977 45.0438C60.6295 45.0064 60.5736 44.9506 60.5367 44.8826L59.8025 43.5363L59.0648 44.8808C59.0274 44.9488 58.9715 45.0047 58.9033 45.0416L57.5573 45.7758Z" fill="#224B8F"/>
<g filter="url(#filter0_b)">
<path d="M54.955 47.4748C54.955 47.9057 54.7838 48.319 54.4791 48.6237C54.1744 48.9284 53.7612 49.0995 53.3303 49.0995C52.406 49.0995 52.7562 49.2029 44.0471 40.488C36.6239 46.0625 25.6758 40.8956 25.6758 31.3024C25.6758 28.2571 26.8855 25.3366 29.0388 23.1833C31.1921 21.03 34.1126 19.8203 37.1578 19.8203C46.7339 19.8203 51.9295 30.7627 46.3435 38.1916C55.0296 46.8778 54.955 46.5448 54.955 47.4748Z" fill="url(#paint0_linear)" fill-opacity="0.7"/>
</g>
<g filter="url(#filter1_bd)">
<path d="M37.1574 39.9135C41.9135 39.9135 45.769 36.058 45.769 31.302C45.769 26.5459 41.9135 22.6904 37.1574 22.6904C32.4014 22.6904 28.5459 26.5459 28.5459 31.302C28.5459 36.058 32.4014 39.9135 37.1574 39.9135Z" fill="url(#paint1_linear)" fill-opacity="0.5" shape-rendering="crispEdges"/>
</g>
<path d="M65.6116 41.626H65.6112C65.4629 41.6258 65.3266 41.5449 65.2557 41.4149L64.5488 40.119L63.2547 39.409C63.1244 39.3377 63.0439 39.2013 63.0439 39.0531C63.0444 38.9049 63.1253 38.7685 63.2555 38.6977L64.5515 37.991L65.2614 36.6966C65.3327 36.5668 65.4691 36.4863 65.6169 36.4863H65.6173C65.7656 36.4865 65.9019 36.5675 65.9728 36.6975L66.6797 37.9936L67.9734 38.7036C68.1036 38.7749 68.1841 38.9115 68.1841 39.0597C68.1837 39.2077 68.1027 39.3441 67.9725 39.4149L66.6766 40.1216L65.967 41.4155C65.8958 41.5453 65.7594 41.626 65.6116 41.626ZM64.2946 39.0546L65.0428 39.4651C65.111 39.5022 65.1669 39.5583 65.2038 39.6263L65.6125 40.3759L66.0229 39.6276C66.0603 39.5596 66.1162 39.5038 66.1843 39.4666L66.9339 39.0579L66.1857 38.6473C66.1175 38.6099 66.0616 38.554 66.0247 38.4861L65.616 37.7365L65.2051 38.4852C65.1677 38.5532 65.1119 38.609 65.0437 38.646L64.2946 39.0546Z" fill="#224B8F"/>
<path d="M2.24021 32.5556C2.23964 33.0497 2.14337 33.4206 1.95196 33.6685C1.76026 33.917 1.47964 34.0403 1.11008 34.04C0.755489 34.0395 0.48164 33.9119 0.288533 33.6569C0.0954264 33.402 -0.000562155 33.0341 2.47641e-06 32.5528C0.00113177 31.5706 0.372382 31.0802 1.11375 31.0811C1.47682 31.0813 1.75546 31.2092 1.9497 31.4639C2.14394 31.7188 2.24077 32.0827 2.24021 32.5556ZM0.812236 32.5598C0.811671 32.8328 0.835668 33.0367 0.883945 33.1711C0.931939 33.3055 1.00986 33.3726 1.11742 33.3729C1.3238 33.3732 1.42713 33.1025 1.42797 32.5607C1.42854 32.0237 1.32577 31.755 1.1194 31.7547C1.01184 31.7544 0.933915 31.8205 0.885356 31.9526C0.836797 32.0847 0.812518 32.2871 0.812236 32.5598ZM4.45952 31.1528L1.8396 35.8621L1.06604 35.8613L3.68597 31.1519L4.45952 31.1528ZM5.53855 34.4418C5.53798 34.9342 5.44171 35.3043 5.2503 35.5521C5.0586 35.8 4.77798 35.924 4.40842 35.9234C4.05383 35.9231 3.77998 35.7952 3.58715 35.5406C3.39405 35.2856 3.29778 34.9183 3.29834 34.439C3.29947 33.4571 3.67072 32.9667 4.41209 32.9675C4.77515 32.9681 5.0538 33.0957 5.24804 33.3506C5.44227 33.6056 5.53911 33.9692 5.53855 34.4418ZM4.11057 34.4466C4.11029 34.7196 4.13401 34.9231 4.18228 35.0575C4.23056 35.1919 4.3082 35.2594 4.41576 35.2594C4.62214 35.2597 4.72575 34.9889 4.72631 34.4474C4.72688 33.9102 4.62411 33.6414 4.41774 33.6411C4.31017 33.6411 4.23225 33.7069 4.18398 33.839C4.13514 33.9712 4.11086 34.1739 4.11057 34.4466Z" fill="#224B8F"/>
<path d="M22.8031 39.9117C22.38 35.378 18.3618 32.0457 13.8281 32.4688L14.5942 40.6777L22.8031 39.9117Z" fill="#6F6CB1"/>
<path d="M13.139 42.5161L12.4624 35.2666C8.5624 35.6986 5.75731 39.3055 6.39664 43.2606C6.93952 46.6189 9.92458 49.1194 13.3261 49.062C17.2799 48.9952 20.2983 45.6944 20.1402 41.8628L13.139 42.5161Z" fill="#6A6AB0"/>
<path d="M61.3624 28.4861C60.8249 28.4861 60.3877 28.0489 60.3877 27.5114V22.1036C60.3877 21.5661 60.8249 21.1289 61.3624 21.1289C61.8999 21.1289 62.3372 21.5661 62.3372 22.1036V27.5114C62.3372 28.0489 61.8999 28.4861 61.3624 28.4861ZM61.3624 21.5172C61.0392 21.5172 60.776 21.7804 60.776 22.1036V27.5114C60.776 27.8347 61.0392 28.0978 61.3624 28.0978C61.6857 28.0978 61.9489 27.8347 61.9489 27.5114V22.1036C61.9489 21.7804 61.6857 21.5172 61.3624 21.5172Z" fill="#6A6BB1"/>
<path d="M58.5011 28.4861C57.9636 28.4861 57.5264 28.0489 57.5264 27.5114V24.671C57.5264 24.1335 57.9636 23.6963 58.5011 23.6963C59.0386 23.6963 59.4758 24.1335 59.4758 24.671V27.5114C59.4758 28.0489 59.0386 28.4861 58.5011 28.4861ZM58.5011 24.0846C58.1778 24.0846 57.9147 24.3478 57.9147 24.671V27.5114C57.9147 27.8347 58.1778 28.0978 58.5011 28.0978C58.8244 28.0978 59.0875 27.8347 59.0875 27.5114V24.671C59.0875 24.3478 58.8244 24.0846 58.5011 24.0846Z" fill="#6A6BB1"/>
<path d="M55.6388 28.4865C55.1013 28.4865 54.6641 28.0492 54.6641 27.5117V23.2042C54.6641 22.6667 55.1013 22.2295 55.6388 22.2295C56.1763 22.2295 56.6135 22.6667 56.6135 23.2042V27.5117C56.6135 28.0492 56.1763 28.4865 55.6388 28.4865ZM55.6388 22.6178C55.3155 22.6178 55.0524 22.881 55.0524 23.2042V27.5117C55.0524 27.835 55.3155 28.0982 55.6388 28.0982C55.9621 28.0982 56.2252 27.835 56.2252 27.5117V23.2042C56.2252 22.881 55.9621 22.6178 55.6388 22.6178Z" fill="#6A6BB1"/>
<path d="M52.7765 28.486C52.239 28.486 51.8018 28.0487 51.8018 27.5112V27.2384C51.8018 26.7009 52.239 26.2637 52.7765 26.2637C53.314 26.2637 53.7512 26.7009 53.7512 27.2384V27.5112C53.7512 28.0487 53.314 28.486 52.7765 28.486ZM52.7765 26.652C52.4532 26.652 52.1901 26.9151 52.1901 27.2384V27.5112C52.1901 27.8345 52.4532 28.0977 52.7765 28.0977C53.0998 28.0977 53.3629 27.8345 53.3629 27.5112V27.2384C53.3629 26.9151 53.0998 26.652 52.7765 26.652Z" fill="#6A6BB1"/>
<path d="M61.9598 17.6262L61.9749 18.0141L62.7272 17.9845L58.4507 21.5928L55.9112 19.6037L51.8682 23.1628L52.1249 23.4544L55.9256 20.1084L58.4598 22.0933L63.0357 18.2323L63.0069 19.0423L63.3949 19.0559L63.4479 17.5674L61.9598 17.6262Z" fill="#6A6BB1"/>
<path d="M11.937 22.596L12.6276 23.8588L13.8903 24.5493L12.6276 25.24L11.937 26.5026L11.2464 25.24L9.98363 24.5493L11.2464 23.8588L11.937 22.596ZM11.937 21.1709L11.337 22.2679L10.7425 23.3549L9.65555 23.9494L8.55859 24.5493L9.6555 25.1492L10.7425 25.7438L11.337 26.8308L11.937 27.9277L12.5369 26.8308L13.1314 25.7438L14.2184 25.1492L15.3154 24.5493L14.2184 23.9494L13.1314 23.3549L12.5369 22.2679L11.937 21.1709Z" fill="#224B8F"/>
<path d="M82.9659 41.9669C82.139 40.5543 81.3219 39.1361 80.5 37.7207C80.3248 37.4191 80.1418 37.1222 80.0305 36.9365C79.576 37.3374 79.1313 37.7366 78.6791 38.1271C77.5946 39.0635 76.3876 39.7703 74.9347 39.904C74.2686 39.9653 73.5894 39.8944 72.9165 39.8712C70.5361 39.789 68.6429 40.7098 67.2192 42.615C67.0966 42.779 67.0829 42.907 67.1868 43.0896C67.4766 43.5987 67.7426 44.1213 68.0206 44.6371C68.6553 45.8143 69.2915 46.9905 69.9436 48.1978C70.8341 47.0924 71.551 46.6148 72.9482 46.4511C73.9742 46.3309 75.0203 46.3688 76.0577 46.3611C79.1007 46.3384 81.3432 44.9252 82.9689 42.4207C83.074 42.2589 83.0621 42.1313 82.9659 41.9669Z" fill="#6A6AB0"/>
<path d="M74.2425 42.9475C74.2161 42.7942 74.2131 42.6385 74.2343 42.4792C74.2556 42.3201 74.3022 42.1687 74.3751 42.0248C74.448 41.8806 74.547 41.749 74.6723 41.6289C74.7977 41.5088 74.9515 41.4112 75.1327 41.3366C75.3873 41.2318 75.6304 41.1969 75.8627 41.2319C76.0941 41.2675 76.2929 41.3555 76.4569 41.4977L76.1611 41.9522C76.0927 41.8892 76.0218 41.8417 75.9476 41.8099C75.8733 41.7781 75.8007 41.7588 75.728 41.7522C75.6554 41.7457 75.5839 41.7487 75.5132 41.761C75.4421 41.7737 75.3759 41.7927 75.3137 41.8183C75.2121 41.8601 75.1267 41.9132 75.0579 41.9781C74.9891 42.0429 74.9343 42.115 74.894 42.1939C74.8531 42.2729 74.826 42.3572 74.8116 42.4464C74.7962 42.5365 74.7941 42.6262 74.8038 42.7163L75.801 42.3056L75.8031 42.6416L74.8717 43.0252L74.8894 43.0683C74.9119 43.1229 74.9373 43.1731 74.9656 43.2193L75.8771 42.8439L75.8787 43.1803L75.166 43.4739C75.2932 43.5917 75.4375 43.6704 75.5985 43.7106C75.7594 43.7505 75.9215 43.7368 76.0849 43.6695C76.1472 43.6439 76.2092 43.6092 76.2706 43.5658C76.3309 43.5228 76.3855 43.4713 76.4324 43.4128C76.4797 43.3537 76.518 43.2868 76.5484 43.212C76.5783 43.1376 76.5931 43.0562 76.5935 42.9681L77.1381 43.0398C77.1366 43.162 77.1115 43.2793 77.062 43.3925C77.013 43.5055 76.9483 43.6102 76.8682 43.7071C76.7875 43.804 76.6956 43.8905 76.5903 43.9673C76.4855 44.0439 76.3763 44.1055 76.2653 44.1512C76.1118 44.2144 75.9578 44.2477 75.8024 44.251C75.647 44.254 75.4974 44.2346 75.3524 44.1924C75.2075 44.1502 75.0713 44.087 74.944 44.0029C74.8167 43.9185 74.7035 43.8192 74.6047 43.7051L74.1997 43.8719L74.2015 43.534L74.4197 43.4441C74.3898 43.3928 74.3622 43.3371 74.3376 43.2774L74.3263 43.2499L74.0533 43.3623L74.0518 43.0261L74.2425 42.9475Z" fill="white"/>
<defs>
<filter id="filter0_b" x="15.6758" y="9.82031" width="49.2792" height="49.2793" filterUnits="userSpaceOnUse" color-interpolation-filters="sRGB">
<feFlood flood-opacity="0" result="BackgroundImageFix"/>
<feGaussianBlur in="BackgroundImage" stdDeviation="5"/>
<feComposite in2="SourceAlpha" operator="in" result="effect1_backgroundBlur"/>
<feBlend mode="normal" in="SourceGraphic" in2="effect1_backgroundBlur" result="shape"/>
</filter>
<filter id="filter1_bd" x="18.5459" y="12.6904" width="37.2231" height="37.2231" filterUnits="userSpaceOnUse" color-interpolation-filters="sRGB">
<feFlood flood-opacity="0" result="BackgroundImageFix"/>
<feGaussianBlur in="BackgroundImage" stdDeviation="5"/>
<feComposite in2="SourceAlpha" operator="in" result="effect1_backgroundBlur"/>
<feColorMatrix in="SourceAlpha" type="matrix" values="0 0 0 0 0 0 0 0 0 0 0 0 0 0 0 0 0 0 127 0" result="hardAlpha"/>
<feOffset dy="4"/>
<feGaussianBlur stdDeviation="2"/>
<feComposite in2="hardAlpha" operator="out"/>
<feColorMatrix type="matrix" values="0 0 0 0 0 0 0 0 0 0 0 0 0 0 0 0 0 0 0.25 0"/>
<feBlend mode="normal" in2="effect1_backgroundBlur" result="effect2_dropShadow"/>
<feBlend mode="normal" in="SourceGraphic" in2="effect2_dropShadow" result="shape"/>
</filter>
<linearGradient id="paint0_linear" x1="40.3154" y1="49.0995" x2="40.3154" y2="19.8203" gradientUnits="userSpaceOnUse">
<stop stop-color="#224B8F"/>
<stop offset="1" stop-color="#8AAAE5"/>
</linearGradient>
<linearGradient id="paint1_linear" x1="37.1574" y1="39.9135" x2="37.1574" y2="22.6904" gradientUnits="userSpaceOnUse">
<stop stop-color="#9DD5DF"/>
<stop offset="1" stop-color="#C3E1F5"/>
</linearGradient>
</defs>
</svg>
