<svg width="83" height="50" viewBox="0 0 83 50" fill="none" xmlns="http://www.w3.org/2000/svg">
<path d="M76.6097 33.0036C76.6091 33.0036 76.6084 33.0036 76.6081 33.0036L75.7452 33.0025C75.0487 33.0017 74.4825 32.4344 74.4834 31.7379L74.4906 25.8808C74.4916 25.1849 75.0581 24.6191 75.754 24.6191C75.7546 24.6191 75.755 24.6191 75.7556 24.6191L76.6185 24.6202C77.315 24.621 77.8809 25.1885 77.88 25.885L77.8727 31.742C77.8724 32.0783 77.7403 32.3951 77.5009 32.634C77.2618 32.8723 76.9453 33.0036 76.6097 33.0036ZM75.754 25.2634C75.413 25.2634 75.1352 25.5406 75.1349 25.8816L75.1277 31.7387C75.1274 32.0798 75.4045 32.3578 75.7458 32.3583L76.6087 32.3594C76.6091 32.3594 76.6094 32.3594 76.6097 32.3594C76.7736 32.3594 76.9284 32.2949 77.0457 32.1778C77.1634 32.0605 77.2282 31.9054 77.2285 31.7412L77.2357 25.8842C77.236 25.5429 76.9589 25.265 76.6179 25.2645L75.755 25.2634C75.7546 25.2634 75.7543 25.2634 75.754 25.2634Z" fill="#6769AF"/>
<path d="M71.9033 32.9974C71.9027 32.9974 71.9024 32.9974 71.9017 32.9974L71.0388 32.9963C70.3423 32.9956 69.7764 32.4282 69.7773 31.7317L69.7877 23.2948C69.788 22.9586 69.9202 22.6418 70.1596 22.4028C70.3987 22.1645 70.7151 22.0332 71.0508 22.0332C71.0514 22.0332 71.052 22.0332 71.0524 22.0332L71.9153 22.0343C72.6118 22.0351 73.178 22.6026 73.1771 23.2991L73.1667 31.7358C73.1657 32.4317 72.5992 32.9974 71.9033 32.9974ZM71.0508 22.6775C70.8869 22.6775 70.7321 22.742 70.6148 22.859C70.4971 22.9763 70.4323 23.1314 70.432 23.2956L70.4216 31.7325C70.4213 31.8967 70.4858 32.052 70.6031 32.1695C70.7205 32.287 70.8752 32.3519 71.0395 32.3521L71.9024 32.3532C71.9027 32.3532 71.903 32.3532 71.9033 32.3532C72.2443 32.3532 72.5221 32.076 72.5224 31.735L72.5328 23.2983C72.5331 22.957 72.256 22.679 71.9146 22.6786L71.0517 22.6775C71.0514 22.6775 71.0511 22.6775 71.0508 22.6775Z" fill="#6769AF"/>
<path d="M67.1976 32.9921C67.1969 32.9921 67.1963 32.9921 67.196 32.9921L66.3331 32.991C65.9965 32.9905 65.6797 32.8586 65.4409 32.6192C65.2022 32.3798 65.071 32.0627 65.0713 31.7264L65.0729 30.3839C65.0732 30.0474 65.2053 29.7306 65.4447 29.4917C65.6838 29.2534 66.0003 29.1221 66.3359 29.1221C66.3366 29.1221 66.3372 29.1221 66.3375 29.1221L67.2004 29.1232C67.537 29.1236 67.8538 29.2556 68.0926 29.4952C68.3313 29.7346 68.4625 30.0517 68.4622 30.388L68.4606 31.7303C68.4603 32.0667 68.3282 32.3835 68.0888 32.6225C67.8497 32.8608 67.5332 32.9921 67.1976 32.9921ZM66.3359 29.7663C66.172 29.7663 66.0172 29.8308 65.8999 29.9479C65.7823 30.0652 65.7174 30.2203 65.7171 30.3845L65.7156 31.727C65.7152 31.8914 65.7797 32.0466 65.8971 32.1641C66.0144 32.2816 66.1695 32.3466 66.3337 32.3467L67.1966 32.3478C67.1969 32.3478 67.1973 32.3478 67.1976 32.3478C67.3615 32.3478 67.5162 32.2833 67.6336 32.1663C67.7512 32.049 67.816 31.8939 67.8164 31.7297L67.8179 30.3873C67.8182 30.223 67.7538 30.0677 67.6364 29.9501C67.5191 29.8326 67.364 29.7676 67.1998 29.7674L66.3369 29.7663C66.3366 29.7663 66.3362 29.7663 66.3359 29.7663Z" fill="#6769AF"/>
<path d="M80.8978 33.0087C80.8971 33.0087 80.8965 33.0087 80.8962 33.0087L80.0333 33.0076C79.6967 33.0071 79.3799 32.8752 79.1411 32.6358C78.9024 32.3964 78.7712 32.0793 78.7715 31.743L78.7731 30.4005C78.774 29.7045 79.3406 29.1387 80.0364 29.1387C80.0371 29.1387 80.0374 29.1387 80.038 29.1387L80.9006 29.1398C81.2372 29.1402 81.554 29.2722 81.7928 29.5118C82.0315 29.7512 82.1627 30.0683 82.1624 30.4046L82.1608 31.7469C82.1605 32.0833 82.0284 32.4001 81.789 32.6391C81.5499 32.8774 81.2334 33.0087 80.8978 33.0087ZM80.0364 29.7829C79.6954 29.7829 79.4176 30.0601 79.4173 30.4011L79.4158 31.7436C79.4154 31.908 79.4799 32.0632 79.5973 32.1807C79.7146 32.2982 79.8697 32.3632 80.0339 32.3633L80.8968 32.3644C80.8971 32.3644 80.8975 32.3644 80.8978 32.3644C81.0617 32.3644 81.2164 32.2999 81.3338 32.1829C81.4514 32.0656 81.5162 31.9105 81.5166 31.7463L81.5181 30.4039C81.5184 30.2396 81.454 30.0843 81.3366 29.9667C81.2193 29.8492 81.0642 29.7842 80.9 29.784L80.0374 29.7829C80.0371 29.7829 80.0367 29.7829 80.0364 29.7829Z" fill="#6769AF"/>
<path d="M4.0741 3.63849C4.07315 3.63849 4.07221 3.63849 4.07158 3.63849C3.58555 3.63787 3.12877 3.44817 2.78524 3.10417C2.44203 2.76001 2.25328 2.30292 2.25391 1.81689C2.25454 1.33101 2.44423 0.87439 2.7887 0.531177C3.13223 0.188594 3.58838 0 4.07347 0C4.07441 0 4.07536 0 4.07599 0C5.0792 0.00110106 5.89429 0.818237 5.89303 1.82145C5.8924 2.30748 5.70271 2.7641 5.35855 3.10732C5.01502 3.4499 4.55887 3.63849 4.0741 3.63849ZM4.07378 0.644271C3.76014 0.644271 3.46538 0.766015 3.24359 0.987326C3.02118 1.20911 2.89849 1.50388 2.89818 1.81767C2.89755 2.13163 3.01961 2.42687 3.24139 2.64897C3.46317 2.87122 3.75825 2.99391 4.07221 2.99422C4.07284 2.99422 4.07347 2.99422 4.07378 2.99422C4.38711 2.99422 4.68188 2.87248 4.90366 2.65117C5.12576 2.42954 5.24845 2.13462 5.24876 1.82082L5.5709 1.82113L5.24876 1.82082C5.24939 1.17277 4.72309 0.645057 4.07536 0.644271C4.07473 0.644271 4.0741 0.644271 4.07378 0.644271Z" fill="#8AAAE5"/>
<path d="M8.73478 31.6424L8.30631 31.5692C8.27077 31.473 8.23176 31.3781 8.18929 31.2856L8.44158 30.9324C8.68979 30.5852 8.65078 30.1155 8.34973 29.8165L7.80235 29.2682C7.63813 29.1038 7.42076 29.0131 7.18985 29.0126C7.18954 29.0126 7.18922 29.0126 7.18859 29.0126C7.00582 29.0126 6.83185 29.0688 6.68777 29.1734L6.33386 29.4253C6.23288 29.3785 6.13033 29.3362 6.02683 29.2987L5.95699 28.8797C5.88747 28.4599 5.52821 28.1547 5.10289 28.1543L4.32775 28.1533C4.32744 28.1533 4.32712 28.1533 4.32681 28.1533C3.90275 28.1533 3.54381 28.4572 3.47302 28.8755L3.39752 29.3121C3.30189 29.3478 3.2072 29.3874 3.1144 29.431L2.76678 29.1797C2.62018 29.0738 2.4459 29.0178 2.2625 29.0175C2.26218 29.0175 2.26187 29.0175 2.26156 29.0175C2.02939 29.0175 1.8117 29.1082 1.65032 29.2714L1.10011 29.8187C0.798419 30.1187 0.758466 30.5879 1.00447 30.9344L1.26054 31.2956C1.21839 31.3884 1.17938 31.4835 1.14446 31.5807L0.726064 31.651C0.306407 31.7204 0.00157393 32.0798 0.000944731 32.5055L9.75139e-07 33.2796C-0.000628188 33.7045 0.303261 34.0645 0.721974 34.1356L1.1583 34.2102C1.19385 34.3063 1.2338 34.401 1.27722 34.4936L1.02775 34.84C0.779229 35.1878 0.818552 35.6576 1.1193 35.9557L1.66667 36.5051C1.83026 36.669 2.04764 36.7593 2.27886 36.7596C2.27917 36.7596 2.27949 36.7596 2.28012 36.7596C2.46226 36.7596 2.63623 36.7038 2.78062 36.5995L3.14208 36.3434C3.22765 36.3824 3.31573 36.4186 3.40602 36.4519L3.4768 36.8813C3.54727 37.3 3.90684 37.6044 4.33153 37.6052L5.10761 37.6061C5.10792 37.6061 5.10824 37.6061 5.10855 37.6061C5.53356 37.6061 5.89313 37.3024 5.9636 36.8843L6.03689 36.4557C6.13221 36.4208 6.2269 36.3818 6.32065 36.3387L6.67236 36.591C6.81927 36.6965 6.99386 36.7525 7.17727 36.7528C7.17758 36.7528 7.1779 36.7528 7.17821 36.7528C7.4088 36.7528 7.62586 36.6625 7.78882 36.4993L8.33714 35.9525C8.64009 35.6529 8.68036 35.1834 8.43341 34.8362L8.18079 34.4809C8.22484 34.3865 8.26416 34.292 8.29908 34.1979L8.72628 34.1271C9.14594 34.0584 9.45109 33.699 9.45172 33.2726L9.45266 32.5029C9.45927 32.0764 9.15727 31.7146 8.73478 31.6424ZM8.80745 33.2719C8.80745 33.3814 8.72943 33.4737 8.62153 33.4914L8.00305 33.5939C7.88194 33.6139 7.78284 33.7009 7.74729 33.8184C7.6935 33.9956 7.61769 34.1779 7.52174 34.3606C7.46511 34.4681 7.47392 34.5982 7.54407 34.6972L7.90836 35.2095C7.97034 35.2969 7.95995 35.4195 7.8832 35.4954L7.3333 36.0436C7.29083 36.0861 7.23735 36.1086 7.17821 36.1086C7.17821 36.1086 7.17821 36.1086 7.1779 36.1086C7.12945 36.1086 7.08604 36.0949 7.04797 36.0675L6.53897 35.7027C6.43988 35.6318 6.30964 35.6227 6.20174 35.6793C6.02557 35.7718 5.84248 35.8471 5.65782 35.9031C5.54111 35.9387 5.4546 36.037 5.43415 36.1573L5.32845 36.7767C5.31052 36.884 5.21803 36.9619 5.10855 36.9619C5.10855 36.9619 5.10855 36.9619 5.10824 36.9619L4.33247 36.9609C4.22299 36.9608 4.13051 36.8823 4.11226 36.7755L4.01034 36.1565C3.99052 36.0362 3.90463 35.9374 3.78824 35.9012C3.60043 35.8429 3.42363 35.7702 3.26288 35.6851C3.21538 35.6601 3.16379 35.6477 3.11219 35.6477C3.04676 35.6477 2.98133 35.6677 2.92596 35.707L2.40595 36.0754C2.36914 36.1018 2.32667 36.1153 2.2798 36.1153H2.27949C2.21972 36.1153 2.16529 36.0927 2.12282 36.05L1.57419 35.4994C1.49743 35.4235 1.4883 35.3037 1.55122 35.2156L1.91425 34.712C1.98629 34.6118 1.9951 34.4792 1.93627 34.3706C1.84347 34.1984 1.76703 34.0162 1.70883 33.8292C1.67297 33.7135 1.57482 33.6277 1.45559 33.6073L0.830192 33.5005C0.722289 33.4821 0.644272 33.3896 0.644272 33.2804L0.645216 32.5061C0.645216 32.3968 0.723547 32.3044 0.831765 32.2865L1.44269 32.1841C1.5638 32.1638 1.6629 32.0765 1.69813 31.9589C1.75539 31.7682 1.82963 31.5854 1.91929 31.4159C1.97591 31.3085 1.96742 31.1782 1.89695 31.0791L1.52983 30.5615C1.4666 30.4728 1.47698 30.3524 1.55437 30.2755L2.10646 29.7262C2.14768 29.6847 2.20273 29.6618 2.26156 29.6618C2.26156 29.6618 2.26156 29.6618 2.26187 29.6618C2.30906 29.6618 2.35341 29.6758 2.38959 29.7019L2.89513 30.0676C2.99517 30.1399 3.12824 30.1484 3.23614 30.0904C3.40979 29.9973 3.59225 29.9207 3.77849 29.8626C3.89394 29.8268 3.97951 29.7291 3.99995 29.6099L4.10817 28.984C4.12642 28.8759 4.21828 28.7976 4.32681 28.7976C4.32681 28.7976 4.32681 28.7976 4.32712 28.7976L5.10226 28.7985C5.21142 28.7987 5.3036 28.8772 5.32153 28.9854L5.42345 29.5963C5.44359 29.7174 5.53104 29.8165 5.6487 29.8519C5.84028 29.9093 6.02997 29.9877 6.21243 30.0844C6.32034 30.141 6.45057 30.1325 6.5503 30.0621L7.0637 29.6965C7.09988 29.6703 7.14203 29.6569 7.18859 29.6569C7.18859 29.6569 7.18859 29.6569 7.18891 29.6569C7.24868 29.657 7.3031 29.68 7.34651 29.7234L7.89484 30.2725C7.97159 30.3488 7.98103 30.4688 7.91749 30.5579L7.5532 31.0676C7.48241 31.1667 7.47361 31.2971 7.53023 31.4049C7.62052 31.577 7.69633 31.7604 7.75516 31.9501C7.79102 32.0658 7.88917 32.1517 8.00872 32.1721L8.62656 32.2775C8.73352 32.2958 8.80996 32.3864 8.80839 32.4976L8.80745 33.2719Z" fill="#8AAAE5"/>
<path d="M4.72822 31.2529C4.72759 31.2529 4.72696 31.2529 4.72602 31.2529C4.29252 31.2529 3.8845 31.4215 3.57747 31.728C3.2698 32.0348 3.10024 32.4433 3.09961 32.8779C3.09898 33.3125 3.2676 33.7212 3.57463 34.0288C3.88136 34.3363 4.28969 34.5061 4.72444 34.5067C4.72507 34.5067 4.7257 34.5067 4.72633 34.5067C5.62227 34.5067 6.35211 33.7783 6.35337 32.8822C6.35463 31.985 5.62542 31.254 4.72822 31.2529ZM4.72633 33.8624C4.72602 33.8624 4.7257 33.8624 4.72507 33.8624C4.46271 33.8621 4.21607 33.7595 4.03078 33.5738C3.84549 33.388 3.74357 33.1412 3.74388 32.8789C3.7442 32.6162 3.84675 32.3694 4.03267 32.1841C4.21796 31.999 4.46428 31.8972 4.72602 31.8972C4.72665 31.8972 4.72696 31.8972 4.72759 31.8972C5.26931 31.898 5.70973 32.3394 5.7091 32.8812C5.70847 33.4225 5.26742 33.8624 4.72633 33.8624Z" fill="#8AAAE5"/>
<path d="M59.7899 6.69534C59.7643 6.6758 59.7352 6.66562 59.7065 6.65476C58.7211 5.41427 57.6328 4.78125 56.4682 4.78125C56.4625 4.78125 56.4572 4.78125 56.4515 4.78125C54.6517 4.79037 53.3023 6.30085 52.9947 6.67615C52.9826 6.683 52.9691 6.6852 52.9577 6.69377C52.8155 6.80057 52.7869 7.00207 52.8936 7.14426C52.9549 7.22636 54.4218 9.15194 56.4597 9.16248C56.4654 9.16248 56.471 9.16248 56.4767 9.16248C57.6904 9.16248 58.8254 8.48439 59.8497 7.14693C59.9579 7.00568 59.9311 6.80356 59.7899 6.69534ZM56.4663 8.51821C55.1156 8.51286 54.0085 7.4391 53.5904 6.97218C53.9804 6.53365 55.096 5.43071 56.4581 5.42552C57.4112 5.41412 58.3035 5.95068 59.1465 6.98763C58.3003 8.00371 57.3911 8.52655 56.4663 8.51821Z" fill="#8AAAE5"/>
<path d="M56.4839 5.7373C56.4836 5.7373 56.4829 5.7373 56.4823 5.7373C56.1646 5.7373 55.8654 5.86078 55.6405 6.08508C55.4149 6.31001 55.2904 6.60934 55.29 6.92801C55.2897 7.24669 55.4134 7.54633 55.6383 7.77204C55.8632 7.99776 56.1624 8.12218 56.4811 8.12249C56.4814 8.12249 56.482 8.12249 56.4826 8.12249C56.8004 8.12249 57.0992 7.99886 57.3245 7.77409C57.5503 7.549 57.6746 7.24967 57.6749 6.93116C57.6759 6.27367 57.1414 5.73809 56.4839 5.7373ZM57.0306 6.93053C57.0306 7.07681 56.9734 7.21444 56.8696 7.31794C56.7658 7.42128 56.6286 7.47822 56.4823 7.47822C56.4823 7.47822 56.482 7.47822 56.4817 7.47822C56.3354 7.47806 56.1979 7.42081 56.0944 7.31715C55.9909 7.21334 55.934 7.07555 55.9343 6.92895C55.9346 6.78236 55.9916 6.64473 56.0954 6.54138C56.1986 6.43836 56.336 6.38158 56.4823 6.38158C56.4826 6.38158 56.4829 6.38158 56.4833 6.38158C56.7856 6.38205 57.031 6.62805 57.0306 6.93021C57.0306 6.93037 57.0306 6.93037 57.0306 6.93053Z" fill="#8AAAE5"/>
<path d="M53.7012 3.76697L53.1592 4.10938L53.8921 5.26967L54.4342 4.92727L53.7012 3.76697Z" fill="#8AAAE5"/>
<path d="M59.3085 3.78101L58.5029 4.89258L59.0218 5.26862L59.8274 4.15705L59.3085 3.78101Z" fill="#8AAAE5"/>
<path d="M55.7632 3.02606L55.1406 3.17969L55.4694 4.51225L56.092 4.35862L55.7632 3.02606Z" fill="#8AAAE5"/>
<path d="M57.3704 3.02643L57.0254 4.35547L57.6461 4.51659L57.9911 3.18755L57.3704 3.02643Z" fill="#8AAAE5"/>
<path opacity="0.6" d="M10.9521 46.0071L13.7602 41.1572L16.5562 46.014L10.9521 46.0071Z" fill="#8AAAE5"/>
<path opacity="0.77" d="M17.1348 46.014L19.9445 39.75L22.7388 46.0209L17.1348 46.014Z" fill="#8AAAE5"/>
<path opacity="0.5" d="M14.291 46.011L17.0999 41.1611L19.8951 46.0179L14.291 46.011Z" fill="#8AAAE5"/>
<path d="M37.5148 4.14986C37.3699 4.14968 37.231 4.17243 37.0957 4.20631C36.8024 2.79582 35.6324 1.74002 34.2291 1.73828C32.6031 1.73627 31.2835 3.14909 31.2813 4.8939C31.2813 4.91702 31.2838 4.93916 31.2843 4.96208C30.5442 5.02902 29.96 5.68745 29.959 6.49946C29.9581 7.20164 30.3948 7.78863 30.9911 7.98135C31.0399 8.02286 31.0943 8.05318 31.1563 8.05326L37.1916 8.06074C37.2236 8.06078 37.2526 8.04811 37.2812 8.03616C37.3569 8.04647 37.4317 8.06104 37.51 8.06114C38.5161 8.06237 39.333 7.18779 39.3343 6.10776C39.3356 5.02773 38.5209 4.1511 37.5148 4.14986Z" fill="#6A6AB0"/>
<path d="M21.5811 4.9899C22.3005 6.03229 22.8103 7.24376 23.0394 8.57395C23.8834 13.4763 20.5936 18.1347 15.6912 18.9788C10.7889 19.8229 6.13047 16.533 5.28638 11.6307C4.44228 6.72833 7.73216 2.06992 12.6345 1.22583C16.2067 0.610775 19.6493 2.19063 21.5811 4.9899Z" fill="#224B8F"/>
<path d="M17.5681 12.774C18.2433 12.0236 18.6526 11.0566 18.654 10.0007C18.6556 8.84381 18.1752 7.75661 17.3013 6.93916C16.4321 6.12595 15.277 5.67735 14.0485 5.67578C14.0463 5.67578 14.0444 5.67578 14.0422 5.67578C11.5026 5.67578 9.43479 7.60969 9.43164 9.98922C9.43046 11.0779 9.86491 12.0715 10.5762 12.8328C10.5839 12.8423 10.5885 12.8534 10.5978 12.8619C10.6025 12.8661 10.6085 12.8676 10.6135 12.8714C11.4571 13.753 12.6772 14.3124 14.0375 14.3141C14.0397 14.3141 14.0416 14.3141 14.0438 14.3141C15.449 14.3141 16.7077 13.7204 17.5541 12.7884C17.5561 12.7866 17.5588 12.786 17.5608 12.7842C17.564 12.7812 17.5651 12.7771 17.5681 12.774ZM17.3728 12.2533C16.9713 11.8764 16.506 11.5714 15.9954 11.3572C16.1085 10.9455 16.1774 10.5 16.1779 10.0248C16.1785 9.58427 16.1102 9.13646 15.9931 8.69336C16.5122 8.46753 16.9818 8.14614 17.3847 7.75C17.8935 8.40127 18.1718 9.18026 18.1708 10.0001C18.1698 10.8429 17.8713 11.6203 17.3728 12.2533ZM14.0903 13.6874C13.7479 13.3455 13.1314 12.6399 12.7383 11.6815C13.1738 11.5388 13.6365 11.4621 14.1108 11.4621C14.1127 11.4621 14.1146 11.4621 14.1164 11.4621C14.5537 11.4626 14.983 11.5288 15.3902 11.6523C15.0474 12.5685 14.4872 13.271 14.0903 13.6874ZM14.1171 10.9789C14.1149 10.9789 14.113 10.9789 14.1108 10.9789C13.5801 10.9789 13.0623 11.0661 12.5745 11.2274C12.4521 10.8228 12.3759 10.382 12.3765 9.91136C12.377 9.53582 12.4292 9.1794 12.5128 8.84354C13.0001 9.0052 13.5164 9.09422 14.0441 9.09485C14.046 9.09485 14.0479 9.09485 14.0501 9.09485C14.5638 9.09485 15.0663 9.01507 15.5404 8.86363C15.6386 9.25065 15.6953 9.64074 15.6947 10.0241C15.6942 10.439 15.6347 10.829 15.538 11.1922C15.0835 11.0535 14.6047 10.9795 14.1171 10.9789ZM14.0123 6.20814C14.6436 6.83869 15.1189 7.60226 15.4011 8.40037C14.9719 8.53835 14.5164 8.61165 14.0501 8.61165C14.0482 8.61165 14.0463 8.61165 14.0447 8.61165C13.564 8.6111 13.0941 8.52891 12.6513 8.38043C13.0185 7.34835 13.6623 6.5755 14.0123 6.20814ZM17.0643 7.38779C16.7131 7.73765 16.3029 8.0218 15.8498 8.22605C15.5923 7.50384 15.19 6.81155 14.6664 6.20696C15.5364 6.3291 16.3395 6.70086 16.9713 7.29196C17.0042 7.32271 17.0327 7.35622 17.0643 7.38779ZM13.3625 6.21553C12.8472 6.82976 12.4561 7.50671 12.2078 8.20273C11.7689 7.99892 11.3689 7.72302 11.0282 7.38241C11.6352 6.77809 12.4477 6.35729 13.3625 6.21553ZM10.7075 7.74331C11.0999 8.13065 11.5597 8.44374 12.065 8.66969C11.9567 9.08412 11.8938 9.50075 11.8933 9.91073C11.8927 10.405 11.9777 10.9058 12.1298 11.3988C11.6246 11.624 11.1667 11.9393 10.7733 12.327C10.2364 11.6785 9.91382 10.8693 9.91485 9.98985C9.91587 9.14998 10.2122 8.37516 10.7075 7.74331ZM11.1015 12.6814C11.447 12.3381 11.8499 12.0588 12.2942 11.8561C12.5732 12.5457 12.9936 13.2065 13.5371 13.7992C12.5888 13.6906 11.739 13.2842 11.1015 12.6814ZM14.6553 13.7841C15.0544 13.3252 15.5311 12.6554 15.844 11.8181C16.2918 12.0107 16.6995 12.2811 17.0515 12.6136C16.4302 13.2297 15.5947 13.6536 14.6553 13.7841Z" fill="white"/>
<path d="M66.4934 49.2508L61.578 49.9726C60.2004 50.1749 58.9197 49.2222 58.7174 47.8446L58.0115 43.0372C57.8091 41.6597 58.7619 40.3789 60.1395 40.1766L65.0549 39.4548C66.4325 39.2525 67.7132 40.2053 67.9155 41.5828L68.6214 46.3902C68.8238 47.7678 67.871 49.0485 66.4934 49.2508Z" fill="#6F6CB1"/>
<path d="M66.6076 46.7409L65.8114 41.8789C65.7692 41.6219 65.5237 41.4473 65.2641 41.4898L60.4108 42.2845C60.1505 42.3272 59.9728 42.5711 60.015 42.8281L60.8112 47.6901C60.8533 47.9471 61.0994 48.1217 61.3597 48.079L66.2129 47.2843C66.4726 47.2418 66.6497 46.998 66.6076 46.7409ZM60.4721 42.6593L65.3254 41.8645C65.3789 41.8558 65.4287 41.8897 65.4369 41.9402L66.017 45.4826L64.2012 44.3905L63.4372 45.2248L61.9074 44.2153L60.8515 45.589L60.3893 42.7668C60.3812 42.7163 60.4181 42.6681 60.4721 42.6593ZM61.1856 47.6288L60.9357 46.1027L61.9935 44.7267L63.1774 45.5084L61.2093 47.6574L61.2492 47.6939C61.2176 47.6828 61.1911 47.6624 61.1856 47.6288ZM66.1516 46.9095L61.7482 47.6306L64.2713 44.8757L66.0975 45.9738L66.2332 46.8022C66.2414 46.8527 66.2051 46.9008 66.1516 46.9095Z" fill="white"/>
<path d="M64.2279 43.7813C64.4601 43.7433 64.6175 43.5238 64.5794 43.291C64.5411 43.0579 64.3221 42.9002 64.0899 42.9383C63.8568 42.9764 63.699 43.1959 63.7371 43.4289C63.7753 43.6617 63.9949 43.8195 64.2279 43.7813Z" fill="white"/>
<path d="M36.325 24.4705C36.1156 24.2244 35.7465 24.1948 35.5005 24.4042L31.7173 27.6259C31.5868 27.7372 31.5117 27.9 31.5117 28.0713C31.5117 28.2426 31.5868 28.4054 31.7173 28.5164L35.5005 31.7381C35.7465 31.9476 36.1156 31.9179 36.3247 31.6722C36.5342 31.4265 36.5048 31.0575 36.2588 30.848L32.9986 28.0713L36.2591 25.2947C36.5048 25.0852 36.5342 24.7162 36.325 24.4705Z" fill="#224B8F"/>
<path d="M47.5089 27.626L43.7256 24.4043C43.4796 24.1948 43.1106 24.2245 42.9014 24.4702C42.692 24.7162 42.7213 25.0852 42.9673 25.2947L46.2276 28.0714L42.9673 30.848C42.7213 31.0575 42.692 31.4265 42.9014 31.6722C43.1106 31.9179 43.4796 31.9476 43.7256 31.7381L47.5089 28.5164C47.6394 28.4055 47.7144 28.2427 47.7144 28.0714C47.7144 27.9001 47.6394 27.7372 47.5089 27.626Z" fill="#224B8F"/>
<path d="M40.7519 21.9414C40.4361 21.8748 40.1258 22.0771 40.0592 22.3933L37.7011 33.5887C37.6346 33.9049 37.8369 34.2148 38.1527 34.2814C38.4689 34.348 38.7789 34.146 38.8454 33.8298L41.2035 22.6341C41.27 22.3182 41.0681 22.0079 40.7519 21.9414Z" fill="#224B8F"/>
<path d="M53.3955 9.14746H25.8311C23.6639 9.14974 21.9076 10.9061 21.9053 13.0733V36.4688C21.9076 38.6359 23.6639 40.392 25.8311 40.3946H53.3955C55.5627 40.392 57.319 38.6359 57.3213 36.4688V13.0733C57.319 10.9061 55.5627 9.14974 53.3955 9.14746ZM25.8311 10.3169H53.3955C54.9169 10.3185 56.1503 11.5518 56.1519 13.0733V17.3411H23.0747V13.0733C23.0763 11.5518 24.3097 10.3185 25.8311 10.3169ZM53.3955 39.2252H25.8311C24.3097 39.2232 23.0763 37.9902 23.0747 36.4688V18.5105H56.1519V36.4688C56.1503 37.9902 54.9169 39.2232 53.3955 39.2252Z" fill="#224B8F"/>
<path d="M31.8887 15.7124H31.8942C32.9135 15.7114 33.7403 14.8873 33.7446 13.8679C33.7465 12.8467 32.9214 12.0163 31.9001 12.0117H31.8942C30.8841 12.0271 30.0726 12.8493 30.0713 13.8591C30.0697 14.8693 30.8785 15.6941 31.8884 15.7121L31.8887 15.7124ZM31.4143 13.3792C31.5415 13.2519 31.7145 13.1808 31.8942 13.1811H31.8965C32.2652 13.1919 32.5585 13.494 32.5579 13.863C32.5572 14.2317 32.2633 14.5332 31.8942 14.5427H31.8923C31.6169 14.5417 31.3689 14.375 31.2645 14.1202C31.1598 13.8657 31.2192 13.573 31.4143 13.3785V13.3792Z" fill="#224B8F"/>
<path d="M26.2048 15.6948H26.2107C27.2284 15.6932 28.0522 14.8674 28.0513 13.8497C28.0506 12.832 27.2254 12.0078 26.2078 12.0078C25.1904 12.0078 24.3652 12.832 24.3643 13.8497C24.3636 14.8674 25.1875 15.6932 26.2048 15.6948ZM26.2107 13.1638H26.213C26.583 13.1726 26.8783 13.4754 26.8776 13.8454C26.877 14.2158 26.581 14.5176 26.2107 14.5254H26.2087C25.8384 14.5166 25.5431 14.2138 25.5438 13.8435C25.5444 13.4731 25.8407 13.1713 26.2107 13.1638Z" fill="#224B8F"/>
<path d="M37.5759 15.73H37.5818C38.6014 15.7297 39.4285 14.9048 39.4318 13.8855C39.4341 12.8639 38.6089 12.0335 37.5873 12.0293H37.5818C36.5644 12.0342 35.7419 12.8597 35.7402 13.8767C35.7389 14.8941 36.5586 15.7218 37.5759 15.73ZM37.5818 13.1987H37.5837C37.957 13.2033 38.2569 13.5074 38.2562 13.8806C38.2556 14.2539 37.9547 14.557 37.5818 14.5606H37.5795C37.2062 14.5557 36.9064 14.2516 36.907 13.8787C36.9077 13.5054 37.2085 13.202 37.5818 13.1987Z" fill="#224B8F"/>
</svg>
