<svg width="68" height="50" viewBox="0 0 68 50" fill="none" xmlns="http://www.w3.org/2000/svg">
<path d="M54.6555 27.8797L56.5492 30.2124L58.1552 29.285L60.5107 31.9507L61.1845 27.2808C61.2716 26.6768 60.8526 26.1165 60.2486 26.0293L54.4606 25.1942C53.8487 25.1059 53.281 25.5304 53.1927 26.1423L52.75 29.211L54.6555 27.8797Z" fill="#6A6AB0"/>
<path d="M58.0259 30.0781L53.1932 32.8688C53.0572 32.9473 53.0969 33.1535 53.2523 33.1759L59.5585 34.0857C59.9072 34.1361 60.2307 33.8942 60.281 33.5455L60.3946 32.7584L58.0259 30.0781Z" fill="#6A6AB0"/>
<path d="M52.7425 32.411L56.0036 30.5277L54.5382 28.7217L52.6286 30.0557L52.3292 32.1311C52.2961 32.3603 52.5419 32.5268 52.7425 32.411Z" fill="#6A6AB0"/>
<path d="M59.4313 27.7136C59.3899 28.0003 59.1246 28.1992 58.8386 28.158C58.5516 28.1166 58.3528 27.8507 58.3941 27.564C58.4355 27.277 58.7014 27.0783 58.9884 27.1197C59.2744 27.161 59.4727 27.4265 59.4313 27.7136Z" fill="white"/>
<path d="M60.0676 45.8793L58.911 39.7429C58.8498 39.4185 58.5334 39.2047 58.2056 39.2665L52.0803 40.4211C51.7517 40.483 51.5341 40.7975 51.5952 41.1219L52.7519 47.2583C52.8131 47.5827 53.1304 47.7963 53.4589 47.7344L59.5842 46.5798C59.9119 46.518 60.1288 46.2037 60.0676 45.8793ZM52.1694 40.894L58.2948 39.7394C58.3622 39.7267 58.4263 39.7682 58.4384 39.8319L59.2812 44.3029L56.9472 42.9743L56.0044 44.0546L54.0355 42.822L52.7393 44.5947L52.0678 41.0328C52.0558 40.9691 52.1012 40.9069 52.1694 40.894ZM53.2245 47.1692L52.8614 45.243L54.1599 43.4674L55.6839 44.4219L53.2555 47.2047L53.3203 47.2614C53.2726 47.2523 53.2335 47.2171 53.2245 47.1692ZM59.495 46.1068L53.9375 47.1544L57.0507 43.5869L59.398 44.9228L59.5951 45.9684C59.6071 46.0321 59.5625 46.0941 59.495 46.1068Z" fill="#8AAAE5"/>
<path d="M56.9632 42.2014C57.2564 42.1461 57.449 41.8632 57.3936 41.5694C57.3381 41.2752 57.0558 41.0821 56.7627 41.1374C56.4686 41.1928 56.2753 41.4757 56.3308 41.7698C56.3861 42.0635 56.6692 42.2568 56.9632 42.2014Z" fill="#8AAAE5"/>
<path d="M53.2054 48.1119C53.2286 48.0147 53.2423 47.9138 53.2423 47.8098V22.7443C53.2423 22.025 52.6538 21.4365 51.9345 21.4365H13.5733C12.8541 21.4365 12.2656 22.025 12.2656 22.7443V47.8098C12.2656 47.9138 12.2792 48.0147 12.3024 48.1119H8.87695V48.6338C8.87695 49.3893 9.38837 50.0002 10.0186 50.0002H55.37C56.0003 50.0002 56.5117 49.3893 56.5117 48.6338V48.1119H53.2054Z" fill="#224B8F"/>
<path d="M41.1923 23.1963H51.5192V48.0274H14.2354V23.1963H24.5133" fill="#8AAAE5"/>
<path d="M47.2791 39.7439H42.9335C42.6294 39.7439 42.3818 39.4963 42.3818 39.1922V38.3339C42.3818 38.0298 42.6294 37.7822 42.9335 37.7822H47.2791C47.5833 37.7822 47.8309 38.0298 47.8309 38.3339V39.1922C47.8309 39.4963 47.5833 39.7439 47.2791 39.7439ZM42.9335 38.2181C42.8708 38.2181 42.8178 38.2711 42.8178 38.3339V39.1922C42.8178 39.255 42.8708 39.308 42.9335 39.308H47.2791C47.3419 39.308 47.3949 39.255 47.3949 39.1922V38.3339C47.3949 38.2711 47.3419 38.2181 47.2791 38.2181H42.9335Z" fill="white"/>
<path d="M40.7737 39.7439H18.7052C18.4197 39.7439 18.1875 39.5117 18.1875 39.2262V38.2999C18.1875 38.0144 18.4197 37.7822 18.7052 37.7822H40.7737C41.0592 37.7822 41.2914 38.0144 41.2914 38.2999V39.2262C41.2914 39.5117 41.0592 39.7439 40.7737 39.7439ZM18.7052 38.2181C18.6609 38.2181 18.6234 38.2556 18.6234 38.2999V39.2262C18.6234 39.2705 18.6609 39.308 18.7052 39.308H40.7737C40.818 39.308 40.8555 39.2705 40.8555 39.2262V38.2999C40.8555 38.2556 40.818 38.2181 40.7737 38.2181H18.7052Z" fill="white"/>
<path d="M47.2451 42.7947H42.9676C42.6446 42.7947 42.3818 42.5318 42.3818 42.2089V41.4188C42.3818 41.0959 42.6446 40.833 42.9676 40.833H47.2451C47.5681 40.833 47.8309 41.0959 47.8309 41.4188V42.2089C47.8309 42.5318 47.5681 42.7947 47.2451 42.7947ZM42.9676 41.2689C42.885 41.2689 42.8178 41.3362 42.8178 41.4188V42.2089C42.8178 42.2902 42.8864 42.3587 42.9676 42.3587H47.2451C47.3263 42.3587 47.3949 42.2902 47.3949 42.2089V41.4188C47.3949 41.3362 47.3277 41.2689 47.2451 41.2689H42.9676Z" fill="white"/>
<path d="M40.7192 42.7947H18.7596C18.4442 42.7947 18.1875 42.538 18.1875 42.2225V41.4052C18.1875 41.0897 18.4442 40.833 18.7596 40.833H40.7192C41.0347 40.833 41.2914 41.0897 41.2914 41.4052V42.2225C41.2914 42.538 41.0347 42.7947 40.7192 42.7947ZM18.7596 41.2689C18.6858 41.2689 18.6234 41.3313 18.6234 41.4052V42.2225C18.6234 42.2964 18.6858 42.3587 18.7596 42.3587H40.7192C40.7931 42.3587 40.8555 42.2964 40.8555 42.2225V41.4052C40.8555 41.3313 40.7931 41.2689 40.7192 41.2689H18.7596Z" fill="white"/>
<path d="M66.1439 15.5379C65.4921 15.5379 64.9619 15.0079 64.9619 14.3563C64.9619 13.7048 65.4921 13.1748 66.1439 13.1748C66.7954 13.1748 67.3255 13.7048 67.3255 14.3563C67.3255 15.0079 66.7954 15.5379 66.1439 15.5379ZM66.1439 13.6107C65.7325 13.6107 65.3978 13.9451 65.3978 14.3563C65.3978 14.7676 65.7325 15.102 66.1439 15.102C66.5551 15.102 66.8896 14.7676 66.8896 14.3563C66.8896 13.9451 66.5551 13.6107 66.1439 13.6107Z" fill="#2C70EE"/>
<path d="M52.8387 13.4287L51.7617 12.3616L52.4627 11.6535L51.7549 10.9526L52.8227 9.87531L53.5304 10.5764L54.2317 9.86914L55.3089 10.9362L54.6075 11.6437L55.3151 12.3455L54.2479 13.4225L53.5401 12.7214L52.8387 13.4287ZM52.3781 12.3587L52.836 12.8123L53.5373 12.1049L54.2449 12.8061L54.6986 12.348L53.9909 11.6462L54.6922 10.9392L54.2345 10.4856L53.5332 11.1929L52.8254 10.4917L52.3715 10.9496L53.0791 11.6505L52.3781 12.3587Z" fill="#2C70EE"/>
<path d="M17.3178 10.1533C16.6661 10.1533 16.1357 9.62313 16.1357 8.97158C16.1357 8.32004 16.6661 7.79004 17.3178 7.79004C17.9694 7.79004 18.4994 8.32004 18.4994 8.97158C18.4994 9.62313 17.9694 10.1533 17.3178 10.1533ZM17.3178 8.22596C16.9064 8.22596 16.5717 8.56035 16.5717 8.97158C16.5717 9.38282 16.9064 9.71742 17.3178 9.71742C17.7289 9.71742 18.0634 9.38282 18.0634 8.97158C18.0634 8.56035 17.7289 8.22596 17.3178 8.22596Z" fill="#2C70EE"/>
<path d="M7.30788 24.1285L6.60019 23.4267L6.84992 23.175L7.30164 22.7194L6.53417 21.959L6.08245 22.4146L5.83277 22.6662L5.12508 21.9652L4.36426 22.7327L5.07195 23.4337L4.3709 24.1417L5.13837 24.9022L5.83977 24.1949L6.54745 24.8959L7.30788 24.1285Z" fill="#8AAAE5"/>
<path d="M9.65027 10.3691C9.47493 9.38669 8.85781 8.92289 7.41125 8.78487C6.37521 8.6828 6.12449 8.54121 6.05248 8.13775C6.00168 7.85307 6.10772 7.47414 6.70031 7.36839C7.40555 7.24253 7.59916 7.63559 7.71132 7.88014L9.02033 7.64654C8.82377 6.94032 8.28859 6.30597 7.1123 6.33679L7.00653 5.74414L5.90989 5.93986L6.01798 6.54554C5.173 6.86722 4.59034 7.56649 4.75704 8.50056C4.91176 9.36753 5.46935 9.86139 7.10686 10.0316C8.006 10.123 8.28525 10.3016 8.36599 10.7539C8.43184 11.123 8.272 11.4894 7.59 11.6111C7.03882 11.7094 6.61838 11.4747 6.42736 11.0176L5.11945 11.251C5.35013 12.129 6.0791 12.6686 7.17294 12.6409L7.3055 13.3836L8.41025 13.1865L8.27717 12.4408C9.26021 12.1088 9.83597 11.4097 9.65027 10.3691Z" fill="#6A6BB1"/>
<path d="M34.3329 1.84079C34.444 1.55661 34.5971 1.29195 34.7943 1.04588C34.9914 0.800341 35.2233 0.593289 35.4918 0.425854C35.7604 0.257634 36.0602 0.136973 36.3925 0.0624611C36.7247 -0.0120373 37.082 -0.0198197 37.4623 0.0387148C37.996 0.120889 38.4398 0.308931 38.7943 0.603599C39.1468 0.897947 39.3913 1.24754 39.5225 1.6527L38.5647 2.11586C38.5136 1.94063 38.4429 1.78887 38.3504 1.66021C38.258 1.53154 38.1556 1.42545 38.0403 1.34057C37.9251 1.25599 37.8018 1.18838 37.6706 1.13742C37.5384 1.08657 37.408 1.05128 37.2774 1.03118C37.0643 0.998361 36.8672 1.00093 36.6857 1.04007C36.5044 1.07899 36.3393 1.14446 36.1915 1.23613C36.0427 1.32738 35.9118 1.44143 35.7969 1.57664C35.6797 1.71235 35.5852 1.86084 35.5101 2.02202L37.6014 2.34398L37.264 2.91032L35.3106 2.60959L35.2967 2.69998C35.2791 2.81438 35.2707 2.92456 35.2715 3.03078L37.183 3.32507L36.8445 3.89184L35.3497 3.66172C35.4438 3.98843 35.6062 4.26715 35.8358 4.49791C36.0656 4.72819 36.3517 4.8698 36.6944 4.92256C36.8249 4.94267 36.9643 4.94726 37.1114 4.93677C37.2563 4.92569 37.4001 4.89461 37.5384 4.84396C37.6778 4.79271 37.81 4.71921 37.9368 4.62437C38.0626 4.5298 38.1701 4.40815 38.2602 4.26058L39.1019 4.93339C38.9754 5.13712 38.8142 5.3088 38.6163 5.4486C38.4193 5.58857 38.2045 5.69882 37.9717 5.78031C37.7379 5.86115 37.4957 5.91317 37.241 5.93544C36.9873 5.9576 36.7415 5.95024 36.5085 5.91438C36.1868 5.86485 35.8943 5.76446 35.6301 5.61231C35.3659 5.45963 35.1344 5.27535 34.9338 5.05733C34.7332 4.83956 34.5687 4.5953 34.4403 4.32478C34.312 4.05399 34.2227 3.77236 34.1724 3.48047L33.3232 3.34974L33.6691 2.78409L34.1266 2.85453C34.1285 2.73798 34.1387 2.61631 34.158 2.49127L34.1668 2.43351L33.5944 2.34537L33.9328 1.77918L34.3329 1.84079Z" fill="#31446C"/>
<path d="M49.5711 25.484C49.7177 25.484 49.8365 25.3652 49.8365 25.2186C49.8365 25.072 49.7177 24.9531 49.5711 24.9531C49.4245 24.9531 49.3057 25.072 49.3057 25.2186C49.3057 25.3652 49.4245 25.484 49.5711 25.484Z" fill="white"/>
<path d="M48.5096 25.484C48.6562 25.484 48.775 25.3652 48.775 25.2186C48.775 25.072 48.6562 24.9531 48.5096 24.9531C48.363 24.9531 48.2441 25.072 48.2441 25.2186C48.2441 25.3652 48.363 25.484 48.5096 25.484Z" fill="white"/>
<path d="M47.4979 25.484C47.6445 25.484 47.7633 25.3652 47.7633 25.2186C47.7633 25.072 47.6445 24.9531 47.4979 24.9531C47.3513 24.9531 47.2324 25.072 47.2324 25.2186C47.2324 25.3652 47.3513 25.484 47.4979 25.484Z" fill="white"/>
<path d="M1.18197 19.0557C0.530216 19.0557 0 18.5255 0 17.8739C0 17.2224 0.530216 16.6924 1.18197 16.6924C1.83351 16.6924 2.36352 17.2224 2.36352 17.8739C2.36352 18.5255 1.83351 19.0557 1.18197 19.0557ZM1.18197 17.1283C0.770633 17.1283 0.435922 17.4627 0.435922 17.8739C0.435922 18.2852 0.770633 18.6198 1.18197 18.6198C1.5931 18.6198 1.92759 18.2852 1.92759 17.8739C1.92759 17.4627 1.5931 17.1283 1.18197 17.1283Z" fill="white"/>
<path d="M16.0015 43.4286L4.45426 45.0042C4.24499 45.0327 4.05221 44.8862 4.02366 44.6769L2.9518 36.8212C2.92324 36.612 3.06974 36.4192 3.27901 36.3906L14.8263 34.8151C15.0355 34.7865 15.2283 34.933 15.2569 35.1423L16.3287 42.998C16.3573 43.2073 16.2108 43.4001 16.0015 43.4286Z" fill="#6A6AB0"/>
<path d="M9.33275 41.3929C9.16136 41.5294 8.90646 41.4292 8.87393 41.2125L8.69642 40.0302L8.51892 38.8478C8.48639 38.6311 8.70062 38.4605 8.90454 38.5407L10.0172 38.9781L11.1299 39.4155C11.3339 39.4957 11.3745 39.7666 11.2031 39.9031L10.2679 40.648L9.33275 41.3929Z" fill="white"/>
<path d="M5.69536 38.5538L4.46484 38.7217L4.55642 39.3929L5.78693 39.225L5.69536 38.5538Z" fill="white"/>
<path d="M5.50102 37.1319L4.27051 37.2998L4.36209 37.971L5.5926 37.8031L5.50102 37.1319Z" fill="white"/>
<path d="M5.88871 39.9757L4.6582 40.1436L4.74978 40.8147L5.98029 40.6468L5.88871 39.9757Z" fill="white"/>
<path d="M6.08305 41.3966L4.85254 41.5645L4.94412 42.2356L6.17463 42.0677L6.08305 41.3966Z" fill="white"/>
<path d="M6.27641 42.8184L5.0459 42.9863L5.13748 43.6575L6.36799 43.4896L6.27641 42.8184Z" fill="white"/>
<path d="M14.3086 37.378L13.0781 37.5459L13.1697 38.2171L14.4002 38.0492L14.3086 37.378Z" fill="white"/>
<path d="M14.1143 35.9571L12.8838 36.125L12.9754 36.7962L14.2059 36.6283L14.1143 35.9571Z" fill="white"/>
<path d="M14.502 38.7999L13.2715 38.9678L13.3631 39.639L14.5936 39.4711L14.502 38.7999Z" fill="white"/>
<path d="M14.6963 40.2218L13.4658 40.3896L13.5574 41.0608L14.7879 40.8929L14.6963 40.2218Z" fill="white"/>
<path d="M14.8907 41.6436L13.6602 41.8115L13.7517 42.4827L14.9822 42.3148L14.8907 41.6436Z" fill="white"/>
<g filter="url(#filter0_b)">
<path d="M39.0223 27.8111C37.6818 29.0523 36.8502 30.1322 36.8502 31.994H29.4029C29.4029 30.1322 28.5837 29.0585 27.2494 27.8359C21.5647 22.6104 25.0587 13.1214 32.7045 12.7552C40.8593 12.3829 44.918 22.387 39.0223 27.8111Z" fill="url(#paint0_linear)" fill-opacity="0.4"/>
</g>
<g filter="url(#filter1_b)">
<path d="M36.9991 30.7529C36.8962 31.1585 36.8461 31.5757 36.8501 31.9941H29.4029C29.4076 31.5757 29.3576 31.1584 29.2539 30.7529H36.9991Z" fill="#6A6AB0"/>
</g>
<path d="M29.4033 31.9932H36.8506V36.3374C36.8506 36.8312 36.6544 37.3047 36.3053 37.6539C35.9561 38.0031 35.4825 38.1992 34.9888 38.1992H31.2651C30.7714 38.1992 30.2978 38.0031 29.9486 37.6539C29.5995 37.3047 29.4033 36.8312 29.4033 36.3374V31.9932Z" fill="url(#paint1_linear)"/>
<path d="M36.7958 34.4261C36.2124 34.4261 38.912 34.5813 29.4478 33.9048C29.3663 33.8991 29.2867 33.8774 29.2136 33.841C29.1405 33.8045 29.0753 33.754 29.0217 33.6923C28.9135 33.5678 28.8591 33.4054 28.8707 33.2408C28.8822 33.0762 28.9586 32.9229 29.0832 32.8147C29.2077 32.7064 29.3701 32.6521 29.5347 32.6636L36.8516 33.1849C36.9331 33.1886 37.0131 33.2083 37.087 33.2429C37.1609 33.2774 37.2273 33.3262 37.2823 33.3865C37.3373 33.4467 37.38 33.5171 37.4078 33.5938C37.4356 33.6705 37.448 33.752 37.4443 33.8335C37.4406 33.915 37.421 33.9949 37.3864 34.0688C37.3518 34.1427 37.303 34.2091 37.2428 34.2641C37.1826 34.3192 37.1121 34.3618 37.0354 34.3896C36.9587 34.4174 36.8773 34.4298 36.7958 34.4261Z" fill="#42455E"/>
<path d="M36.7636 36.9086C36.1864 36.9086 38.886 37.0637 29.4156 36.3873C29.3341 36.3816 29.2545 36.3599 29.1814 36.3234C29.1083 36.2869 29.0431 36.2364 28.9895 36.1748C28.8812 36.0502 28.8269 35.8878 28.8384 35.7232C28.85 35.5586 28.9264 35.4053 29.0509 35.2971C29.1755 35.1889 29.3379 35.1345 29.5025 35.1461L36.807 35.6674C36.9716 35.6731 37.1272 35.744 37.2395 35.8645C37.3518 35.9849 37.4116 36.1451 37.4059 36.3097C37.4001 36.4743 37.3292 36.6298 37.2088 36.7422C37.0883 36.8545 36.9282 36.9143 36.7636 36.9086Z" fill="#42455E"/>
<path d="M33.1274 40.061C31.8118 40.061 31.5201 38.9564 31.2656 38.1992H34.9893L34.7596 38.8819C34.6461 39.2251 34.4273 39.5237 34.1342 39.7354C33.8412 39.9471 33.4889 40.0611 33.1274 40.061Z" fill="#42455E"/>
<g filter="url(#filter2_b)">
<g filter="url(#filter3_di)">
<path d="M46.1592 22.0645H44.2974C44.1328 22.0645 43.9749 21.9991 43.8585 21.8827C43.7421 21.7663 43.6768 21.6084 43.6768 21.4438C43.6768 21.2793 43.7421 21.1214 43.8585 21.005C43.9749 20.8886 44.1328 20.8232 44.2974 20.8232H46.1592C46.3238 20.8232 46.4816 20.8886 46.598 21.005C46.7144 21.1214 46.7798 21.2793 46.7798 21.4438C46.7798 21.6084 46.7144 21.7663 46.598 21.8827C46.4816 21.9991 46.3238 22.0645 46.1592 22.0645Z" fill="#C1D9FE" fill-opacity="0.6" shape-rendering="crispEdges"/>
</g>
<g filter="url(#filter4_di)">
<path d="M21.9561 22.0645H20.0942C19.9296 22.0645 19.7718 21.9991 19.6554 21.8827C19.539 21.7663 19.4736 21.6084 19.4736 21.4438C19.4736 21.2793 19.539 21.1214 19.6554 21.005C19.7718 20.8886 19.9296 20.8232 20.0942 20.8232H21.9561C22.1206 20.8232 22.2785 20.8886 22.3949 21.005C22.5113 21.1214 22.5767 21.2793 22.5767 21.4438C22.5767 21.6084 22.5113 21.7663 22.3949 21.8827C22.2785 21.9991 22.1206 22.0645 21.9561 22.0645Z" fill="#C1D9FE" fill-opacity="0.6" shape-rendering="crispEdges"/>
</g>
<g filter="url(#filter5_di)">
<path d="M32.5059 10.2725V8.41064C32.5059 8.24605 32.5712 8.0882 32.6876 7.97181C32.804 7.85542 32.9619 7.79004 33.1265 7.79004C33.2911 7.79004 33.4489 7.85542 33.5653 7.97181C33.6817 8.0882 33.7471 8.24605 33.7471 8.41064V10.2725C33.7471 10.4371 33.6817 10.5949 33.5653 10.7113C33.4489 10.8277 33.2911 10.8931 33.1265 10.8931C32.9619 10.8931 32.804 10.8277 32.6876 10.7113C32.5712 10.5949 32.5059 10.4371 32.5059 10.2725Z" fill="#C1D9FE" fill-opacity="0.6" shape-rendering="crispEdges"/>
</g>
<g filter="url(#filter6_di)">
<path d="M42.3426 31.2798C42.0013 31.2798 41.9889 31.1805 40.5863 29.7841C40.4678 29.6681 40.4002 29.5097 40.3985 29.3439C40.3967 29.178 40.4609 29.0183 40.577 28.8998C40.693 28.7813 40.8514 28.7137 41.0172 28.7119C41.1831 28.7102 41.3428 28.7744 41.4613 28.8905L42.7832 30.2061C42.8752 30.2922 42.9388 30.4041 42.9657 30.5272C42.9925 30.6502 42.9813 30.7785 42.9334 30.895C42.8856 31.0115 42.8035 31.1107 42.698 31.1795C42.5924 31.2482 42.4685 31.2832 42.3426 31.2798Z" fill="#C1D9FE" fill-opacity="0.6" shape-rendering="crispEdges"/>
</g>
<g filter="url(#filter7_di)">
<path d="M25.2259 14.1639C24.8846 14.1639 24.8722 14.0708 23.4696 12.6683C23.4118 12.6104 23.3659 12.5417 23.3345 12.4661C23.3032 12.3905 23.2871 12.3095 23.2871 12.2276C23.2871 12.1458 23.3032 12.0648 23.3345 11.9892C23.3659 11.9136 23.4118 11.8449 23.4696 11.787C23.5275 11.7291 23.5962 11.6832 23.6718 11.6519C23.7474 11.6206 23.8284 11.6045 23.9103 11.6045C23.9921 11.6045 24.0731 11.6206 24.1487 11.6519C24.2243 11.6832 24.293 11.7291 24.3509 11.787L25.679 13.1027C25.7673 13.1902 25.8273 13.3023 25.8512 13.4243C25.8751 13.5464 25.8618 13.6728 25.8129 13.7872C25.7641 13.9016 25.682 13.9986 25.5774 14.0658C25.4727 14.133 25.3503 14.1672 25.2259 14.1639Z" fill="#C1D9FE" fill-opacity="0.6" shape-rendering="crispEdges"/>
</g>
<g filter="url(#filter8_di)">
<path d="M23.9113 31.2802C23.7881 31.2809 23.6674 31.2449 23.5646 31.1768C23.4619 31.1087 23.3818 31.0115 23.3346 30.8976C23.2873 30.7838 23.275 30.6584 23.2992 30.5376C23.3235 30.4167 23.3832 30.3058 23.4707 30.219L24.7926 28.8909C24.9111 28.7732 25.0715 28.7074 25.2385 28.708C25.4055 28.7086 25.5655 28.7755 25.6831 28.894C25.8008 29.0125 25.8666 29.1729 25.866 29.3399C25.8655 29.5069 25.7986 29.6669 25.68 29.7846C24.234 31.212 24.2464 31.2802 23.9113 31.2802Z" fill="#C1D9FE" fill-opacity="0.6" shape-rendering="crispEdges"/>
</g>
<g filter="url(#filter9_di)">
<path d="M41.0275 14.1639C40.9031 14.1672 40.7807 14.133 40.676 14.0658C40.5714 13.9986 40.4893 13.9016 40.4405 13.7872C40.3916 13.6728 40.3783 13.5464 40.4022 13.4243C40.4261 13.3023 40.4861 13.1902 40.5744 13.1027L41.8901 11.787C42.007 11.6701 42.1655 11.6045 42.3307 11.6045C42.496 11.6045 42.6545 11.6701 42.7714 11.787C42.8882 11.9039 42.9539 12.0624 42.9539 12.2276C42.9539 12.3929 42.8882 12.5514 42.7714 12.6683C41.3502 14.0957 41.3626 14.1639 41.0275 14.1639Z" fill="#C1D9FE" fill-opacity="0.6" shape-rendering="crispEdges"/>
</g>
</g>
<defs>
<filter id="filter0_b" x="20.4365" y="8.74512" width="25.3811" height="27.2489" filterUnits="userSpaceOnUse" color-interpolation-filters="sRGB">
<feFlood flood-opacity="0" result="BackgroundImageFix"/>
<feGaussianBlur in="BackgroundImage" stdDeviation="2"/>
<feComposite in2="SourceAlpha" operator="in" result="effect1_backgroundBlur"/>
<feBlend mode="normal" in="SourceGraphic" in2="effect1_backgroundBlur" result="shape"/>
</filter>
<filter id="filter1_b" x="25.2539" y="26.7529" width="15.7451" height="9.24121" filterUnits="userSpaceOnUse" color-interpolation-filters="sRGB">
<feFlood flood-opacity="0" result="BackgroundImageFix"/>
<feGaussianBlur in="BackgroundImage" stdDeviation="2"/>
<feComposite in2="SourceAlpha" operator="in" result="effect1_backgroundBlur"/>
<feBlend mode="normal" in="SourceGraphic" in2="effect1_backgroundBlur" result="shape"/>
</filter>
<filter id="filter2_b" x="17.4736" y="5.79004" width="31.3061" height="27.4902" filterUnits="userSpaceOnUse" color-interpolation-filters="sRGB">
<feFlood flood-opacity="0" result="BackgroundImageFix"/>
<feGaussianBlur in="BackgroundImage" stdDeviation="1"/>
<feComposite in2="SourceAlpha" operator="in" result="effect1_backgroundBlur"/>
<feBlend mode="normal" in="SourceGraphic" in2="effect1_backgroundBlur" result="shape"/>
</filter>
<filter id="filter3_di" x="39.6768" y="16.8232" width="11.103" height="9.24121" filterUnits="userSpaceOnUse" color-interpolation-filters="sRGB">
<feFlood flood-opacity="0" result="BackgroundImageFix"/>
<feColorMatrix in="SourceAlpha" type="matrix" values="0 0 0 0 0 0 0 0 0 0 0 0 0 0 0 0 0 0 127 0" result="hardAlpha"/>
<feOffset/>
<feGaussianBlur stdDeviation="2"/>
<feComposite in2="hardAlpha" operator="out"/>
<feColorMatrix type="matrix" values="0 0 0 0 1 0 0 0 0 1 0 0 0 0 1 0 0 0 0.75 0"/>
<feBlend mode="normal" in2="BackgroundImageFix" result="effect1_dropShadow"/>
<feBlend mode="normal" in="SourceGraphic" in2="effect1_dropShadow" result="shape"/>
<feColorMatrix in="SourceAlpha" type="matrix" values="0 0 0 0 0 0 0 0 0 0 0 0 0 0 0 0 0 0 127 0" result="hardAlpha"/>
<feOffset/>
<feGaussianBlur stdDeviation="5"/>
<feComposite in2="hardAlpha" operator="arithmetic" k2="-1" k3="1"/>
<feColorMatrix type="matrix" values="0 0 0 0 1 0 0 0 0 1 0 0 0 0 1 0 0 0 0.25 0"/>
<feBlend mode="normal" in2="shape" result="effect2_innerShadow"/>
</filter>
<filter id="filter4_di" x="15.4736" y="16.8232" width="11.103" height="9.24121" filterUnits="userSpaceOnUse" color-interpolation-filters="sRGB">
<feFlood flood-opacity="0" result="BackgroundImageFix"/>
<feColorMatrix in="SourceAlpha" type="matrix" values="0 0 0 0 0 0 0 0 0 0 0 0 0 0 0 0 0 0 127 0" result="hardAlpha"/>
<feOffset/>
<feGaussianBlur stdDeviation="2"/>
<feComposite in2="hardAlpha" operator="out"/>
<feColorMatrix type="matrix" values="0 0 0 0 1 0 0 0 0 1 0 0 0 0 1 0 0 0 0.75 0"/>
<feBlend mode="normal" in2="BackgroundImageFix" result="effect1_dropShadow"/>
<feBlend mode="normal" in="SourceGraphic" in2="effect1_dropShadow" result="shape"/>
<feColorMatrix in="SourceAlpha" type="matrix" values="0 0 0 0 0 0 0 0 0 0 0 0 0 0 0 0 0 0 127 0" result="hardAlpha"/>
<feOffset/>
<feGaussianBlur stdDeviation="5"/>
<feComposite in2="hardAlpha" operator="arithmetic" k2="-1" k3="1"/>
<feColorMatrix type="matrix" values="0 0 0 0 1 0 0 0 0 1 0 0 0 0 1 0 0 0 0.25 0"/>
<feBlend mode="normal" in2="shape" result="effect2_innerShadow"/>
</filter>
<filter id="filter5_di" x="28.5059" y="3.79004" width="9.24121" height="11.103" filterUnits="userSpaceOnUse" color-interpolation-filters="sRGB">
<feFlood flood-opacity="0" result="BackgroundImageFix"/>
<feColorMatrix in="SourceAlpha" type="matrix" values="0 0 0 0 0 0 0 0 0 0 0 0 0 0 0 0 0 0 127 0" result="hardAlpha"/>
<feOffset/>
<feGaussianBlur stdDeviation="2"/>
<feComposite in2="hardAlpha" operator="out"/>
<feColorMatrix type="matrix" values="0 0 0 0 1 0 0 0 0 1 0 0 0 0 1 0 0 0 0.75 0"/>
<feBlend mode="normal" in2="BackgroundImageFix" result="effect1_dropShadow"/>
<feBlend mode="normal" in="SourceGraphic" in2="effect1_dropShadow" result="shape"/>
<feColorMatrix in="SourceAlpha" type="matrix" values="0 0 0 0 0 0 0 0 0 0 0 0 0 0 0 0 0 0 127 0" result="hardAlpha"/>
<feOffset/>
<feGaussianBlur stdDeviation="5"/>
<feComposite in2="hardAlpha" operator="arithmetic" k2="-1" k3="1"/>
<feColorMatrix type="matrix" values="0 0 0 0 1 0 0 0 0 1 0 0 0 0 1 0 0 0 0.25 0"/>
<feBlend mode="normal" in2="shape" result="effect2_innerShadow"/>
</filter>
<filter id="filter6_di" x="36.3984" y="24.7119" width="10.5815" height="10.5681" filterUnits="userSpaceOnUse" color-interpolation-filters="sRGB">
<feFlood flood-opacity="0" result="BackgroundImageFix"/>
<feColorMatrix in="SourceAlpha" type="matrix" values="0 0 0 0 0 0 0 0 0 0 0 0 0 0 0 0 0 0 127 0" result="hardAlpha"/>
<feOffset/>
<feGaussianBlur stdDeviation="2"/>
<feComposite in2="hardAlpha" operator="out"/>
<feColorMatrix type="matrix" values="0 0 0 0 1 0 0 0 0 1 0 0 0 0 1 0 0 0 0.75 0"/>
<feBlend mode="normal" in2="BackgroundImageFix" result="effect1_dropShadow"/>
<feBlend mode="normal" in="SourceGraphic" in2="effect1_dropShadow" result="shape"/>
<feColorMatrix in="SourceAlpha" type="matrix" values="0 0 0 0 0 0 0 0 0 0 0 0 0 0 0 0 0 0 127 0" result="hardAlpha"/>
<feOffset/>
<feGaussianBlur stdDeviation="5"/>
<feComposite in2="hardAlpha" operator="arithmetic" k2="-1" k3="1"/>
<feColorMatrix type="matrix" values="0 0 0 0 1 0 0 0 0 1 0 0 0 0 1 0 0 0 0.25 0"/>
<feBlend mode="normal" in2="shape" result="effect2_innerShadow"/>
</filter>
<filter id="filter7_di" x="19.2871" y="7.60449" width="10.5757" height="10.5596" filterUnits="userSpaceOnUse" color-interpolation-filters="sRGB">
<feFlood flood-opacity="0" result="BackgroundImageFix"/>
<feColorMatrix in="SourceAlpha" type="matrix" values="0 0 0 0 0 0 0 0 0 0 0 0 0 0 0 0 0 0 127 0" result="hardAlpha"/>
<feOffset/>
<feGaussianBlur stdDeviation="2"/>
<feComposite in2="hardAlpha" operator="out"/>
<feColorMatrix type="matrix" values="0 0 0 0 1 0 0 0 0 1 0 0 0 0 1 0 0 0 0.75 0"/>
<feBlend mode="normal" in2="BackgroundImageFix" result="effect1_dropShadow"/>
<feBlend mode="normal" in="SourceGraphic" in2="effect1_dropShadow" result="shape"/>
<feColorMatrix in="SourceAlpha" type="matrix" values="0 0 0 0 0 0 0 0 0 0 0 0 0 0 0 0 0 0 127 0" result="hardAlpha"/>
<feOffset/>
<feGaussianBlur stdDeviation="5"/>
<feComposite in2="hardAlpha" operator="arithmetic" k2="-1" k3="1"/>
<feColorMatrix type="matrix" values="0 0 0 0 1 0 0 0 0 1 0 0 0 0 1 0 0 0 0.25 0"/>
<feBlend mode="normal" in2="shape" result="effect2_innerShadow"/>
</filter>
<filter id="filter8_di" x="19.2871" y="24.708" width="10.5789" height="10.5722" filterUnits="userSpaceOnUse" color-interpolation-filters="sRGB">
<feFlood flood-opacity="0" result="BackgroundImageFix"/>
<feColorMatrix in="SourceAlpha" type="matrix" values="0 0 0 0 0 0 0 0 0 0 0 0 0 0 0 0 0 0 127 0" result="hardAlpha"/>
<feOffset/>
<feGaussianBlur stdDeviation="2"/>
<feComposite in2="hardAlpha" operator="out"/>
<feColorMatrix type="matrix" values="0 0 0 0 1 0 0 0 0 1 0 0 0 0 1 0 0 0 0.75 0"/>
<feBlend mode="normal" in2="BackgroundImageFix" result="effect1_dropShadow"/>
<feBlend mode="normal" in="SourceGraphic" in2="effect1_dropShadow" result="shape"/>
<feColorMatrix in="SourceAlpha" type="matrix" values="0 0 0 0 0 0 0 0 0 0 0 0 0 0 0 0 0 0 127 0" result="hardAlpha"/>
<feOffset/>
<feGaussianBlur stdDeviation="5"/>
<feComposite in2="hardAlpha" operator="arithmetic" k2="-1" k3="1"/>
<feColorMatrix type="matrix" values="0 0 0 0 1 0 0 0 0 1 0 0 0 0 1 0 0 0 0.25 0"/>
<feBlend mode="normal" in2="shape" result="effect2_innerShadow"/>
</filter>
<filter id="filter9_di" x="36.3906" y="7.60449" width="10.5632" height="10.5596" filterUnits="userSpaceOnUse" color-interpolation-filters="sRGB">
<feFlood flood-opacity="0" result="BackgroundImageFix"/>
<feColorMatrix in="SourceAlpha" type="matrix" values="0 0 0 0 0 0 0 0 0 0 0 0 0 0 0 0 0 0 127 0" result="hardAlpha"/>
<feOffset/>
<feGaussianBlur stdDeviation="2"/>
<feComposite in2="hardAlpha" operator="out"/>
<feColorMatrix type="matrix" values="0 0 0 0 1 0 0 0 0 1 0 0 0 0 1 0 0 0 0.75 0"/>
<feBlend mode="normal" in2="BackgroundImageFix" result="effect1_dropShadow"/>
<feBlend mode="normal" in="SourceGraphic" in2="effect1_dropShadow" result="shape"/>
<feColorMatrix in="SourceAlpha" type="matrix" values="0 0 0 0 0 0 0 0 0 0 0 0 0 0 0 0 0 0 127 0" result="hardAlpha"/>
<feOffset/>
<feGaussianBlur stdDeviation="5"/>
<feComposite in2="hardAlpha" operator="arithmetic" k2="-1" k3="1"/>
<feColorMatrix type="matrix" values="0 0 0 0 1 0 0 0 0 1 0 0 0 0 1 0 0 0 0.25 0"/>
<feBlend mode="normal" in2="shape" result="effect2_innerShadow"/>
</filter>
<linearGradient id="paint0_linear" x1="33.1265" y1="31.994" x2="33.1265" y2="12.7552" gradientUnits="userSpaceOnUse">
<stop stop-color="#8AAAE5"/>
<stop offset="0.604167" stop-color="#FFFEFC"/>
<stop offset="1" stop-color="white"/>
</linearGradient>
<linearGradient id="paint1_linear" x1="33.1269" y1="38.1992" x2="33.1269" y2="31.9932" gradientUnits="userSpaceOnUse">
<stop offset="1" stop-color="#878C9F"/>
</linearGradient>
</defs>
</svg>
