<svg xmlns="http://www.w3.org/2000/svg" version="1.1" xmlns:xlink="http://www.w3.org/1999/xlink" xmlns:svgjs="http://svgjs.com/svgjs" width="1440" height="560" preserveAspectRatio="none" viewBox="0 0 1440 560">
    <g mask="url(&quot;#SvgjsMask1094&quot;)" fill="none">
        <path d="M985.17,525.803C1034.442,527.689,1081.217,503.622,1107.5,461.903C1135.671,417.187,1145.398,359.788,1118.37,314.372C1091.824,269.767,1037.058,254.997,985.17,256.352C935.958,257.637,887.035,277.79,863.497,321.027C840.796,362.726,853.8,412.303,878.052,453.12C901.676,492.879,938.956,524.034,985.17,525.803" fill="rgba(95, 142, 243, 0.82)" class="triangle-float1"></path>
        <path d="M252.94 301.33 a111.43 111.43 0 1 0 222.86 0 a111.43 111.43 0 1 0 -222.86 0z" fill="rgba(95, 142, 243, 0.82)" class="triangle-float1"></path>
        <path d="M1342.413,423.078C1374.373,421.06,1399.817,399.786,1416.303,372.332C1433.408,343.847,1443.388,309.689,1428.268,280.103C1411.919,248.111,1378.337,228.221,1342.413,227.744C1305.661,227.256,1271.276,246.162,1252.516,277.769C1233.358,310.047,1230.627,350.89,1250.375,382.81C1269.258,413.333,1306.592,425.34,1342.413,423.078" fill="rgba(95, 142, 243, 0.82)" class="triangle-float2"></path>
        <path d="M931.466,142.505C965.577,140.632,986.667,108.719,1002.426,78.409C1016.653,51.045,1024.645,19.253,1009.519,-7.624C994.147,-34.938,962.791,-48.74,931.466,-47.679C901.922,-46.678,877.954,-27.556,862.062,-2.63C844.555,24.83,831.537,57.643,845.586,87.023C861.345,119.977,894.993,144.508,931.466,142.505" fill="rgba(95, 142, 243, 0.82)" class="triangle-float2"></path>
    </g>
    <defs>
        <mask id="SvgjsMask1094">
            <rect width="1440" height="560" fill="#ffffff"></rect>
        </mask>
        <style>
            @keyframes float1 {
                0%{transform: translate(0, 0)}
                50%{transform: translate(-100px, 0)}
                100%{transform: translate(0, 0)}
            }

            .triangle-float1 {
                animation: float1 8s infinite;
            }

            @keyframes float2 {
                0%{transform: translate(0, 0)}
                50%{transform: translate(-6px, -6px)}
                100%{transform: translate(0, 0)}
            }

            .triangle-float2 {
                animation: float2 3s infinite;
            }

            @keyframes float3 {
                0%{transform: translate(0, 0)}
                50%{transform: translate(-20px, -10px)}
                100%{transform: translate(0, 0)}
            }

            .triangle-float3 {
                animation: float3 6s infinite;
            }
        </style>
    </defs>
</svg>