<svg width="1105" height="178" fill="none" xmlns="http://www.w3.org/2000/svg">
  <g opacity=".5" clip-path="url(#clip0)">
    <circle cx="256" cy="57.002" transform="rotate(-180 256 57.002)" fill="#DBF0FF" r="16"/>
    <circle cx="296" cy="137" transform="rotate(-180 296 137)" fill="#DBF0FF" r="16"/>
    <circle cx="176" cy="137.004" r="16" fill="#DBF0FF"/>
    <circle cx="296" cy="17.002" transform="rotate(-180 296 17.002)" fill="#DBF0FF" r="16"/>
    <circle cx="336" cy="137" transform="rotate(-180 336 137)" fill="#DBF0FF" r="16"/>
    <circle cx="136" cy="97.002" fill="#90CDF9" r="16"/>
    <circle cx="16" cy="97" transform="rotate(-180 16 97)" fill="#DBF0FF" r="16"/>
    <circle cx="96" cy="137" transform="rotate(-180 96 137)" fill="#fff" r="16"/>
    <circle cx="56" cy="137" transform="rotate(-180 56 137)" fill="#DBF0FF" r="16"/>
    <circle cx="56" cy="97" transform="rotate(-180 56 97)" fill="#DBF0FF" r="16"/>
    <circle cx="336" cy="17.002" transform="rotate(-180 336 17.002)" fill="#90CDF9" r="16"/>
    <circle cx="376" cy="51" transform="rotate(-180 376 51)" fill="#DBF0FF" r="16"/>
    <circle cx="416" cy="51" transform="rotate(-180 416 51)" fill="#DBF0FF" r="16"/>
  </g>
  <g opacity=".5">
    <circle cx="844" cy="136" transform="rotate(-180 844 136)" fill="#fff" r="16"/>
    <circle cx="884" cy="137" transform="rotate(-180 884 137)" fill="#DBF0FF" r="16"/>
    <circle cx="764" cy="176.004" r="16" fill="#DBF0FF"/>
    <circle cx="844" cy="97" transform="rotate(-180 844 97)" fill="#DBF0FF" r="16"/>
    <circle cx="884" cy="176" transform="rotate(-180 884 176)" fill="#fff" r="16"/>
    <circle cx="724" cy="176" fill="#90CDF9" r="16"/>
    <circle cx="644" cy="176" transform="rotate(-180 644 176)" fill="#DBF0FF" r="16"/>
    <circle cx="684" cy="137" transform="rotate(-180 684 137)" fill="#fff" r="16"/>
    <circle cx="924" cy="176" fill="#DBF0FF" r="16"/>
    <circle cx="804" cy="97" transform="rotate(-180 804 97)" fill="#DBF0FF" r="16"/>
    <circle cx="964" cy="136" fill="#90CDF9" r="16"/>
    <circle cx="644" cy="97" transform="rotate(-180 644 97)" fill="#DBF0FF" r="16"/>
    <circle cx="964" cy="51" transform="rotate(-180 964 51)" fill="#fff" r="16"/>
    <circle cx="684" cy="56" fill="#DBF0FF" r="16"/>
    <circle cx="1004" cy="51" transform="rotate(-180 1004 51)" fill="#DBF0FF" r="16"/>
  </g>
  <defs>
    <clipPath id="clip0">
      <path fill="#fff" d="M0 0h517v358H0z"/>
    </clipPath>
  </defs>
</svg>
