<svg xmlns="http://www.w3.org/2000/svg" version="1.1" xmlns:xlink="http://www.w3.org/1999/xlink" xmlns:svgjs="http://svgjs.com/svgjs" width="1105" height="178" preserveAspectRatio="none" viewBox="0 0 1105 178"><g mask="url(&quot;#SvgjsMask1512&quot;)" fill="none"><g mask="url(&quot;#SvgjsMask1513&quot;)"><path d="M1111.5 84.5L1098.5 84.5L1085.5 84.5M916.5 58.5L903.5 58.5L890.5 45.5L877.5 45.5L864.5 45.5M981.5 58.5L968.5 71.5L955.5 84.5M1033.5 58.5L1020.5 71.5L1007.5 71.5L994.5 71.5M1124.5 84.5L1111.5 84.5L1098.5 97.5L1085.5 97.5L1072.5 84.5L1059.5 84.5L1046.5 71.5L1033.5 58.5L1020.5 58.5L1007.5 58.5L994.5 58.5L981.5 58.5L968.5 58.5L955.5 71.5L942.5 71.5L929.5 58.5L916.5 58.5L903.5 71.5" stroke="rgba(73, 136, 253, 1)" stroke-width="2.17"></path><path d="M900.25 71.5 a3.25 3.25 0 1 0 6.5 0 a3.25 3.25 0 1 0 -6.5 0zM1082.25 84.5 a3.25 3.25 0 1 0 6.5 0 a3.25 3.25 0 1 0 -6.5 0zM861.25 45.5 a3.25 3.25 0 1 0 6.5 0 a3.25 3.25 0 1 0 -6.5 0zM952.25 84.5 a3.25 3.25 0 1 0 6.5 0 a3.25 3.25 0 1 0 -6.5 0zM991.25 71.5 a3.25 3.25 0 1 0 6.5 0 a3.25 3.25 0 1 0 -6.5 0z" fill="rgba(73, 136, 253, 1)"></path><path d="M1046.5 97.5L1033.5 110.5L1020.5 110.5M1072.5 110.5L1059.5 97.5M1020.5 97.5L1007.5 97.5L994.5 97.5L981.5 97.5M1124.5 97.5L1111.5 97.5L1098.5 110.5L1085.5 110.5L1072.5 110.5L1059.5 110.5L1046.5 97.5L1033.5 97.5L1020.5 97.5L1007.5 84.5L994.5 84.5L981.5 84.5" stroke="rgba(138, 170, 229, 1)" stroke-width="2.17"></path><path d="M978.25 84.5 a3.25 3.25 0 1 0 6.5 0 a3.25 3.25 0 1 0 -6.5 0zM1017.25 110.5 a3.25 3.25 0 1 0 6.5 0 a3.25 3.25 0 1 0 -6.5 0zM1056.25 97.5 a3.25 3.25 0 1 0 6.5 0 a3.25 3.25 0 1 0 -6.5 0zM978.25 97.5 a3.25 3.25 0 1 0 6.5 0 a3.25 3.25 0 1 0 -6.5 0z" fill="rgba(138, 170, 229, 1)"></path><path d="M1124.5 71.5L1111.5 71.5L1098.5 71.5L1085.5 71.5L1072.5 71.5" stroke="rgba(73, 136, 253, 1)" stroke-width="2.17"></path><path d="M1069.25 71.5 a3.25 3.25 0 1 0 6.5 0 a3.25 3.25 0 1 0 -6.5 0z" fill="rgba(73, 136, 253, 1)"></path><path d="M1124.5 110.5L1111.5 110.5L1098.5 123.5L1085.5 123.5L1072.5 123.5L1059.5 123.5L1046.5 123.5" stroke="rgba(73, 136, 253, 1)" stroke-width="2.17"></path><path d="M1043.25 123.5 a3.25 3.25 0 1 0 6.5 0 a3.25 3.25 0 1 0 -6.5 0z" fill="rgba(73, 136, 253, 1)"></path><path d="M1007.5 45.5L994.5 32.5L981.5 32.5L968.5 32.5L955.5 32.5M1124.5 58.5L1111.5 58.5L1098.5 58.5L1085.5 58.5L1072.5 58.5L1059.5 58.5L1046.5 58.5L1033.5 45.5L1020.5 45.5L1007.5 45.5L994.5 45.5L981.5 45.5" stroke="rgba(73, 136, 253, 1)" stroke-width="2.17"></path><path d="M978.25 45.5 a3.25 3.25 0 1 0 6.5 0 a3.25 3.25 0 1 0 -6.5 0zM952.25 32.5 a3.25 3.25 0 1 0 6.5 0 a3.25 3.25 0 1 0 -6.5 0z" fill="rgba(73, 136, 253, 1)"></path><path d="M1059.5 136.5L1046.5 149.5M1033.5 136.5L1020.5 149.5M1007.5 149.5L994.5 136.5L981.5 136.5L968.5 136.5M1124.5 123.5L1111.5 123.5L1098.5 136.5L1085.5 136.5L1072.5 136.5L1059.5 136.5L1046.5 136.5L1033.5 136.5L1020.5 136.5L1007.5 149.5L994.5 149.5L981.5 149.5L968.5 149.5L955.5 149.5" stroke="rgba(73, 136, 253, 1)" stroke-width="2.17"></path><path d="M952.25 149.5 a3.25 3.25 0 1 0 6.5 0 a3.25 3.25 0 1 0 -6.5 0zM1043.25 149.5 a3.25 3.25 0 1 0 6.5 0 a3.25 3.25 0 1 0 -6.5 0zM1017.25 149.5 a3.25 3.25 0 1 0 6.5 0 a3.25 3.25 0 1 0 -6.5 0zM965.25 136.5 a3.25 3.25 0 1 0 6.5 0 a3.25 3.25 0 1 0 -6.5 0z" fill="rgba(73, 136, 253, 1)"></path><path d="M1111.5 45.5L1098.5 32.5M1059.5 45.5L1046.5 32.5M1124.5 45.5L1111.5 45.5L1098.5 45.5L1085.5 45.5L1072.5 45.5L1059.5 45.5L1046.5 45.5L1033.5 32.5L1020.5 32.5" stroke="rgba(73, 136, 253, 1)" stroke-width="2.17"></path><path d="M1017.25 32.5 a3.25 3.25 0 1 0 6.5 0 a3.25 3.25 0 1 0 -6.5 0zM1095.25 32.5 a3.25 3.25 0 1 0 6.5 0 a3.25 3.25 0 1 0 -6.5 0zM1043.25 32.5 a3.25 3.25 0 1 0 6.5 0 a3.25 3.25 0 1 0 -6.5 0z" fill="rgba(73, 136, 253, 1)"></path></g></g><defs><mask id="SvgjsMask1512"><rect width="1105" height="178" fill="#ffffff"></rect></mask><mask id="SvgjsMask1513"><rect width="1105" height="178" fill="white"></rect><path d="M901.87 71.5 a1.63 1.63 0 1 0 3.26 0 a1.63 1.63 0 1 0 -3.26 0zM1083.87 84.5 a1.63 1.63 0 1 0 3.26 0 a1.63 1.63 0 1 0 -3.26 0zM862.87 45.5 a1.63 1.63 0 1 0 3.26 0 a1.63 1.63 0 1 0 -3.26 0zM953.87 84.5 a1.63 1.63 0 1 0 3.26 0 a1.63 1.63 0 1 0 -3.26 0zM992.87 71.5 a1.63 1.63 0 1 0 3.26 0 a1.63 1.63 0 1 0 -3.26 0z" fill="black"></path><path d="M979.87 84.5 a1.63 1.63 0 1 0 3.26 0 a1.63 1.63 0 1 0 -3.26 0zM1018.87 110.5 a1.63 1.63 0 1 0 3.26 0 a1.63 1.63 0 1 0 -3.26 0zM1057.87 97.5 a1.63 1.63 0 1 0 3.26 0 a1.63 1.63 0 1 0 -3.26 0zM979.87 97.5 a1.63 1.63 0 1 0 3.26 0 a1.63 1.63 0 1 0 -3.26 0z" fill="black"></path><path d="M1070.87 71.5 a1.63 1.63 0 1 0 3.26 0 a1.63 1.63 0 1 0 -3.26 0z" fill="black"></path><path d="M1044.87 123.5 a1.63 1.63 0 1 0 3.26 0 a1.63 1.63 0 1 0 -3.26 0z" fill="black"></path><path d="M979.87 45.5 a1.63 1.63 0 1 0 3.26 0 a1.63 1.63 0 1 0 -3.26 0zM953.87 32.5 a1.63 1.63 0 1 0 3.26 0 a1.63 1.63 0 1 0 -3.26 0z" fill="black"></path><path d="M953.87 149.5 a1.63 1.63 0 1 0 3.26 0 a1.63 1.63 0 1 0 -3.26 0zM1044.87 149.5 a1.63 1.63 0 1 0 3.26 0 a1.63 1.63 0 1 0 -3.26 0zM1018.87 149.5 a1.63 1.63 0 1 0 3.26 0 a1.63 1.63 0 1 0 -3.26 0zM966.87 136.5 a1.63 1.63 0 1 0 3.26 0 a1.63 1.63 0 1 0 -3.26 0z" fill="black"></path><path d="M1018.87 32.5 a1.63 1.63 0 1 0 3.26 0 a1.63 1.63 0 1 0 -3.26 0zM1096.87 32.5 a1.63 1.63 0 1 0 3.26 0 a1.63 1.63 0 1 0 -3.26 0zM1044.87 32.5 a1.63 1.63 0 1 0 3.26 0 a1.63 1.63 0 1 0 -3.26 0z" fill="black"></path></mask></defs></svg>