<svg xmlns="http://www.w3.org/2000/svg" version="1.1" xmlns:xlink="http://www.w3.org/1999/xlink" xmlns:svgjs="http://svgjs.com/svgjs" width="1105" height="178" preserveAspectRatio="none" viewBox="0 0 1105 178"><g mask="url(&quot;#SvgjsMask1334&quot;)" fill="none"><g mask="url(&quot;#SvgjsMask1335&quot;)"><path d="M563.5 149.5L540.5 126.5L540.5 103.5L540.5 80.5M563.5 195.5L563.5 172.5L563.5 149.5L563.5 126.5L563.5 103.5" stroke="rgba(138, 170, 229, 1)" stroke-width="3.83"></path><path d="M557.75 103.5 a5.75 5.75 0 1 0 11.5 0 a5.75 5.75 0 1 0 -11.5 0zM534.75 80.5 a5.75 5.75 0 1 0 11.5 0 a5.75 5.75 0 1 0 -11.5 0z" fill="rgba(138, 170, 229, 1)"></path><path d="M540.5 195.5L540.5 172.5" stroke="rgba(73, 136, 253, 1)" stroke-width="3.83"></path><path d="M534.75 172.5 a5.75 5.75 0 1 0 11.5 0 a5.75 5.75 0 1 0 -11.5 0z" fill="rgba(73, 136, 253, 1)"></path><path d="M563.5 80.5L586.5 57.5M586.5 195.5L586.5 172.5L586.5 149.5L586.5 126.5L586.5 103.5L563.5 80.5L563.5 57.5" stroke="rgba(73, 136, 253, 1)" stroke-width="3.83"></path><path d="M557.75 57.5 a5.75 5.75 0 1 0 11.5 0 a5.75 5.75 0 1 0 -11.5 0zM580.75 57.5 a5.75 5.75 0 1 0 11.5 0 a5.75 5.75 0 1 0 -11.5 0z" fill="rgba(73, 136, 253, 1)"></path><path d="M517.5 149.5L494.5 126.5L494.5 103.5L494.5 80.5M517.5 195.5L517.5 172.5L517.5 149.5L517.5 126.5L517.5 103.5" stroke="rgba(73, 136, 253, 1)" stroke-width="3.83"></path><path d="M511.75 103.5 a5.75 5.75 0 1 0 11.5 0 a5.75 5.75 0 1 0 -11.5 0zM488.75 80.5 a5.75 5.75 0 1 0 11.5 0 a5.75 5.75 0 1 0 -11.5 0z" fill="rgba(73, 136, 253, 1)"></path><path d="M609.5 195.5L609.5 172.5L609.5 149.5L609.5 126.5" stroke="rgba(138, 170, 229, 1)" stroke-width="3.83"></path><path d="M603.75 126.5 a5.75 5.75 0 1 0 11.5 0 a5.75 5.75 0 1 0 -11.5 0z" fill="rgba(138, 170, 229, 1)"></path><path d="M494.5 172.5L494.5 149.5M494.5 195.5L494.5 172.5L471.5 149.5L471.5 126.5L471.5 103.5L471.5 80.5" stroke="rgba(73, 136, 253, 1)" stroke-width="3.83"></path><path d="M465.75 80.5 a5.75 5.75 0 1 0 11.5 0 a5.75 5.75 0 1 0 -11.5 0zM488.75 149.5 a5.75 5.75 0 1 0 11.5 0 a5.75 5.75 0 1 0 -11.5 0z" fill="rgba(73, 136, 253, 1)"></path><path d="M632.5 195.5L632.5 172.5L632.5 149.5L632.5 126.5L632.5 103.5L632.5 80.5" stroke="rgba(138, 170, 229, 1)" stroke-width="3.83"></path><path d="M626.75 80.5 a5.75 5.75 0 1 0 11.5 0 a5.75 5.75 0 1 0 -11.5 0z" fill="rgba(138, 170, 229, 1)"></path><path d="M471.5 195.5L471.5 172.5" stroke="rgba(73, 136, 253, 1)" stroke-width="3.83"></path><path d="M465.75 172.5 a5.75 5.75 0 1 0 11.5 0 a5.75 5.75 0 1 0 -11.5 0z" fill="rgba(73, 136, 253, 1)"></path><path d="M655.5 80.5L655.5 57.5M655.5 195.5L655.5 172.5L655.5 149.5L655.5 126.5L655.5 103.5L655.5 80.5L632.5 57.5" stroke="rgba(138, 170, 229, 1)" stroke-width="3.83"></path><path d="M626.75 57.5 a5.75 5.75 0 1 0 11.5 0 a5.75 5.75 0 1 0 -11.5 0zM649.75 57.5 a5.75 5.75 0 1 0 11.5 0 a5.75 5.75 0 1 0 -11.5 0z" fill="rgba(138, 170, 229, 1)"></path><path d="M448.5 195.5L448.5 172.5L448.5 149.5L448.5 126.5L448.5 103.5" stroke="rgba(138, 170, 229, 1)" stroke-width="3.83"></path><path d="M442.75 103.5 a5.75 5.75 0 1 0 11.5 0 a5.75 5.75 0 1 0 -11.5 0z" fill="rgba(138, 170, 229, 1)"></path><path d="M678.5 103.5L701.5 80.5L701.5 57.5M678.5 172.5L701.5 149.5M678.5 195.5L678.5 172.5L678.5 149.5L678.5 126.5L678.5 103.5L678.5 80.5" stroke="rgba(138, 170, 229, 1)" stroke-width="3.83"></path><path d="M672.75 80.5 a5.75 5.75 0 1 0 11.5 0 a5.75 5.75 0 1 0 -11.5 0zM695.75 57.5 a5.75 5.75 0 1 0 11.5 0 a5.75 5.75 0 1 0 -11.5 0zM695.75 149.5 a5.75 5.75 0 1 0 11.5 0 a5.75 5.75 0 1 0 -11.5 0z" fill="rgba(138, 170, 229, 1)"></path><path d="M425.5 195.5L425.5 172.5L425.5 149.5" stroke="rgba(73, 136, 253, 1)" stroke-width="3.83"></path><path d="M419.75 149.5 a5.75 5.75 0 1 0 11.5 0 a5.75 5.75 0 1 0 -11.5 0z" fill="rgba(73, 136, 253, 1)"></path><path d="M402.5 126.5L425.5 103.5L425.5 80.5L425.5 57.5M402.5 195.5L402.5 172.5L402.5 149.5L402.5 126.5L402.5 103.5" stroke="rgba(138, 170, 229, 1)" stroke-width="3.83"></path><path d="M396.75 103.5 a5.75 5.75 0 1 0 11.5 0 a5.75 5.75 0 1 0 -11.5 0zM419.75 57.5 a5.75 5.75 0 1 0 11.5 0 a5.75 5.75 0 1 0 -11.5 0z" fill="rgba(138, 170, 229, 1)"></path><path d="M724.5 195.5L724.5 172.5L724.5 149.5" stroke="rgba(138, 170, 229, 1)" stroke-width="3.83"></path><path d="M718.75 149.5 a5.75 5.75 0 1 0 11.5 0 a5.75 5.75 0 1 0 -11.5 0z" fill="rgba(138, 170, 229, 1)"></path><path d="M379.5 149.5L356.5 126.5M379.5 172.5L356.5 149.5L333.5 126.5M379.5 195.5L379.5 172.5L379.5 149.5L379.5 126.5L379.5 103.5" stroke="rgba(138, 170, 229, 1)" stroke-width="3.83"></path><path d="M373.75 103.5 a5.75 5.75 0 1 0 11.5 0 a5.75 5.75 0 1 0 -11.5 0zM350.75 126.5 a5.75 5.75 0 1 0 11.5 0 a5.75 5.75 0 1 0 -11.5 0zM327.75 126.5 a5.75 5.75 0 1 0 11.5 0 a5.75 5.75 0 1 0 -11.5 0z" fill="rgba(138, 170, 229, 1)"></path><path d="M747.5 195.5L747.5 172.5" stroke="rgba(138, 170, 229, 1)" stroke-width="3.83"></path><path d="M741.75 172.5 a5.75 5.75 0 1 0 11.5 0 a5.75 5.75 0 1 0 -11.5 0z" fill="rgba(138, 170, 229, 1)"></path><path d="M770.5 149.5L747.5 126.5L747.5 103.5L747.5 80.5M770.5 195.5L770.5 172.5L770.5 149.5L770.5 126.5" stroke="rgba(138, 170, 229, 1)" stroke-width="3.83"></path><path d="M764.75 126.5 a5.75 5.75 0 1 0 11.5 0 a5.75 5.75 0 1 0 -11.5 0zM741.75 80.5 a5.75 5.75 0 1 0 11.5 0 a5.75 5.75 0 1 0 -11.5 0z" fill="rgba(138, 170, 229, 1)"></path><path d="M793.5 195.5L793.5 172.5" stroke="rgba(73, 136, 253, 1)" stroke-width="3.83"></path><path d="M787.75 172.5 a5.75 5.75 0 1 0 11.5 0 a5.75 5.75 0 1 0 -11.5 0z" fill="rgba(73, 136, 253, 1)"></path><path d="M310.5 195.5L310.5 172.5L310.5 149.5L310.5 126.5L310.5 103.5" stroke="rgba(138, 170, 229, 1)" stroke-width="3.83"></path><path d="M304.75 103.5 a5.75 5.75 0 1 0 11.5 0 a5.75 5.75 0 1 0 -11.5 0z" fill="rgba(138, 170, 229, 1)"></path><path d="M287.5 172.5L264.5 149.5M287.5 195.5L287.5 172.5L287.5 149.5L287.5 126.5" stroke="rgba(138, 170, 229, 1)" stroke-width="3.83"></path><path d="M281.75 126.5 a5.75 5.75 0 1 0 11.5 0 a5.75 5.75 0 1 0 -11.5 0zM258.75 149.5 a5.75 5.75 0 1 0 11.5 0 a5.75 5.75 0 1 0 -11.5 0z" fill="rgba(138, 170, 229, 1)"></path></g></g><defs><mask id="SvgjsMask1334"><rect width="1105" height="178" fill="#ffffff"></rect></mask><mask id="SvgjsMask1335"><rect width="1105" height="178" fill="white"></rect><path d="M560.62 103.5 a2.88 2.88 0 1 0 5.76 0 a2.88 2.88 0 1 0 -5.76 0zM537.62 80.5 a2.88 2.88 0 1 0 5.76 0 a2.88 2.88 0 1 0 -5.76 0z" fill="black"></path><path d="M537.62 172.5 a2.88 2.88 0 1 0 5.76 0 a2.88 2.88 0 1 0 -5.76 0z" fill="black"></path><path d="M560.62 57.5 a2.88 2.88 0 1 0 5.76 0 a2.88 2.88 0 1 0 -5.76 0zM583.62 57.5 a2.88 2.88 0 1 0 5.76 0 a2.88 2.88 0 1 0 -5.76 0z" fill="black"></path><path d="M514.62 103.5 a2.88 2.88 0 1 0 5.76 0 a2.88 2.88 0 1 0 -5.76 0zM491.62 80.5 a2.88 2.88 0 1 0 5.76 0 a2.88 2.88 0 1 0 -5.76 0z" fill="black"></path><path d="M606.62 126.5 a2.88 2.88 0 1 0 5.76 0 a2.88 2.88 0 1 0 -5.76 0z" fill="black"></path><path d="M468.62 80.5 a2.88 2.88 0 1 0 5.76 0 a2.88 2.88 0 1 0 -5.76 0zM491.62 149.5 a2.88 2.88 0 1 0 5.76 0 a2.88 2.88 0 1 0 -5.76 0z" fill="black"></path><path d="M629.62 80.5 a2.88 2.88 0 1 0 5.76 0 a2.88 2.88 0 1 0 -5.76 0z" fill="black"></path><path d="M468.62 172.5 a2.88 2.88 0 1 0 5.76 0 a2.88 2.88 0 1 0 -5.76 0z" fill="black"></path><path d="M629.62 57.5 a2.88 2.88 0 1 0 5.76 0 a2.88 2.88 0 1 0 -5.76 0zM652.62 57.5 a2.88 2.88 0 1 0 5.76 0 a2.88 2.88 0 1 0 -5.76 0z" fill="black"></path><path d="M445.62 103.5 a2.88 2.88 0 1 0 5.76 0 a2.88 2.88 0 1 0 -5.76 0z" fill="black"></path><path d="M675.62 80.5 a2.88 2.88 0 1 0 5.76 0 a2.88 2.88 0 1 0 -5.76 0zM698.62 57.5 a2.88 2.88 0 1 0 5.76 0 a2.88 2.88 0 1 0 -5.76 0zM698.62 149.5 a2.88 2.88 0 1 0 5.76 0 a2.88 2.88 0 1 0 -5.76 0z" fill="black"></path><path d="M422.62 149.5 a2.88 2.88 0 1 0 5.76 0 a2.88 2.88 0 1 0 -5.76 0z" fill="black"></path><path d="M399.62 103.5 a2.88 2.88 0 1 0 5.76 0 a2.88 2.88 0 1 0 -5.76 0zM422.62 57.5 a2.88 2.88 0 1 0 5.76 0 a2.88 2.88 0 1 0 -5.76 0z" fill="black"></path><path d="M721.62 149.5 a2.88 2.88 0 1 0 5.76 0 a2.88 2.88 0 1 0 -5.76 0z" fill="black"></path><path d="M376.62 103.5 a2.88 2.88 0 1 0 5.76 0 a2.88 2.88 0 1 0 -5.76 0zM353.62 126.5 a2.88 2.88 0 1 0 5.76 0 a2.88 2.88 0 1 0 -5.76 0zM330.62 126.5 a2.88 2.88 0 1 0 5.76 0 a2.88 2.88 0 1 0 -5.76 0z" fill="black"></path><path d="M744.62 172.5 a2.88 2.88 0 1 0 5.76 0 a2.88 2.88 0 1 0 -5.76 0z" fill="black"></path><path d="M767.62 126.5 a2.88 2.88 0 1 0 5.76 0 a2.88 2.88 0 1 0 -5.76 0zM744.62 80.5 a2.88 2.88 0 1 0 5.76 0 a2.88 2.88 0 1 0 -5.76 0z" fill="black"></path><path d="M790.62 172.5 a2.88 2.88 0 1 0 5.76 0 a2.88 2.88 0 1 0 -5.76 0z" fill="black"></path><path d="M307.62 103.5 a2.88 2.88 0 1 0 5.76 0 a2.88 2.88 0 1 0 -5.76 0z" fill="black"></path><path d="M284.62 126.5 a2.88 2.88 0 1 0 5.76 0 a2.88 2.88 0 1 0 -5.76 0zM261.62 149.5 a2.88 2.88 0 1 0 5.76 0 a2.88 2.88 0 1 0 -5.76 0z" fill="black"></path></mask></defs></svg>