<svg xmlns="http://www.w3.org/2000/svg" version="1.1" xmlns:xlink="http://www.w3.org/1999/xlink" xmlns:svgjs="http://svgjs.com/svgjs" width="1105" height="178" preserveAspectRatio="none" viewBox="0 0 1105 178"><g mask="url(&quot;#SvgjsMask1508&quot;)" fill="none"><g mask="url(&quot;#SvgjsMask1509&quot;)"><path d="M-6.5 84.5L6.5 84.5L19.5 84.5L32.5 84.5L45.5 84.5" stroke="rgba(138, 170, 229, 1)" stroke-width="2.17"></path><path d="M42.25 84.5 a3.25 3.25 0 1 0 6.5 0 a3.25 3.25 0 1 0 -6.5 0z" fill="rgba(138, 170, 229, 1)"></path><path d="M97.5 97.5L110.5 84.5L123.5 84.5L136.5 84.5L149.5 84.5L162.5 84.5M84.5 97.5L97.5 84.5M162.5 97.5L175.5 110.5L188.5 110.5L201.5 110.5L214.5 110.5M-6.5 97.5L6.5 97.5L19.5 97.5L32.5 97.5L45.5 97.5L58.5 97.5L71.5 97.5L84.5 97.5L97.5 97.5L110.5 97.5L123.5 97.5L136.5 97.5L149.5 97.5L162.5 97.5L175.5 97.5" stroke="rgba(73, 136, 253, 1)" stroke-width="2.17"></path><path d="M172.25 97.5 a3.25 3.25 0 1 0 6.5 0 a3.25 3.25 0 1 0 -6.5 0zM159.25 84.5 a3.25 3.25 0 1 0 6.5 0 a3.25 3.25 0 1 0 -6.5 0zM94.25 84.5 a3.25 3.25 0 1 0 6.5 0 a3.25 3.25 0 1 0 -6.5 0zM211.25 110.5 a3.25 3.25 0 1 0 6.5 0 a3.25 3.25 0 1 0 -6.5 0z" fill="rgba(73, 136, 253, 1)"></path><path d="M58.5 84.5L71.5 71.5M45.5 71.5L58.5 71.5L71.5 58.5M-6.5 71.5L6.5 71.5L19.5 71.5L32.5 71.5L45.5 71.5L58.5 84.5L71.5 84.5" stroke="rgba(73, 136, 253, 1)" stroke-width="2.17"></path><path d="M68.25 84.5 a3.25 3.25 0 1 0 6.5 0 a3.25 3.25 0 1 0 -6.5 0zM68.25 71.5 a3.25 3.25 0 1 0 6.5 0 a3.25 3.25 0 1 0 -6.5 0zM68.25 58.5 a3.25 3.25 0 1 0 6.5 0 a3.25 3.25 0 1 0 -6.5 0z" fill="rgba(73, 136, 253, 1)"></path><path d="M71.5 110.5L84.5 123.5L97.5 123.5M123.5 110.5L136.5 123.5M45.5 110.5L58.5 123.5L71.5 123.5L84.5 136.5M-6.5 110.5L6.5 110.5L19.5 110.5L32.5 110.5L45.5 110.5L58.5 110.5L71.5 110.5L84.5 110.5L97.5 110.5L110.5 110.5L123.5 110.5L136.5 110.5L149.5 110.5" stroke="rgba(138, 170, 229, 1)" stroke-width="2.17"></path><path d="M146.25 110.5 a3.25 3.25 0 1 0 6.5 0 a3.25 3.25 0 1 0 -6.5 0zM94.25 123.5 a3.25 3.25 0 1 0 6.5 0 a3.25 3.25 0 1 0 -6.5 0zM133.25 123.5 a3.25 3.25 0 1 0 6.5 0 a3.25 3.25 0 1 0 -6.5 0zM81.25 136.5 a3.25 3.25 0 1 0 6.5 0 a3.25 3.25 0 1 0 -6.5 0z" fill="rgba(138, 170, 229, 1)"></path><path d="M214.5 58.5L227.5 45.5L240.5 45.5M110.5 58.5L123.5 71.5L136.5 71.5L149.5 71.5M162.5 58.5L175.5 71.5L188.5 84.5L201.5 84.5M45.5 45.5L58.5 58.5M-6.5 58.5L6.5 58.5L19.5 58.5L32.5 58.5L45.5 45.5L58.5 45.5L71.5 45.5L84.5 45.5L97.5 58.5L110.5 58.5L123.5 58.5L136.5 58.5L149.5 58.5L162.5 58.5L175.5 58.5L188.5 58.5L201.5 58.5L214.5 58.5L227.5 58.5" stroke="rgba(73, 136, 253, 1)" stroke-width="2.17"></path><path d="M224.25 58.5 a3.25 3.25 0 1 0 6.5 0 a3.25 3.25 0 1 0 -6.5 0zM237.25 45.5 a3.25 3.25 0 1 0 6.5 0 a3.25 3.25 0 1 0 -6.5 0zM146.25 71.5 a3.25 3.25 0 1 0 6.5 0 a3.25 3.25 0 1 0 -6.5 0zM198.25 84.5 a3.25 3.25 0 1 0 6.5 0 a3.25 3.25 0 1 0 -6.5 0zM55.25 58.5 a3.25 3.25 0 1 0 6.5 0 a3.25 3.25 0 1 0 -6.5 0z" fill="rgba(73, 136, 253, 1)"></path><path d="M-6.5 123.5L6.5 136.5" stroke="rgba(138, 170, 229, 1)" stroke-width="2.17"></path><path d="M3.25 136.5 a3.25 3.25 0 1 0 6.5 0 a3.25 3.25 0 1 0 -6.5 0z" fill="rgba(138, 170, 229, 1)"></path><path d="M6.5 32.5L19.5 45.5L32.5 45.5M-6.5 45.5L6.5 32.5L19.5 32.5L32.5 32.5L45.5 32.5L58.5 32.5L71.5 32.5L84.5 32.5L97.5 32.5" stroke="rgba(73, 136, 253, 1)" stroke-width="2.17"></path><path d="M94.25 32.5 a3.25 3.25 0 1 0 6.5 0 a3.25 3.25 0 1 0 -6.5 0zM29.25 45.5 a3.25 3.25 0 1 0 6.5 0 a3.25 3.25 0 1 0 -6.5 0z" fill="rgba(73, 136, 253, 1)"></path></g></g><defs><mask id="SvgjsMask1508"><rect width="1105" height="178" fill="#ffffff"></rect></mask><mask id="SvgjsMask1509"><rect width="1105" height="178" fill="white"></rect><path d="M43.87 84.5 a1.63 1.63 0 1 0 3.26 0 a1.63 1.63 0 1 0 -3.26 0z" fill="black"></path><path d="M173.87 97.5 a1.63 1.63 0 1 0 3.26 0 a1.63 1.63 0 1 0 -3.26 0zM160.87 84.5 a1.63 1.63 0 1 0 3.26 0 a1.63 1.63 0 1 0 -3.26 0zM95.87 84.5 a1.63 1.63 0 1 0 3.26 0 a1.63 1.63 0 1 0 -3.26 0zM212.87 110.5 a1.63 1.63 0 1 0 3.26 0 a1.63 1.63 0 1 0 -3.26 0z" fill="black"></path><path d="M69.87 84.5 a1.63 1.63 0 1 0 3.26 0 a1.63 1.63 0 1 0 -3.26 0zM69.87 71.5 a1.63 1.63 0 1 0 3.26 0 a1.63 1.63 0 1 0 -3.26 0zM69.87 58.5 a1.63 1.63 0 1 0 3.26 0 a1.63 1.63 0 1 0 -3.26 0z" fill="black"></path><path d="M147.87 110.5 a1.63 1.63 0 1 0 3.26 0 a1.63 1.63 0 1 0 -3.26 0zM95.87 123.5 a1.63 1.63 0 1 0 3.26 0 a1.63 1.63 0 1 0 -3.26 0zM134.87 123.5 a1.63 1.63 0 1 0 3.26 0 a1.63 1.63 0 1 0 -3.26 0zM82.87 136.5 a1.63 1.63 0 1 0 3.26 0 a1.63 1.63 0 1 0 -3.26 0z" fill="black"></path><path d="M225.87 58.5 a1.63 1.63 0 1 0 3.26 0 a1.63 1.63 0 1 0 -3.26 0zM238.87 45.5 a1.63 1.63 0 1 0 3.26 0 a1.63 1.63 0 1 0 -3.26 0zM147.87 71.5 a1.63 1.63 0 1 0 3.26 0 a1.63 1.63 0 1 0 -3.26 0zM199.87 84.5 a1.63 1.63 0 1 0 3.26 0 a1.63 1.63 0 1 0 -3.26 0zM56.87 58.5 a1.63 1.63 0 1 0 3.26 0 a1.63 1.63 0 1 0 -3.26 0z" fill="black"></path><path d="M4.87 136.5 a1.63 1.63 0 1 0 3.26 0 a1.63 1.63 0 1 0 -3.26 0z" fill="black"></path><path d="M95.87 32.5 a1.63 1.63 0 1 0 3.26 0 a1.63 1.63 0 1 0 -3.26 0zM30.87 45.5 a1.63 1.63 0 1 0 3.26 0 a1.63 1.63 0 1 0 -3.26 0z" fill="black"></path></mask></defs></svg>