<svg xmlns="http://www.w3.org/2000/svg" version="1.1" xmlns:xlink="http://www.w3.org/1999/xlink" xmlns:svgjs="http://svgjs.com/svgjs" width="1105" height="178" preserveAspectRatio="none" viewBox="0 0 1105 178"><g mask="url(&quot;#SvgjsMask1748&quot;)" fill="none"><g mask="url(&quot;#SvgjsMask1749&quot;)"><path d="M561 165L539 143M561 209L561 187L561 165L561 143" stroke="rgba(73, 136, 253, 1)" stroke-width="3.67"></path><path d="M555.5 143 a5.5 5.5 0 1 0 11 0 a5.5 5.5 0 1 0 -11 0zM533.5 143 a5.5 5.5 0 1 0 11 0 a5.5 5.5 0 1 0 -11 0z" fill="rgba(73, 136, 253, 1)"></path><path d="M539 209L539 187" stroke="rgba(138, 170, 229, 1)" stroke-width="3.67"></path><path d="M533.5 187 a5.5 5.5 0 1 0 11 0 a5.5 5.5 0 1 0 -11 0z" fill="rgba(138, 170, 229, 1)"></path><path d="M583 99L605 77L605 55M583 165L605 143M583 209L583 187L583 165L583 143L583 121L583 99L583 77L583 55" stroke="rgba(73, 136, 253, 1)" stroke-width="3.67"></path><path d="M577.5 55 a5.5 5.5 0 1 0 11 0 a5.5 5.5 0 1 0 -11 0zM599.5 55 a5.5 5.5 0 1 0 11 0 a5.5 5.5 0 1 0 -11 0zM599.5 143 a5.5 5.5 0 1 0 11 0 a5.5 5.5 0 1 0 -11 0z" fill="rgba(73, 136, 253, 1)"></path><path d="M517 165L495 143M517 209L517 187L517 165L517 143L517 121L517 99" stroke="rgba(138, 170, 229, 1)" stroke-width="3.67"></path><path d="M511.5 99 a5.5 5.5 0 1 0 11 0 a5.5 5.5 0 1 0 -11 0zM489.5 143 a5.5 5.5 0 1 0 11 0 a5.5 5.5 0 1 0 -11 0z" fill="rgba(138, 170, 229, 1)"></path><path d="M605 209L605 187" stroke="rgba(73, 136, 253, 1)" stroke-width="3.67"></path><path d="M599.5 187 a5.5 5.5 0 1 0 11 0 a5.5 5.5 0 1 0 -11 0z" fill="rgba(73, 136, 253, 1)"></path><path d="M495 209L495 187" stroke="rgba(73, 136, 253, 1)" stroke-width="3.67"></path><path d="M489.5 187 a5.5 5.5 0 1 0 11 0 a5.5 5.5 0 1 0 -11 0z" fill="rgba(73, 136, 253, 1)"></path><path d="M627 209L627 187L627 165L627 143" stroke="rgba(73, 136, 253, 1)" stroke-width="3.67"></path><path d="M621.5 143 a5.5 5.5 0 1 0 11 0 a5.5 5.5 0 1 0 -11 0z" fill="rgba(73, 136, 253, 1)"></path><path d="M473 209L473 187L473 165L473 143L473 121" stroke="rgba(73, 136, 253, 1)" stroke-width="3.67"></path><path d="M467.5 121 a5.5 5.5 0 1 0 11 0 a5.5 5.5 0 1 0 -11 0z" fill="rgba(73, 136, 253, 1)"></path><path d="M649 187L671 165M649 209L649 187L649 165" stroke="rgba(73, 136, 253, 1)" stroke-width="3.67"></path><path d="M643.5 165 a5.5 5.5 0 1 0 11 0 a5.5 5.5 0 1 0 -11 0zM665.5 165 a5.5 5.5 0 1 0 11 0 a5.5 5.5 0 1 0 -11 0z" fill="rgba(73, 136, 253, 1)"></path><path d="M451 99L429 77L429 55M451 121L429 99M451 143L429 121M451 209L451 187L451 165L451 143L451 121L451 99L451 77L451 55" stroke="rgba(73, 136, 253, 1)" stroke-width="3.67"></path><path d="M445.5 55 a5.5 5.5 0 1 0 11 0 a5.5 5.5 0 1 0 -11 0zM423.5 55 a5.5 5.5 0 1 0 11 0 a5.5 5.5 0 1 0 -11 0zM423.5 99 a5.5 5.5 0 1 0 11 0 a5.5 5.5 0 1 0 -11 0zM423.5 121 a5.5 5.5 0 1 0 11 0 a5.5 5.5 0 1 0 -11 0z" fill="rgba(73, 136, 253, 1)"></path><path d="M429 165L429 143M429 209L429 187L429 165L407 143L407 121" stroke="rgba(138, 170, 229, 1)" stroke-width="3.67"></path><path d="M401.5 121 a5.5 5.5 0 1 0 11 0 a5.5 5.5 0 1 0 -11 0zM423.5 143 a5.5 5.5 0 1 0 11 0 a5.5 5.5 0 1 0 -11 0z" fill="rgba(138, 170, 229, 1)"></path><path d="M693 187L715 165M671 121L649 99M693 165L693 143L693 121L693 99M693 209L693 187L693 165L671 143L671 121L671 99L671 77" stroke="rgba(73, 136, 253, 1)" stroke-width="3.67"></path><path d="M665.5 77 a5.5 5.5 0 1 0 11 0 a5.5 5.5 0 1 0 -11 0zM709.5 165 a5.5 5.5 0 1 0 11 0 a5.5 5.5 0 1 0 -11 0zM643.5 99 a5.5 5.5 0 1 0 11 0 a5.5 5.5 0 1 0 -11 0zM687.5 99 a5.5 5.5 0 1 0 11 0 a5.5 5.5 0 1 0 -11 0z" fill="rgba(73, 136, 253, 1)"></path><path d="M385 99L385 77L385 55M407 209L407 187L407 165L385 143L385 121L385 99L407 77L407 55" stroke="rgba(73, 136, 253, 1)" stroke-width="3.67"></path><path d="M401.5 55 a5.5 5.5 0 1 0 11 0 a5.5 5.5 0 1 0 -11 0zM379.5 55 a5.5 5.5 0 1 0 11 0 a5.5 5.5 0 1 0 -11 0z" fill="rgba(73, 136, 253, 1)"></path><path d="M715 209L737 187L737 165L737 143" stroke="rgba(73, 136, 253, 1)" stroke-width="3.67"></path><path d="M731.5 143 a5.5 5.5 0 1 0 11 0 a5.5 5.5 0 1 0 -11 0z" fill="rgba(73, 136, 253, 1)"></path><path d="M363 121L341 99M385 209L385 187L385 165L363 143L363 121L363 99" stroke="rgba(138, 170, 229, 1)" stroke-width="3.67"></path><path d="M357.5 99 a5.5 5.5 0 1 0 11 0 a5.5 5.5 0 1 0 -11 0zM335.5 99 a5.5 5.5 0 1 0 11 0 a5.5 5.5 0 1 0 -11 0z" fill="rgba(138, 170, 229, 1)"></path><path d="M363 187L363 165M363 209L363 187L341 165L341 143" stroke="rgba(138, 170, 229, 1)" stroke-width="3.67"></path><path d="M335.5 143 a5.5 5.5 0 1 0 11 0 a5.5 5.5 0 1 0 -11 0zM357.5 165 a5.5 5.5 0 1 0 11 0 a5.5 5.5 0 1 0 -11 0z" fill="rgba(138, 170, 229, 1)"></path><path d="M759 209L759 187L759 165" stroke="rgba(138, 170, 229, 1)" stroke-width="3.67"></path><path d="M753.5 165 a5.5 5.5 0 1 0 11 0 a5.5 5.5 0 1 0 -11 0z" fill="rgba(138, 170, 229, 1)"></path><path d="M297 143L297 121L297 99M319 165L319 143L341 121M341 209L341 187L319 165L297 143L275 121" stroke="rgba(73, 136, 253, 1)" stroke-width="3.67"></path><path d="M269.5 121 a5.5 5.5 0 1 0 11 0 a5.5 5.5 0 1 0 -11 0zM291.5 99 a5.5 5.5 0 1 0 11 0 a5.5 5.5 0 1 0 -11 0zM335.5 121 a5.5 5.5 0 1 0 11 0 a5.5 5.5 0 1 0 -11 0z" fill="rgba(73, 136, 253, 1)"></path><path d="M781 209L781 187" stroke="rgba(73, 136, 253, 1)" stroke-width="3.67"></path><path d="M775.5 187 a5.5 5.5 0 1 0 11 0 a5.5 5.5 0 1 0 -11 0z" fill="rgba(73, 136, 253, 1)"></path><path d="M319 209L319 187L297 165L275 143" stroke="rgba(73, 136, 253, 1)" stroke-width="3.67"></path><path d="M269.5 143 a5.5 5.5 0 1 0 11 0 a5.5 5.5 0 1 0 -11 0z" fill="rgba(73, 136, 253, 1)"></path><path d="M803 209L803 187" stroke="rgba(138, 170, 229, 1)" stroke-width="3.67"></path><path d="M797.5 187 a5.5 5.5 0 1 0 11 0 a5.5 5.5 0 1 0 -11 0z" fill="rgba(138, 170, 229, 1)"></path><path d="M253 143L231 121M297 209L297 187L275 165L253 143L253 121" stroke="rgba(73, 136, 253, 1)" stroke-width="3.67"></path><path d="M247.5 121 a5.5 5.5 0 1 0 11 0 a5.5 5.5 0 1 0 -11 0zM225.5 121 a5.5 5.5 0 1 0 11 0 a5.5 5.5 0 1 0 -11 0z" fill="rgba(73, 136, 253, 1)"></path></g></g><defs><mask id="SvgjsMask1748"><rect width="1105" height="178" fill="#ffffff"></rect></mask><mask id="SvgjsMask1749"><rect width="1105" height="178" fill="white"></rect><path d="M558.25 143 a2.75 2.75 0 1 0 5.5 0 a2.75 2.75 0 1 0 -5.5 0zM536.25 143 a2.75 2.75 0 1 0 5.5 0 a2.75 2.75 0 1 0 -5.5 0z" fill="black"></path><path d="M536.25 187 a2.75 2.75 0 1 0 5.5 0 a2.75 2.75 0 1 0 -5.5 0z" fill="black"></path><path d="M580.25 55 a2.75 2.75 0 1 0 5.5 0 a2.75 2.75 0 1 0 -5.5 0zM602.25 55 a2.75 2.75 0 1 0 5.5 0 a2.75 2.75 0 1 0 -5.5 0zM602.25 143 a2.75 2.75 0 1 0 5.5 0 a2.75 2.75 0 1 0 -5.5 0z" fill="black"></path><path d="M514.25 99 a2.75 2.75 0 1 0 5.5 0 a2.75 2.75 0 1 0 -5.5 0zM492.25 143 a2.75 2.75 0 1 0 5.5 0 a2.75 2.75 0 1 0 -5.5 0z" fill="black"></path><path d="M602.25 187 a2.75 2.75 0 1 0 5.5 0 a2.75 2.75 0 1 0 -5.5 0z" fill="black"></path><path d="M492.25 187 a2.75 2.75 0 1 0 5.5 0 a2.75 2.75 0 1 0 -5.5 0z" fill="black"></path><path d="M624.25 143 a2.75 2.75 0 1 0 5.5 0 a2.75 2.75 0 1 0 -5.5 0z" fill="black"></path><path d="M470.25 121 a2.75 2.75 0 1 0 5.5 0 a2.75 2.75 0 1 0 -5.5 0z" fill="black"></path><path d="M646.25 165 a2.75 2.75 0 1 0 5.5 0 a2.75 2.75 0 1 0 -5.5 0zM668.25 165 a2.75 2.75 0 1 0 5.5 0 a2.75 2.75 0 1 0 -5.5 0z" fill="black"></path><path d="M448.25 55 a2.75 2.75 0 1 0 5.5 0 a2.75 2.75 0 1 0 -5.5 0zM426.25 55 a2.75 2.75 0 1 0 5.5 0 a2.75 2.75 0 1 0 -5.5 0zM426.25 99 a2.75 2.75 0 1 0 5.5 0 a2.75 2.75 0 1 0 -5.5 0zM426.25 121 a2.75 2.75 0 1 0 5.5 0 a2.75 2.75 0 1 0 -5.5 0z" fill="black"></path><path d="M404.25 121 a2.75 2.75 0 1 0 5.5 0 a2.75 2.75 0 1 0 -5.5 0zM426.25 143 a2.75 2.75 0 1 0 5.5 0 a2.75 2.75 0 1 0 -5.5 0z" fill="black"></path><path d="M668.25 77 a2.75 2.75 0 1 0 5.5 0 a2.75 2.75 0 1 0 -5.5 0zM712.25 165 a2.75 2.75 0 1 0 5.5 0 a2.75 2.75 0 1 0 -5.5 0zM646.25 99 a2.75 2.75 0 1 0 5.5 0 a2.75 2.75 0 1 0 -5.5 0zM690.25 99 a2.75 2.75 0 1 0 5.5 0 a2.75 2.75 0 1 0 -5.5 0z" fill="black"></path><path d="M404.25 55 a2.75 2.75 0 1 0 5.5 0 a2.75 2.75 0 1 0 -5.5 0zM382.25 55 a2.75 2.75 0 1 0 5.5 0 a2.75 2.75 0 1 0 -5.5 0z" fill="black"></path><path d="M734.25 143 a2.75 2.75 0 1 0 5.5 0 a2.75 2.75 0 1 0 -5.5 0z" fill="black"></path><path d="M360.25 99 a2.75 2.75 0 1 0 5.5 0 a2.75 2.75 0 1 0 -5.5 0zM338.25 99 a2.75 2.75 0 1 0 5.5 0 a2.75 2.75 0 1 0 -5.5 0z" fill="black"></path><path d="M338.25 143 a2.75 2.75 0 1 0 5.5 0 a2.75 2.75 0 1 0 -5.5 0zM360.25 165 a2.75 2.75 0 1 0 5.5 0 a2.75 2.75 0 1 0 -5.5 0z" fill="black"></path><path d="M756.25 165 a2.75 2.75 0 1 0 5.5 0 a2.75 2.75 0 1 0 -5.5 0z" fill="black"></path><path d="M272.25 121 a2.75 2.75 0 1 0 5.5 0 a2.75 2.75 0 1 0 -5.5 0zM294.25 99 a2.75 2.75 0 1 0 5.5 0 a2.75 2.75 0 1 0 -5.5 0zM338.25 121 a2.75 2.75 0 1 0 5.5 0 a2.75 2.75 0 1 0 -5.5 0z" fill="black"></path><path d="M778.25 187 a2.75 2.75 0 1 0 5.5 0 a2.75 2.75 0 1 0 -5.5 0z" fill="black"></path><path d="M272.25 143 a2.75 2.75 0 1 0 5.5 0 a2.75 2.75 0 1 0 -5.5 0z" fill="black"></path><path d="M800.25 187 a2.75 2.75 0 1 0 5.5 0 a2.75 2.75 0 1 0 -5.5 0z" fill="black"></path><path d="M250.25 121 a2.75 2.75 0 1 0 5.5 0 a2.75 2.75 0 1 0 -5.5 0zM228.25 121 a2.75 2.75 0 1 0 5.5 0 a2.75 2.75 0 1 0 -5.5 0z" fill="black"></path></mask></defs></svg>