<svg xmlns="http://www.w3.org/2000/svg" version="1.1" xmlns:xlink="http://www.w3.org/1999/xlink" xmlns:svgjs="http://svgjs.com/svgjs" width="1105" height="150" preserveAspectRatio="none" viewBox="0 0 1105 150"><g mask="url(&quot;#SvgjsMask1772&quot;)" fill="none"><g mask="url(&quot;#SvgjsMask1773&quot;)"><path d="M552.5 161.5L552.5 144.5L552.5 127.5L552.5 110.5L552.5 93.5" stroke="rgba(73, 136, 253, 1)" stroke-width="2.83"></path><path d="M548.25 93.5 a4.25 4.25 0 1 0 8.5 0 a4.25 4.25 0 1 0 -8.5 0z" fill="rgba(73, 136, 253, 1)"></path><path d="M535.5 76.5L552.5 59.5L552.5 42.5M535.5 59.5L535.5 42.5M535.5 93.5L518.5 76.5L518.5 59.5L501.5 42.5M535.5 161.5L535.5 144.5L535.5 127.5L535.5 110.5L535.5 93.5L535.5 76.5L535.5 59.5L518.5 42.5" stroke="rgba(73, 136, 253, 1)" stroke-width="2.83"></path><path d="M514.25 42.5 a4.25 4.25 0 1 0 8.5 0 a4.25 4.25 0 1 0 -8.5 0zM548.25 42.5 a4.25 4.25 0 1 0 8.5 0 a4.25 4.25 0 1 0 -8.5 0zM531.25 42.5 a4.25 4.25 0 1 0 8.5 0 a4.25 4.25 0 1 0 -8.5 0zM497.25 42.5 a4.25 4.25 0 1 0 8.5 0 a4.25 4.25 0 1 0 -8.5 0z" fill="rgba(73, 136, 253, 1)"></path><path d="M586.5 93.5L569.5 76.5L569.5 59.5L569.5 42.5M586.5 127.5L603.5 110.5L603.5 93.5L603.5 76.5M586.5 144.5L569.5 127.5M586.5 161.5L586.5 144.5L586.5 127.5L586.5 110.5L586.5 93.5L586.5 76.5L586.5 59.5" stroke="rgba(73, 136, 253, 1)" stroke-width="2.83"></path><path d="M582.25 59.5 a4.25 4.25 0 1 0 8.5 0 a4.25 4.25 0 1 0 -8.5 0zM565.25 42.5 a4.25 4.25 0 1 0 8.5 0 a4.25 4.25 0 1 0 -8.5 0zM599.25 76.5 a4.25 4.25 0 1 0 8.5 0 a4.25 4.25 0 1 0 -8.5 0zM565.25 127.5 a4.25 4.25 0 1 0 8.5 0 a4.25 4.25 0 1 0 -8.5 0z" fill="rgba(73, 136, 253, 1)"></path><path d="M518.5 127.5L501.5 110.5M518.5 161.5L518.5 144.5L518.5 127.5L518.5 110.5" stroke="rgba(138, 170, 229, 1)" stroke-width="2.83"></path><path d="M514.25 110.5 a4.25 4.25 0 1 0 8.5 0 a4.25 4.25 0 1 0 -8.5 0zM497.25 110.5 a4.25 4.25 0 1 0 8.5 0 a4.25 4.25 0 1 0 -8.5 0z" fill="rgba(138, 170, 229, 1)"></path><path d="M620.5 127.5L620.5 110.5L620.5 93.5L620.5 76.5L603.5 59.5M603.5 144.5L603.5 127.5M603.5 161.5L603.5 144.5L620.5 127.5L637.5 110.5" stroke="rgba(73, 136, 253, 1)" stroke-width="2.83"></path><path d="M633.25 110.5 a4.25 4.25 0 1 0 8.5 0 a4.25 4.25 0 1 0 -8.5 0zM599.25 59.5 a4.25 4.25 0 1 0 8.5 0 a4.25 4.25 0 1 0 -8.5 0zM599.25 127.5 a4.25 4.25 0 1 0 8.5 0 a4.25 4.25 0 1 0 -8.5 0z" fill="rgba(73, 136, 253, 1)"></path><path d="M501.5 161.5L501.5 144.5" stroke="rgba(138, 170, 229, 1)" stroke-width="2.83"></path><path d="M497.25 144.5 a4.25 4.25 0 1 0 8.5 0 a4.25 4.25 0 1 0 -8.5 0z" fill="rgba(138, 170, 229, 1)"></path><path d="M671.5 93.5L671.5 76.5L671.5 59.5L671.5 42.5M620.5 161.5L620.5 144.5L637.5 127.5L654.5 110.5L671.5 93.5L688.5 76.5" stroke="rgba(138, 170, 229, 1)" stroke-width="2.83"></path><path d="M684.25 76.5 a4.25 4.25 0 1 0 8.5 0 a4.25 4.25 0 1 0 -8.5 0zM667.25 42.5 a4.25 4.25 0 1 0 8.5 0 a4.25 4.25 0 1 0 -8.5 0z" fill="rgba(138, 170, 229, 1)"></path><path d="M467.5 59.5L450.5 42.5M467.5 93.5L484.5 76.5M467.5 110.5L484.5 93.5M484.5 161.5L484.5 144.5L484.5 127.5L467.5 110.5L467.5 93.5L467.5 76.5L467.5 59.5L467.5 42.5" stroke="rgba(138, 170, 229, 1)" stroke-width="2.83"></path><path d="M463.25 42.5 a4.25 4.25 0 1 0 8.5 0 a4.25 4.25 0 1 0 -8.5 0zM446.25 42.5 a4.25 4.25 0 1 0 8.5 0 a4.25 4.25 0 1 0 -8.5 0zM480.25 76.5 a4.25 4.25 0 1 0 8.5 0 a4.25 4.25 0 1 0 -8.5 0zM480.25 93.5 a4.25 4.25 0 1 0 8.5 0 a4.25 4.25 0 1 0 -8.5 0z" fill="rgba(138, 170, 229, 1)"></path><path d="M637.5 161.5L637.5 144.5" stroke="rgba(73, 136, 253, 1)" stroke-width="2.83"></path><path d="M633.25 144.5 a4.25 4.25 0 1 0 8.5 0 a4.25 4.25 0 1 0 -8.5 0z" fill="rgba(73, 136, 253, 1)"></path><path d="M467.5 161.5L467.5 144.5L467.5 127.5L450.5 110.5L450.5 93.5" stroke="rgba(138, 170, 229, 1)" stroke-width="2.83"></path><path d="M446.25 93.5 a4.25 4.25 0 1 0 8.5 0 a4.25 4.25 0 1 0 -8.5 0z" fill="rgba(138, 170, 229, 1)"></path><path d="M671.5 144.5L654.5 127.5M654.5 161.5L671.5 144.5L671.5 127.5" stroke="rgba(138, 170, 229, 1)" stroke-width="2.83"></path><path d="M667.25 127.5 a4.25 4.25 0 1 0 8.5 0 a4.25 4.25 0 1 0 -8.5 0zM650.25 127.5 a4.25 4.25 0 1 0 8.5 0 a4.25 4.25 0 1 0 -8.5 0z" fill="rgba(138, 170, 229, 1)"></path><path d="M450.5 161.5L450.5 144.5L450.5 127.5L433.5 110.5" stroke="rgba(73, 136, 253, 1)" stroke-width="2.83"></path><path d="M429.25 110.5 a4.25 4.25 0 1 0 8.5 0 a4.25 4.25 0 1 0 -8.5 0z" fill="rgba(73, 136, 253, 1)"></path><path d="M433.5 161.5L433.5 144.5L433.5 127.5L416.5 110.5L416.5 93.5" stroke="rgba(138, 170, 229, 1)" stroke-width="2.83"></path><path d="M412.25 93.5 a4.25 4.25 0 1 0 8.5 0 a4.25 4.25 0 1 0 -8.5 0z" fill="rgba(138, 170, 229, 1)"></path><path d="M705.5 76.5L722.5 59.5M688.5 161.5L688.5 144.5L688.5 127.5L688.5 110.5L688.5 93.5L705.5 76.5L705.5 59.5" stroke="rgba(73, 136, 253, 1)" stroke-width="2.83"></path><path d="M701.25 59.5 a4.25 4.25 0 1 0 8.5 0 a4.25 4.25 0 1 0 -8.5 0zM718.25 59.5 a4.25 4.25 0 1 0 8.5 0 a4.25 4.25 0 1 0 -8.5 0z" fill="rgba(73, 136, 253, 1)"></path><path d="M416.5 144.5L399.5 127.5L382.5 110.5L382.5 93.5L382.5 76.5M416.5 161.5L416.5 144.5L416.5 127.5L399.5 110.5" stroke="rgba(138, 170, 229, 1)" stroke-width="2.83"></path><path d="M395.25 110.5 a4.25 4.25 0 1 0 8.5 0 a4.25 4.25 0 1 0 -8.5 0zM378.25 76.5 a4.25 4.25 0 1 0 8.5 0 a4.25 4.25 0 1 0 -8.5 0z" fill="rgba(138, 170, 229, 1)"></path><path d="M705.5 144.5L722.5 127.5L722.5 110.5M705.5 161.5L705.5 144.5L705.5 127.5L705.5 110.5" stroke="rgba(73, 136, 253, 1)" stroke-width="2.83"></path><path d="M701.25 110.5 a4.25 4.25 0 1 0 8.5 0 a4.25 4.25 0 1 0 -8.5 0zM718.25 110.5 a4.25 4.25 0 1 0 8.5 0 a4.25 4.25 0 1 0 -8.5 0z" fill="rgba(73, 136, 253, 1)"></path><path d="M382.5 161.5L382.5 144.5" stroke="rgba(73, 136, 253, 1)" stroke-width="2.83"></path><path d="M378.25 144.5 a4.25 4.25 0 1 0 8.5 0 a4.25 4.25 0 1 0 -8.5 0z" fill="rgba(73, 136, 253, 1)"></path><path d="M739.5 161.5L739.5 144.5L739.5 127.5L739.5 110.5L739.5 93.5" stroke="rgba(138, 170, 229, 1)" stroke-width="2.83"></path><path d="M735.25 93.5 a4.25 4.25 0 1 0 8.5 0 a4.25 4.25 0 1 0 -8.5 0z" fill="rgba(138, 170, 229, 1)"></path><path d="M365.5 161.5L365.5 144.5L365.5 127.5L365.5 110.5L365.5 93.5L365.5 76.5L365.5 59.5L365.5 42.5" stroke="rgba(73, 136, 253, 1)" stroke-width="2.83"></path><path d="M361.25 42.5 a4.25 4.25 0 1 0 8.5 0 a4.25 4.25 0 1 0 -8.5 0z" fill="rgba(73, 136, 253, 1)"></path><path d="M756.5 161.5L756.5 144.5L756.5 127.5L756.5 110.5L756.5 93.5L756.5 76.5" stroke="rgba(73, 136, 253, 1)" stroke-width="2.83"></path><path d="M752.25 76.5 a4.25 4.25 0 1 0 8.5 0 a4.25 4.25 0 1 0 -8.5 0z" fill="rgba(73, 136, 253, 1)"></path><path d="M348.5 110.5L331.5 93.5L331.5 76.5M348.5 127.5L331.5 110.5M348.5 161.5L348.5 144.5L348.5 127.5L348.5 110.5L348.5 93.5L348.5 76.5" stroke="rgba(138, 170, 229, 1)" stroke-width="2.83"></path><path d="M344.25 76.5 a4.25 4.25 0 1 0 8.5 0 a4.25 4.25 0 1 0 -8.5 0zM327.25 76.5 a4.25 4.25 0 1 0 8.5 0 a4.25 4.25 0 1 0 -8.5 0zM327.25 110.5 a4.25 4.25 0 1 0 8.5 0 a4.25 4.25 0 1 0 -8.5 0z" fill="rgba(138, 170, 229, 1)"></path><path d="M773.5 59.5L790.5 42.5M773.5 93.5L790.5 76.5M773.5 161.5L773.5 144.5L773.5 127.5L773.5 110.5L773.5 93.5L773.5 76.5L773.5 59.5L773.5 42.5" stroke="rgba(138, 170, 229, 1)" stroke-width="2.83"></path><path d="M769.25 42.5 a4.25 4.25 0 1 0 8.5 0 a4.25 4.25 0 1 0 -8.5 0zM786.25 42.5 a4.25 4.25 0 1 0 8.5 0 a4.25 4.25 0 1 0 -8.5 0zM786.25 76.5 a4.25 4.25 0 1 0 8.5 0 a4.25 4.25 0 1 0 -8.5 0z" fill="rgba(138, 170, 229, 1)"></path><path d="M790.5 127.5L807.5 110.5M790.5 161.5L790.5 144.5L790.5 127.5L790.5 110.5" stroke="rgba(73, 136, 253, 1)" stroke-width="2.83"></path><path d="M786.25 110.5 a4.25 4.25 0 1 0 8.5 0 a4.25 4.25 0 1 0 -8.5 0zM803.25 110.5 a4.25 4.25 0 1 0 8.5 0 a4.25 4.25 0 1 0 -8.5 0z" fill="rgba(73, 136, 253, 1)"></path><path d="M297.5 127.5L314.5 110.5M297.5 144.5L314.5 127.5M297.5 161.5L297.5 144.5L297.5 127.5L297.5 110.5L297.5 93.5" stroke="rgba(138, 170, 229, 1)" stroke-width="2.83"></path><path d="M293.25 93.5 a4.25 4.25 0 1 0 8.5 0 a4.25 4.25 0 1 0 -8.5 0zM310.25 110.5 a4.25 4.25 0 1 0 8.5 0 a4.25 4.25 0 1 0 -8.5 0zM310.25 127.5 a4.25 4.25 0 1 0 8.5 0 a4.25 4.25 0 1 0 -8.5 0z" fill="rgba(138, 170, 229, 1)"></path><path d="M824.5 161.5L824.5 144.5" stroke="rgba(138, 170, 229, 1)" stroke-width="2.83"></path><path d="M820.25 144.5 a4.25 4.25 0 1 0 8.5 0 a4.25 4.25 0 1 0 -8.5 0z" fill="rgba(138, 170, 229, 1)"></path><path d="M280.5 110.5L263.5 93.5L263.5 76.5L263.5 59.5L263.5 42.5M280.5 76.5L297.5 59.5L297.5 42.5M280.5 127.5L263.5 110.5L246.5 93.5L246.5 76.5M280.5 161.5L280.5 144.5L280.5 127.5L280.5 110.5L280.5 93.5L280.5 76.5L280.5 59.5L280.5 42.5" stroke="rgba(138, 170, 229, 1)" stroke-width="2.83"></path><path d="M276.25 42.5 a4.25 4.25 0 1 0 8.5 0 a4.25 4.25 0 1 0 -8.5 0zM259.25 42.5 a4.25 4.25 0 1 0 8.5 0 a4.25 4.25 0 1 0 -8.5 0zM293.25 42.5 a4.25 4.25 0 1 0 8.5 0 a4.25 4.25 0 1 0 -8.5 0zM242.25 76.5 a4.25 4.25 0 1 0 8.5 0 a4.25 4.25 0 1 0 -8.5 0z" fill="rgba(138, 170, 229, 1)"></path></g></g><defs><mask id="SvgjsMask1772"><rect width="1105" height="150" fill="#ffffff"></rect></mask><mask id="SvgjsMask1773"><rect width="1105" height="150" fill="white"></rect><path d="M550.37 93.5 a2.13 2.13 0 1 0 4.26 0 a2.13 2.13 0 1 0 -4.26 0z" fill="black"></path><path d="M516.37 42.5 a2.13 2.13 0 1 0 4.26 0 a2.13 2.13 0 1 0 -4.26 0zM550.37 42.5 a2.13 2.13 0 1 0 4.26 0 a2.13 2.13 0 1 0 -4.26 0zM533.37 42.5 a2.13 2.13 0 1 0 4.26 0 a2.13 2.13 0 1 0 -4.26 0zM499.37 42.5 a2.13 2.13 0 1 0 4.26 0 a2.13 2.13 0 1 0 -4.26 0z" fill="black"></path><path d="M584.37 59.5 a2.13 2.13 0 1 0 4.26 0 a2.13 2.13 0 1 0 -4.26 0zM567.37 42.5 a2.13 2.13 0 1 0 4.26 0 a2.13 2.13 0 1 0 -4.26 0zM601.37 76.5 a2.13 2.13 0 1 0 4.26 0 a2.13 2.13 0 1 0 -4.26 0zM567.37 127.5 a2.13 2.13 0 1 0 4.26 0 a2.13 2.13 0 1 0 -4.26 0z" fill="black"></path><path d="M516.37 110.5 a2.13 2.13 0 1 0 4.26 0 a2.13 2.13 0 1 0 -4.26 0zM499.37 110.5 a2.13 2.13 0 1 0 4.26 0 a2.13 2.13 0 1 0 -4.26 0z" fill="black"></path><path d="M635.37 110.5 a2.13 2.13 0 1 0 4.26 0 a2.13 2.13 0 1 0 -4.26 0zM601.37 59.5 a2.13 2.13 0 1 0 4.26 0 a2.13 2.13 0 1 0 -4.26 0zM601.37 127.5 a2.13 2.13 0 1 0 4.26 0 a2.13 2.13 0 1 0 -4.26 0z" fill="black"></path><path d="M499.37 144.5 a2.13 2.13 0 1 0 4.26 0 a2.13 2.13 0 1 0 -4.26 0z" fill="black"></path><path d="M686.37 76.5 a2.13 2.13 0 1 0 4.26 0 a2.13 2.13 0 1 0 -4.26 0zM669.37 42.5 a2.13 2.13 0 1 0 4.26 0 a2.13 2.13 0 1 0 -4.26 0z" fill="black"></path><path d="M465.37 42.5 a2.13 2.13 0 1 0 4.26 0 a2.13 2.13 0 1 0 -4.26 0zM448.37 42.5 a2.13 2.13 0 1 0 4.26 0 a2.13 2.13 0 1 0 -4.26 0zM482.37 76.5 a2.13 2.13 0 1 0 4.26 0 a2.13 2.13 0 1 0 -4.26 0zM482.37 93.5 a2.13 2.13 0 1 0 4.26 0 a2.13 2.13 0 1 0 -4.26 0z" fill="black"></path><path d="M635.37 144.5 a2.13 2.13 0 1 0 4.26 0 a2.13 2.13 0 1 0 -4.26 0z" fill="black"></path><path d="M448.37 93.5 a2.13 2.13 0 1 0 4.26 0 a2.13 2.13 0 1 0 -4.26 0z" fill="black"></path><path d="M669.37 127.5 a2.13 2.13 0 1 0 4.26 0 a2.13 2.13 0 1 0 -4.26 0zM652.37 127.5 a2.13 2.13 0 1 0 4.26 0 a2.13 2.13 0 1 0 -4.26 0z" fill="black"></path><path d="M431.37 110.5 a2.13 2.13 0 1 0 4.26 0 a2.13 2.13 0 1 0 -4.26 0z" fill="black"></path><path d="M414.37 93.5 a2.13 2.13 0 1 0 4.26 0 a2.13 2.13 0 1 0 -4.26 0z" fill="black"></path><path d="M703.37 59.5 a2.13 2.13 0 1 0 4.26 0 a2.13 2.13 0 1 0 -4.26 0zM720.37 59.5 a2.13 2.13 0 1 0 4.26 0 a2.13 2.13 0 1 0 -4.26 0z" fill="black"></path><path d="M397.37 110.5 a2.13 2.13 0 1 0 4.26 0 a2.13 2.13 0 1 0 -4.26 0zM380.37 76.5 a2.13 2.13 0 1 0 4.26 0 a2.13 2.13 0 1 0 -4.26 0z" fill="black"></path><path d="M703.37 110.5 a2.13 2.13 0 1 0 4.26 0 a2.13 2.13 0 1 0 -4.26 0zM720.37 110.5 a2.13 2.13 0 1 0 4.26 0 a2.13 2.13 0 1 0 -4.26 0z" fill="black"></path><path d="M380.37 144.5 a2.13 2.13 0 1 0 4.26 0 a2.13 2.13 0 1 0 -4.26 0z" fill="black"></path><path d="M737.37 93.5 a2.13 2.13 0 1 0 4.26 0 a2.13 2.13 0 1 0 -4.26 0z" fill="black"></path><path d="M363.37 42.5 a2.13 2.13 0 1 0 4.26 0 a2.13 2.13 0 1 0 -4.26 0z" fill="black"></path><path d="M754.37 76.5 a2.13 2.13 0 1 0 4.26 0 a2.13 2.13 0 1 0 -4.26 0z" fill="black"></path><path d="M346.37 76.5 a2.13 2.13 0 1 0 4.26 0 a2.13 2.13 0 1 0 -4.26 0zM329.37 76.5 a2.13 2.13 0 1 0 4.26 0 a2.13 2.13 0 1 0 -4.26 0zM329.37 110.5 a2.13 2.13 0 1 0 4.26 0 a2.13 2.13 0 1 0 -4.26 0z" fill="black"></path><path d="M771.37 42.5 a2.13 2.13 0 1 0 4.26 0 a2.13 2.13 0 1 0 -4.26 0zM788.37 42.5 a2.13 2.13 0 1 0 4.26 0 a2.13 2.13 0 1 0 -4.26 0zM788.37 76.5 a2.13 2.13 0 1 0 4.26 0 a2.13 2.13 0 1 0 -4.26 0z" fill="black"></path><path d="M788.37 110.5 a2.13 2.13 0 1 0 4.26 0 a2.13 2.13 0 1 0 -4.26 0zM805.37 110.5 a2.13 2.13 0 1 0 4.26 0 a2.13 2.13 0 1 0 -4.26 0z" fill="black"></path><path d="M295.37 93.5 a2.13 2.13 0 1 0 4.26 0 a2.13 2.13 0 1 0 -4.26 0zM312.37 110.5 a2.13 2.13 0 1 0 4.26 0 a2.13 2.13 0 1 0 -4.26 0zM312.37 127.5 a2.13 2.13 0 1 0 4.26 0 a2.13 2.13 0 1 0 -4.26 0z" fill="black"></path><path d="M822.37 144.5 a2.13 2.13 0 1 0 4.26 0 a2.13 2.13 0 1 0 -4.26 0z" fill="black"></path><path d="M278.37 42.5 a2.13 2.13 0 1 0 4.26 0 a2.13 2.13 0 1 0 -4.26 0zM261.37 42.5 a2.13 2.13 0 1 0 4.26 0 a2.13 2.13 0 1 0 -4.26 0zM295.37 42.5 a2.13 2.13 0 1 0 4.26 0 a2.13 2.13 0 1 0 -4.26 0zM244.37 76.5 a2.13 2.13 0 1 0 4.26 0 a2.13 2.13 0 1 0 -4.26 0z" fill="black"></path></mask></defs></svg>