<svg width="2000" height="568" viewBox="0 0 2000 568" fill="none" xmlns="http://www.w3.org/2000/svg">
<g clip-path="url(#clip0)">
<path d="M0 0H2000V568H0V0Z" fill="white"/>
<path d="M595 316.5C590.582 316.5 587 312.918 587 308.5C587 304.082 590.582 300.5 595 300.5C599.418 300.5 603 304.082 603 308.5C603 312.918 599.418 316.5 595 316.5Z" fill="#F5FCFF"/>
<path d="M575 260C579.418 260 583 263.582 583 268C583 272.418 579.418 276 575 276C570.582 276 567 272.418 567 268C567 263.582 570.582 260 575 260Z" fill="#FCFAFF"/>
<path d="M555 280.498C559.418 280.498 563 284.08 563 288.498C563 292.916 559.418 296.498 555 296.498C550.582 296.498 547 292.916 547 288.498C547 284.08 550.582 280.498 555 280.498Z" fill="#F5FCFF"/>
<path d="M595 336C590.582 336 587 332.418 587 328C587 323.582 590.582 320 595 320C599.418 320 603 323.582 603 328C603 332.418 599.418 336 595 336Z" fill="#F5FCFF"/>
<path d="M555 240C559.418 240 563 243.582 563 248C563 252.418 559.418 256 555 256C550.582 256 547 252.418 547 248C547 243.582 550.582 240 555 240Z" fill="#F5FCFF"/>
<path d="M595 280.5C599.418 280.5 603 284.082 603 288.5C603 292.918 599.418 296.5 595 296.5C590.582 296.5 587 292.918 587 288.5C587 284.082 590.582 280.5 595 280.5Z" fill="#FCFAFF"/>
<path d="M495 296.5C490.582 296.5 487 292.918 487 288.5C487 284.082 490.582 280.5 495 280.5C499.418 280.5 503 284.082 503 288.5C503 292.918 499.418 296.5 495 296.5Z" fill="#F5FCFF"/>
<path d="M435 316C430.582 316 427 312.418 427 308C427 303.582 430.582 300 435 300C439.418 300 443 303.582 443 308C443 312.418 439.418 316 435 316Z" fill="#FED038"/>
<path d="M575 336C570.582 336 567 332.418 567 328C567 323.582 570.582 320 575 320C579.418 320 583 323.582 583 328C583 332.418 579.418 336 575 336Z" fill="#FCFAFF"/>
<path d="M495 336C490.582 336 487 332.418 487 328C487 323.582 490.582 320 495 320C499.418 320 503 323.582 503 328C503 332.418 499.418 336 495 336Z" fill="#F6EDFA"/>
<path d="M535 240C539.418 240 543 243.582 543 248C543 252.418 539.418 256 535 256C530.582 256 527 252.418 527 248C527 243.582 530.582 240 535 240Z" fill="#F5FCFF"/>
<path d="M515 340.5C519.418 340.5 523 344.082 523 348.5C523 352.918 519.418 356.5 515 356.5C510.582 356.5 507 352.918 507 348.5C507 344.082 510.582 340.5 515 340.5Z" fill="#DBF0FF"/>
<path d="M495 260.5C499.418 260.5 503 264.082 503 268.5C503 272.918 499.418 276.5 495 276.5C490.582 276.5 487 272.918 487 268.5C487 264.082 490.582 260.5 495 260.5Z" fill="#F5FCFF"/>
<path d="M378 176C378 184.837 370.837 192 362 192C353.163 192 346 184.837 346 176C346 167.163 353.163 160 362 160C370.837 160 378 167.163 378 176Z" fill="#FCFAFF"/>
<path d="M266 296C266 287.163 273.163 280 282 280C290.837 280 298 287.163 298 296C298 304.837 290.837 312 282 312C273.163 312 266 304.837 266 296Z" fill="#F5FCFF"/>
<path d="M337.004 176C337.004 184.837 329.84 192 321.004 192C312.167 192 305.004 184.837 305.004 176C305.004 167.163 312.167 160 321.004 160C329.84 160 337.004 167.163 337.004 176Z" fill="#FCFAFF"/>
<path d="M355 256C355 247.163 362.163 240 371 240C379.837 240 387 247.163 387 256C387 264.837 379.837 272 371 272C362.163 272 355 264.837 355 256Z" fill="#B17ACC"/>
<path d="M418 176C418 184.837 410.837 192 402 192C393.163 192 386 184.837 386 176C386 167.163 393.163 160 402 160C410.837 160 418 167.163 418 176Z" fill="#F5FCFF"/>
<path d="M305 296C305 287.163 312.163 280 321 280C329.837 280 337 287.163 337 296C337 304.837 329.837 312 321 312C312.163 312 305 304.837 305 296Z" fill="#F5FCFF"/>
<path d="M337 256C337 264.837 329.837 272 321 272C312.163 272 305 264.837 305 256C305 247.163 312.163 240 321 240C329.837 240 337 247.163 337 256Z" fill="#FCFAFF"/>
<path d="M666 527C666 535.837 658.837 543 650 543C641.163 543 634 535.837 634 527C634 518.163 641.163 511 650 511C658.837 511 666 518.163 666 527Z" fill="#BCE939"/>
<path d="M266 96C266 87.1634 273.163 80 282 80C290.837 80 298 87.1634 298 96C298 104.837 290.837 112 282 112C273.163 112 266 104.837 266 96Z" fill="#F5FCFF"/>
<path d="M337 336C337 344.837 329.837 352 321 352C312.163 352 305 344.837 305 336C305 327.163 312.163 320 321 320C329.837 320 337 327.163 337 336Z" fill="#FCFAFF"/>
<path d="M266 256C266 247.163 273.163 240 282 240C290.837 240 298 247.163 298 256C298 264.837 290.837 272 282 272C273.163 272 266 264.837 266 256Z" fill="#F5FCFF"/>
<path d="M297 376C297 384.837 289.837 392 281 392C272.163 392 265 384.837 265 376C265 367.163 272.163 360 281 360C289.837 360 297 367.163 297 376Z" fill="#FCFAFF"/>
<path d="M457 376C457 384.837 449.837 392 441 392C432.163 392 425 384.837 425 376C425 367.163 432.163 360 441 360C449.837 360 457 367.163 457 376Z" fill="#F5FCFF"/>
<path d="M418 136C418 144.837 410.837 152 402 152C393.163 152 386 144.837 386 136C386 127.163 393.163 120 402 120C410.837 120 418 127.163 418 136Z" fill="#F5FCFF"/>
<path d="M180 280C180 271.163 187.163 264 196 264C204.837 264 212 271.163 212 280C212 288.837 204.837 296 196 296C187.163 296 180 288.837 180 280Z" fill="#DBF0FF"/>
<path d="M377 56C377 64.8366 369.837 72 361 72C352.163 72 345 64.8366 345 56C345 47.1634 352.163 40 361 40C369.837 40 377 47.1634 377 56Z" fill="#F5FCFF"/>
<path d="M406.5 451C406.5 446.582 410.082 443 414.5 443C418.918 443 422.5 446.582 422.5 451C422.5 455.418 418.918 459 414.5 459C410.082 459 406.5 455.418 406.5 451Z" fill="#F5FCFF"/>
<path d="M502.5 431C502.5 435.418 498.918 439 494.5 439C490.082 439 486.5 435.418 486.5 431C486.5 426.582 490.082 423 494.5 423C498.918 423 502.5 426.582 502.5 431Z" fill="#FCFAFF"/>
<path d="M446.5 471C446.5 466.582 450.082 463 454.5 463C458.918 463 462.5 466.582 462.5 471C462.5 475.418 458.918 479 454.5 479C450.082 479 446.5 475.418 446.5 471Z" fill="#F5FCFF"/>
<path d="M462.502 411C462.502 415.418 458.92 419 454.502 419C450.084 419 446.502 415.418 446.502 411C446.502 406.582 450.084 403 454.502 403C458.92 403 462.502 406.582 462.502 411Z" fill="#DBF0FF"/>
<path d="M386.5 471C386.5 466.582 390.082 463 394.5 463C398.918 463 402.5 466.582 402.5 471C402.5 475.418 398.918 479 394.5 479C390.082 479 386.5 475.418 386.5 471Z" fill="#FCFAFF"/>
<path d="M446.5 491C446.5 486.582 450.082 483 454.5 483C458.918 483 462.5 486.582 462.5 491C462.5 495.418 458.918 499 454.5 499C450.082 499 446.5 495.418 446.5 491Z" fill="#FCFAFF"/>
<path d="M542.5 410.5C542.5 414.918 538.918 418.5 534.5 418.5C530.082 418.5 526.5 414.918 526.5 410.5C526.5 406.082 530.082 402.5 534.5 402.5C538.918 402.5 542.5 406.082 542.5 410.5Z" fill="#FCFAFF"/>
<path d="M426.5 288C426.5 283.582 430.082 280 434.5 280C438.918 280 442.5 283.582 442.5 288C442.5 292.418 438.918 296 434.5 296C430.082 296 426.5 292.418 426.5 288Z" fill="#F5FCFF"/>
<path d="M522.502 531C522.502 535.418 518.92 539 514.502 539C510.084 539 506.502 535.418 506.502 531C506.502 526.582 510.084 523 514.502 523C518.92 523 522.502 526.582 522.502 531Z" fill="#F5FCFF"/>
<path d="M546.5 390.5C546.5 386.082 550.082 382.5 554.5 382.5C558.918 382.5 562.5 386.082 562.5 390.5C562.5 394.918 558.918 398.5 554.5 398.5C550.082 398.5 546.5 394.918 546.5 390.5Z" fill="#F5FCFF"/>
<path d="M502.502 491C502.502 495.418 498.92 499 494.502 499C490.084 499 486.502 495.418 486.502 491C486.502 486.582 490.084 483 494.502 483C498.92 483 502.502 486.582 502.502 491Z" fill="#F5FCFF"/>
<path d="M446.5 348C446.5 343.582 450.082 340 454.5 340C458.918 340 462.5 343.582 462.5 348C462.5 352.418 458.918 356 454.5 356C450.082 356 446.5 352.418 446.5 348Z" fill="#FCFAFF"/>
<path d="M502.502 511C502.502 515.418 498.92 519 494.502 519C490.084 519 486.502 515.418 486.502 511C486.502 506.582 490.084 503 494.502 503C498.92 503 502.502 506.582 502.502 511Z" fill="#F5FCFF"/>
<path d="M426.5 348C426.5 343.582 430.082 340 434.5 340C438.918 340 442.5 343.582 442.5 348C442.5 352.418 438.918 356 434.5 356C430.082 356 426.5 352.418 426.5 348Z" fill="#FCFAFF"/>
<path d="M522.502 511C522.502 515.418 518.92 519 514.502 519C510.084 519 506.502 515.418 506.502 511C506.502 506.582 510.084 503 514.502 503C518.92 503 522.502 506.582 522.502 511Z" fill="#FCFAFF"/>
<path d="M386.5 491C386.5 486.582 390.082 483 394.5 483C398.918 483 402.5 486.582 402.5 491C402.5 495.418 398.918 499 394.5 499C390.082 499 386.5 495.418 386.5 491Z" fill="#F5FCFF"/>
<path d="M522.5 391C522.5 395.418 518.918 399 514.5 399C510.082 399 506.5 395.418 506.5 391C506.5 386.582 510.082 383 514.5 383C518.918 383 522.5 386.582 522.5 391Z" fill="#F5FCFF"/>
<path d="M403.5 511C403.5 506.582 407.082 503 411.5 503C415.918 503 419.5 506.582 419.5 511C419.5 515.418 415.918 519 411.5 519C407.082 519 403.5 515.418 403.5 511Z" fill="#F5FCFF"/>
<path d="M502 371C502 375.418 498.418 379 494 379C489.582 379 486 375.418 486 371C486 366.582 489.582 363 494 363C498.418 363 502 366.582 502 371Z" fill="#F5FCFF"/>
<path d="M403.5 531C403.5 526.582 407.082 523 411.5 523C415.918 523 419.5 526.582 419.5 531C419.5 535.418 415.918 539 411.5 539C407.082 539 403.5 535.418 403.5 531Z" fill="#FCFAFF"/>
<path d="M502.002 351C502.002 355.418 498.42 359 494.002 359C489.584 359 486.002 355.418 486.002 351C486.002 346.582 489.584 343 494.002 343C498.42 343 502.002 346.582 502.002 351Z" fill="#FCFAFF"/>
<path d="M603 121.25C607.418 121.25 611 124.832 611 129.25C611 133.668 607.418 137.25 603 137.25C598.582 137.25 595 133.668 595 129.25C595 124.832 598.582 121.25 603 121.25Z" fill="#FCFAFF"/>
<path d="M643 177.25C638.582 177.25 635 173.668 635 169.25C635 164.832 638.582 161.25 643 161.25C647.418 161.25 651 164.832 651 169.25C651 173.668 647.418 177.25 643 177.25Z" fill="#DBF0FF"/>
<path d="M583 161.248C587.418 161.248 591 164.83 591 169.248C591 173.666 587.418 177.248 583 177.248C578.582 177.248 575 173.666 575 169.248C575 164.83 578.582 161.248 583 161.248Z" fill="#FCFAFF"/>
<path d="M643 237.25C638.582 237.25 635 233.668 635 229.25C635 224.832 638.582 221.25 643 221.25C647.418 221.25 651 224.832 651 229.25C651 233.668 647.418 237.25 643 237.25Z" fill="#FCFAFF"/>
<path d="M583 101.25C587.418 101.25 591 104.832 591 109.25C591 113.668 587.418 117.25 583 117.25C578.582 117.25 575 113.668 575 109.25C575 104.832 578.582 101.25 583 101.25Z" fill="#FCFAFF"/>
<path d="M663 177.25C658.582 177.25 655 173.668 655 169.25C655 164.832 658.582 161.25 663 161.25C667.418 161.25 671 164.832 671 169.25C671 173.668 667.418 177.25 663 177.25Z" fill="#FCFAFF"/>
<path d="M563 181.25C567.418 181.25 571 184.832 571 189.25C571 193.668 567.418 197.25 563 197.25C558.582 197.25 555 193.668 555 189.25C555 184.832 558.582 181.25 563 181.25Z" fill="#FFFAFD"/>
<path d="M503 197.25C498.582 197.25 495 193.668 495 189.25C495 184.832 498.582 181.25 503 181.25C507.418 181.25 511 184.832 511 189.25C511 193.668 507.418 197.25 503 197.25Z" fill="#FCFAFF"/>
<path d="M703 101.248C707.418 101.248 711 104.83 711 109.248C711 113.666 707.418 117.248 703 117.248C698.582 117.248 695 113.666 695 109.248C695 104.83 698.582 101.248 703 101.248Z" fill="#FCFAFF"/>
<path d="M543 177.25C538.582 177.25 535 173.668 535 169.25C535 164.832 538.582 161.25 543 161.25C547.418 161.25 551 164.832 551 169.25C551 173.668 547.418 177.25 543 177.25Z" fill="#F67300"/>
<path d="M663 121.248C667.418 121.248 671 124.83 671 129.248C671 133.666 667.418 137.248 663 137.248C658.582 137.248 655 133.666 655 129.248C655 124.83 658.582 121.248 663 121.248Z" fill="#FCFAFF"/>
<path d="M523 177.25C518.582 177.25 515 173.668 515 169.25C515 164.832 518.582 161.25 523 161.25C527.419 161.25 531 164.832 531 169.25C531 173.668 527.419 177.25 523 177.25Z" fill="#FCFAFF"/>
<path d="M683 121.248C687.418 121.248 691 124.83 691 129.248C691 133.666 687.418 137.248 683 137.248C678.582 137.248 675 133.666 675 129.248C675 124.83 678.582 121.248 683 121.248Z" fill="#FCFAFF"/>
<path d="M523 197.25C518.582 197.25 515 193.668 515 189.25C515 184.832 518.582 181.25 523 181.25C527.418 181.25 531 184.832 531 189.25C531 193.668 527.418 197.25 523 197.25Z" fill="#DBF0FF"/>
<path d="M683 101.248C687.418 101.248 691 104.83 691 109.248C691 113.666 687.418 117.248 683 117.248C678.582 117.248 675 113.666 675 109.248C675 104.83 678.582 101.248 683 101.248Z" fill="#FCFAFF"/>
<path d="M663 237.25C658.582 237.25 655 233.668 655 229.25C655 224.832 658.582 221.25 663 221.25C667.418 221.25 671 224.832 671 229.25C671 233.668 667.418 237.25 663 237.25Z" fill="#F6EDFA"/>
<path d="M563 101.25C567.418 101.25 571 104.832 571 109.25C571 113.668 567.418 117.25 563 117.25C558.582 117.25 555 113.668 555 109.25C555 104.832 558.582 101.25 563 101.25Z" fill="#FCFAFF"/>
<path d="M683 220.25C678.582 220.25 675 216.668 675 212.25C675 207.832 678.582 204.25 683 204.25C687.418 204.25 691 207.832 691 212.25C691 216.668 687.418 220.25 683 220.25Z" fill="#FCFAFF"/>
<path d="M543 121.75C547.418 121.75 551 125.332 551 129.75C551 134.168 547.418 137.75 543 137.75C538.582 137.75 535 134.168 535 129.75C535 125.332 538.582 121.75 543 121.75Z" fill="#FCFAFF"/>
<path d="M703 220.25C698.582 220.25 695 216.668 695 212.25C695 207.832 698.582 204.25 703 204.25C707.418 204.25 711 207.832 711 212.25C711 216.668 707.418 220.25 703 220.25Z" fill="#FCFAFF"/>
<path d="M523 121.748C527.418 121.748 531 125.33 531 129.748C531 134.166 527.418 137.748 523 137.748C518.582 137.748 515 134.166 515 129.748C515 125.33 518.582 121.748 523 121.748Z" fill="#FCFAFF"/>
<path d="M591 148.75C591 153.168 587.418 156.75 583 156.75C578.582 156.75 575 153.168 575 148.75C575 144.332 578.582 140.75 583 140.75C587.418 140.75 591 144.332 591 148.75Z" fill="#F5FCFF"/>
<path d="M571.5 148.75C571.5 153.168 567.918 156.75 563.5 156.75C559.082 156.75 555.5 153.168 555.5 148.75C555.5 144.332 559.082 140.75 563.5 140.75C567.918 140.75 571.5 144.332 571.5 148.75Z" fill="#FCFAFF"/>
<path d="M555.5 128.75C555.5 124.332 559.082 120.75 563.5 120.75C567.918 120.75 571.5 124.332 571.5 128.75C571.5 133.168 567.918 136.75 563.5 136.75C559.082 136.75 555.5 133.168 555.5 128.75Z" fill="#F5FCFF"/>
<path d="M495.5 108.75C495.5 104.332 499.082 100.75 503.5 100.75C507.919 100.75 511.5 104.332 511.5 108.75C511.5 113.168 507.919 116.75 503.5 116.75C499.082 116.75 495.5 113.168 495.5 108.75Z" fill="#FCFAFF"/>
<path d="M634 108.75C634 113.168 630.418 116.75 626 116.75C621.582 116.75 618 113.168 618 108.75C618 104.332 621.582 100.75 626 100.75C630.418 100.75 634 104.332 634 108.75Z" fill="#F5FCFF"/>
<path d="M941.13 413.549C944.652 416.216 945.345 421.234 942.677 424.756C940.01 428.278 934.992 428.971 931.47 426.303C927.948 423.636 927.255 418.618 929.923 415.096C932.591 411.574 937.608 410.881 941.13 413.549Z" fill="#FCFAFF"/>
<path d="M939.206 482.34C935.684 479.673 934.991 474.655 937.658 471.133C940.326 467.611 945.344 466.918 948.866 469.586C952.388 472.253 953.081 477.271 950.413 480.793C947.745 484.315 942.728 485.008 939.206 482.34Z" fill="#DBF0FF"/>
<path d="M901.038 433.358C904.56 436.026 905.252 441.044 902.585 444.566C899.917 448.088 894.899 448.78 891.377 446.113C887.855 443.445 887.163 438.428 889.83 434.905C892.498 431.383 897.516 430.691 901.038 433.358Z" fill="#FCFAFF"/>
<path d="M902.98 530.17C899.457 527.502 898.765 522.485 901.432 518.963C904.1 515.44 909.118 514.748 912.64 517.415C916.162 520.083 916.855 525.101 914.187 528.623C911.519 532.145 906.502 532.838 902.98 530.17Z" fill="#FCFAFF"/>
<path d="M937.263 385.53C940.785 388.198 941.477 393.216 938.81 396.738C936.142 400.26 931.124 400.952 927.602 398.285C924.08 395.617 923.388 390.599 926.055 387.077C928.723 383.555 933.741 382.863 937.263 385.53Z" fill="#FCFAFF"/>
<path d="M955.149 494.416C951.627 491.748 950.934 486.731 953.602 483.209C956.269 479.687 961.287 478.994 964.809 481.662C968.331 484.329 969.024 489.347 966.356 492.869C963.689 496.391 958.671 497.084 955.149 494.416Z" fill="#FCFAFF"/>
<path d="M873.018 437.227C876.54 439.895 877.233 444.913 874.565 448.435C871.898 451.957 866.88 452.65 863.358 449.982C859.836 447.314 859.143 442.297 861.811 438.775C864.478 435.253 869.496 434.56 873.018 437.227Z" fill="#FFFAFD"/>
<path d="M815.528 413.756C812.006 411.088 811.313 406.071 813.981 402.548C816.648 399.026 821.666 398.334 825.188 401.001C828.71 403.669 829.403 408.687 826.735 412.209C824.068 415.731 819.05 416.424 815.528 413.756Z" fill="#FCFAFF"/>
<path d="M1032.92 457.981C1036.45 460.649 1037.14 465.666 1034.47 469.188C1031.8 472.71 1026.79 473.403 1023.26 470.735C1019.74 468.068 1019.05 463.05 1021.72 459.528C1024.38 456.006 1029.4 455.313 1032.92 457.981Z" fill="#FCFAFF"/>
<path d="M988.961 449.773C992.483 452.441 993.176 457.459 990.509 460.981C987.841 464.503 982.823 465.196 979.301 462.528C975.779 459.86 975.086 454.843 977.754 451.32C980.422 447.798 985.439 447.106 988.961 449.773Z" fill="#FCFAFF"/>
<path d="M843.547 409.888C840.025 407.221 839.332 402.203 842 398.681C844.667 395.159 849.685 394.466 853.207 397.134C856.729 399.801 857.422 404.819 854.754 408.341C852.087 411.863 847.069 412.556 843.547 409.888Z" fill="#FCFAFF"/>
<path d="M1004.9 461.849C1008.43 464.517 1009.12 469.534 1006.45 473.056C1003.78 476.579 998.766 477.271 995.244 474.604C991.722 471.936 991.029 466.918 993.697 463.396C996.364 459.874 1001.38 459.181 1004.9 461.849Z" fill="#FCFAFF"/>
<path d="M831.471 425.831C827.949 423.163 827.256 418.146 829.924 414.624C832.592 411.102 837.609 410.409 841.132 413.077C844.654 415.744 845.346 420.762 842.679 424.284C840.011 427.806 834.993 428.499 831.471 425.831Z" fill="#DBF0FF"/>
<path d="M1016.98 445.906C1020.5 448.573 1021.19 453.591 1018.53 457.113C1015.86 460.635 1010.84 461.328 1007.32 458.66C1003.8 455.993 1003.1 450.975 1005.77 447.453C1008.44 443.931 1013.46 443.238 1016.98 445.906Z" fill="#FCFAFF"/>
<path d="M918.923 542.246C915.401 539.578 914.708 534.56 917.376 531.038C920.043 527.516 925.061 526.824 928.583 529.491C932.105 532.159 932.798 537.176 930.13 540.699C927.463 544.221 922.445 544.913 918.923 542.246Z" fill="#F6EDFA"/>
<path d="M921.32 373.455C924.842 376.123 925.535 381.14 922.867 384.662C920.199 388.185 915.182 388.877 911.659 386.21C908.137 383.542 907.445 378.524 910.112 375.002C912.78 371.48 917.798 370.787 921.32 373.455Z" fill="#FCFAFF"/>
<path d="M945.13 540.769C941.608 538.101 940.915 533.084 943.583 529.562C946.25 526.04 951.268 525.347 954.79 528.015C958.312 530.682 959.005 535.7 956.337 539.222C953.67 542.744 948.652 543.437 945.13 540.769Z" fill="#FCFAFF"/>
<path d="M892.999 377.721C896.521 380.389 897.214 385.406 894.546 388.929C891.878 392.451 886.861 393.143 883.339 390.476C879.817 387.808 879.124 382.79 881.792 379.268C884.459 375.746 889.477 375.054 892.999 377.721Z" fill="#FCFAFF"/>
<path d="M961.073 552.845C957.551 550.177 956.859 545.159 959.526 541.637C962.194 538.115 967.212 537.423 970.734 540.09C974.256 542.758 974.948 547.776 972.281 551.298C969.613 554.82 964.595 555.512 961.073 552.845Z" fill="#FCFAFF"/>
<path d="M877.057 365.644C880.579 368.312 881.272 373.33 878.604 376.852C875.937 380.374 870.919 381.067 867.397 378.399C863.875 375.731 863.182 370.714 865.85 367.192C868.517 363.67 873.535 362.977 877.057 365.644Z" fill="#FCFAFF"/>
<path d="M914.961 428.226C912.293 431.748 907.276 432.44 903.754 429.773C900.232 427.105 899.539 422.087 902.206 418.565C904.874 415.043 909.892 414.351 913.414 417.018C916.936 419.686 917.629 424.704 914.961 428.226Z" fill="#F5FCFF"/>
<path d="M899.417 416.452C896.749 419.974 891.731 420.667 888.209 417.999C884.687 415.332 883.994 410.314 886.662 406.792C889.33 403.27 894.347 402.577 897.869 405.245C901.392 407.912 902.084 412.93 899.417 416.452Z" fill="#FCFAFF"/>
<path d="M898.737 390.849C901.405 387.327 906.423 386.634 909.945 389.302C913.467 391.969 914.159 396.987 911.492 400.509C908.824 404.031 903.806 404.724 900.284 402.056C896.762 399.388 896.07 394.371 898.737 390.849Z" fill="#F5FCFF"/>
<path d="M862.983 338.679C865.651 335.157 870.669 334.464 874.191 337.132C877.713 339.8 878.405 344.817 875.738 348.34C873.07 351.862 868.053 352.554 864.53 349.887C861.008 347.219 860.316 342.201 862.983 338.679Z" fill="#FCFAFF"/>
<path d="M973.39 422.301C970.722 425.823 965.704 426.516 962.182 423.848C958.66 421.181 957.968 416.163 960.635 412.641C963.303 409.119 968.321 408.426 971.843 411.094C975.365 413.761 976.057 418.779 973.39 422.301Z" fill="#F5FCFF"/>
<path d="M574.5 466C578.918 466 582.5 469.582 582.5 474C582.5 478.418 578.918 482 574.5 482C570.082 482 566.5 478.418 566.5 474C566.5 469.582 570.082 466 574.5 466Z" fill="#F5FCFF"/>
<path d="M554.5 506C558.918 506 562.5 509.582 562.5 514C562.5 518.418 558.918 522 554.5 522C550.082 522 546.5 518.418 546.5 514C546.5 509.582 550.082 506 554.5 506Z" fill="#F5FCFF"/>
<path d="M614.5 522.002C610.082 522.002 606.5 518.42 606.5 514.002C606.5 509.584 610.082 506.002 614.5 506.002C618.918 506.002 622.5 509.584 622.5 514.002C622.5 518.42 618.918 522.002 614.5 522.002Z" fill="#FCFAFF"/>
<path d="M554.5 446C558.918 446 562.5 449.582 562.5 454C562.5 458.418 558.918 462 554.5 462C550.082 462 546.5 458.418 546.5 454C546.5 449.582 550.082 446 554.5 446Z" fill="#FCFAFF"/>
<path d="M614.5 582C610.082 582 606.5 578.418 606.5 574C606.5 569.582 610.082 566 614.5 566C618.918 566 622.5 569.582 622.5 574C622.5 578.418 618.918 582 614.5 582Z" fill="#F6EDFA"/>
<path d="M534.5 506C538.918 506 542.5 509.582 542.5 514C542.5 518.418 538.918 522 534.5 522C530.082 522 526.5 518.418 526.5 514C526.5 509.582 530.082 506 534.5 506Z" fill="#DBF0FF"/>
<path d="M634.5 502C630.082 502 626.5 498.418 626.5 494C626.5 489.582 630.082 486 634.5 486C638.918 486 642.5 489.582 642.5 494C642.5 498.418 638.918 502 634.5 502Z" fill="#FCFAFF"/>
<path d="M326 455C330.418 455 334 458.582 334 463C334 467.418 330.418 471 326 471C321.582 471 318 467.418 318 463C318 458.582 321.582 455 326 455Z" fill="#F5FCFF"/>
<path d="M126 551.002C121.582 551.002 118 547.42 118 543.002C118 538.584 121.582 535.002 126 535.002C130.418 535.002 134 538.584 134 543.002C134 547.42 130.418 551.002 126 551.002Z" fill="#F5FCFF"/>
<path d="M286 475C290.418 475 294 478.582 294 483C294 487.418 290.418 491 286 491C281.582 491 278 487.418 278 483C278 478.582 281.582 475 286 475Z" fill="#F5FCFF"/>
<path d="M166 531.002C161.582 531.002 158 527.42 158 523.002C158 518.584 161.582 515.002 166 515.002C170.418 515.002 174 518.584 174 523.002C174 527.42 170.418 531.002 166 531.002Z" fill="#F5FCFF"/>
<path d="M306 475C310.418 475 314 478.582 314 483C314 487.418 310.418 491 306 491C301.582 491 298 487.418 298 483C298 478.582 301.582 475 306 475Z" fill="#F5FCFF"/>
<path d="M514.5 562.002C510.082 562.002 506.5 558.42 506.5 554.002C506.5 549.584 510.082 546.002 514.5 546.002C518.918 546.002 522.5 549.584 522.5 554.002C522.5 558.42 518.918 562.002 514.5 562.002Z" fill="#FCFAFF"/>
<path d="M674.5 486C678.918 486 682.5 489.582 682.5 494C682.5 498.418 678.918 502 674.5 502C670.082 502 666.5 498.418 666.5 494C666.5 489.582 670.082 486 674.5 486Z" fill="#FCFAFF"/>
<path d="M534.5 446C538.918 446 542.5 449.582 542.5 454C542.5 458.418 538.918 462 534.5 462C530.082 462 526.5 458.418 526.5 454C526.5 449.582 530.082 446 534.5 446Z" fill="#F5FCFF"/>
<path d="M634.5 582C630.082 582 626.5 578.418 626.5 574C626.5 569.582 630.082 566 634.5 566C638.918 566 642.5 569.582 642.5 574C642.5 578.418 638.918 582 634.5 582Z" fill="#FCFAFF"/>
<path d="M514.5 463C518.918 463 522.5 466.582 522.5 471C522.5 475.418 518.918 479 514.5 479C510.082 479 506.5 475.418 506.5 471C506.5 466.582 510.082 463 514.5 463Z" fill="#F5FCFF"/>
<path d="M494.5 463C498.918 463 502.5 466.582 502.5 471C502.5 475.418 498.918 479 494.5 479C490.082 479 486.5 475.418 486.5 471C486.5 466.582 490.082 463 494.5 463Z" fill="#F5FCFF"/>
<path d="M674.5 561.502C670.082 561.502 666.5 557.92 666.5 553.502C666.5 549.084 670.082 545.502 674.5 545.502C678.918 545.502 682.5 549.084 682.5 553.502C682.5 557.92 678.918 561.502 674.5 561.502Z" fill="#FCFAFF"/>
<path d="M1369.5 316.5C1373.92 316.5 1377.5 312.918 1377.5 308.5C1377.5 304.082 1373.92 300.5 1369.5 300.5C1365.08 300.5 1361.5 304.082 1361.5 308.5C1361.5 312.918 1365.08 316.5 1369.5 316.5Z" fill="#FFFAFD"/>
<path d="M1389.5 260C1385.08 260 1381.5 263.582 1381.5 268C1381.5 272.418 1385.08 276 1389.5 276C1393.92 276 1397.5 272.418 1397.5 268C1397.5 263.582 1393.92 260 1389.5 260Z" fill="#F5FCFF"/>
<path d="M1349.5 316C1353.92 316 1357.5 312.418 1357.5 308C1357.5 303.582 1353.92 300 1349.5 300C1345.08 300 1341.5 303.582 1341.5 308C1341.5 312.418 1345.08 316 1349.5 316Z" fill="#FFFAFD"/>
<path d="M1409.5 280.498C1405.08 280.498 1401.5 284.08 1401.5 288.498C1401.5 292.916 1405.08 296.498 1409.5 296.498C1413.92 296.498 1417.5 292.916 1417.5 288.498C1417.5 284.08 1413.92 280.498 1409.5 280.498Z" fill="#FFFAFD"/>
<path d="M1369.5 336C1373.92 336 1377.5 332.418 1377.5 328C1377.5 323.582 1373.92 320 1369.5 320C1365.08 320 1361.5 323.582 1361.5 328C1361.5 332.418 1365.08 336 1369.5 336Z" fill="#FFFAFD"/>
<path d="M1409.5 240C1405.08 240 1401.5 243.582 1401.5 248C1401.5 252.418 1405.08 256 1409.5 256C1413.92 256 1417.5 252.418 1417.5 248C1417.5 243.582 1413.92 240 1409.5 240Z" fill="#FFFAFD"/>
<path d="M1349.5 296.5C1353.92 296.5 1357.5 292.918 1357.5 288.5C1357.5 284.082 1353.92 280.5 1349.5 280.5C1345.08 280.5 1341.5 284.082 1341.5 288.5C1341.5 292.918 1345.08 296.5 1349.5 296.5Z" fill="#F5FCFF"/>
<path d="M1369.5 280.5C1365.08 280.5 1361.5 284.082 1361.5 288.5C1361.5 292.918 1365.08 296.5 1369.5 296.5C1373.92 296.5 1377.5 292.918 1377.5 288.5C1377.5 284.082 1373.92 280.5 1369.5 280.5Z" fill="#F5FCFF"/>
<path d="M1469.5 296.5C1473.92 296.5 1477.5 292.918 1477.5 288.5C1477.5 284.082 1473.92 280.5 1469.5 280.5C1465.08 280.5 1461.5 284.082 1461.5 288.5C1461.5 292.918 1465.08 296.5 1469.5 296.5Z" fill="#FFFAFD"/>
<path d="M1449.5 316C1453.92 316 1457.5 312.418 1457.5 308C1457.5 303.582 1453.92 300 1449.5 300C1445.08 300 1441.5 303.582 1441.5 308C1441.5 312.418 1445.08 316 1449.5 316Z" fill="#FFFAFD"/>
<path d="M1329.5 280.5C1325.08 280.5 1321.5 284.082 1321.5 288.5C1321.5 292.918 1325.08 296.5 1329.5 296.5C1333.92 296.5 1337.5 292.918 1337.5 288.5C1337.5 284.082 1333.92 280.5 1329.5 280.5Z" fill="#FFFAFD"/>
<path d="M1389.5 336C1393.92 336 1397.5 332.418 1397.5 328C1397.5 323.582 1393.92 320 1389.5 320C1385.08 320 1381.5 323.582 1381.5 328C1381.5 332.418 1385.08 336 1389.5 336Z" fill="#F6EDFA"/>
<path d="M1469.5 336C1473.92 336 1477.5 332.418 1477.5 328C1477.5 323.582 1473.92 320 1469.5 320C1465.08 320 1461.5 323.582 1461.5 328C1461.5 332.418 1465.08 336 1469.5 336Z" fill="#F5FCFF"/>
<path d="M1309.5 220.5C1305.08 220.5 1301.5 224.082 1301.5 228.5C1301.5 232.918 1305.08 236.5 1309.5 236.5C1313.92 236.5 1317.5 232.918 1317.5 228.5C1317.5 224.082 1313.92 220.5 1309.5 220.5Z" fill="#F5FCFF"/>
<path d="M1429.5 240C1425.08 240 1421.5 243.582 1421.5 248C1421.5 252.418 1425.08 256 1429.5 256C1433.92 256 1437.5 252.418 1437.5 248C1437.5 243.582 1433.92 240 1429.5 240Z" fill="#FFFAFD"/>
<path d="M1309.5 359C1313.92 359 1317.5 355.418 1317.5 351C1317.5 346.582 1313.92 343 1309.5 343C1305.08 343 1301.5 346.582 1301.5 351C1301.5 355.418 1305.08 359 1309.5 359Z" fill="#FFFAFD"/>
<path d="M1449.5 340.5C1445.08 340.5 1441.5 344.082 1441.5 348.5C1441.5 352.918 1445.08 356.5 1449.5 356.5C1453.92 356.5 1457.5 352.918 1457.5 348.5C1457.5 344.082 1453.92 340.5 1449.5 340.5Z" fill="#FFFAFD"/>
<path d="M1469.5 260.5C1465.08 260.5 1461.5 264.082 1461.5 268.5C1461.5 272.918 1465.08 276.5 1469.5 276.5C1473.92 276.5 1477.5 272.918 1477.5 268.5C1477.5 264.082 1473.92 260.5 1469.5 260.5Z" fill="#FFFAFD"/>
<path d="M1654 301C1654 292.163 1646.84 285 1638 285C1629.16 285 1622 292.163 1622 301C1622 309.837 1629.16 317 1638 317C1646.84 317 1654 309.837 1654 301Z" fill="#F6EDFA"/>
<path d="M1541 261C1541 269.837 1548.16 277 1557 277C1565.84 277 1573 269.837 1573 261C1573 252.163 1565.84 245 1557 245C1548.16 245 1541 252.163 1541 261Z" fill="#FCFAFF"/>
<path d="M1653 341C1653 332.163 1645.84 325 1637 325C1628.16 325 1621 332.163 1621 341C1621 349.837 1628.16 357 1637 357C1645.84 357 1653 349.837 1653 341Z" fill="#FCFAFF"/>
<path d="M1582 221C1582 229.837 1589.16 237 1598 237C1606.84 237 1614 229.837 1614 221C1614 212.163 1606.84 205 1598 205C1589.16 205 1582 212.163 1582 221Z" fill="#F5FCFF"/>
<path d="M1693 301C1693 292.163 1685.84 285 1677 285C1668.16 285 1661 292.163 1661 301C1661 309.837 1668.16 317 1677 317C1685.84 317 1693 309.837 1693 301Z" fill="#F5FCFF"/>
<path d="M1501 221C1501 229.837 1508.16 237 1517 237C1525.84 237 1533 229.837 1533 221C1533 212.163 1525.84 205 1517 205C1508.16 205 1501 212.163 1501 221Z" fill="#D459AB"/>
<path d="M1614 341C1614 332.163 1606.84 325 1598 325C1589.16 325 1582 332.163 1582 341C1582 349.837 1589.16 357 1598 357C1606.84 357 1614 349.837 1614 341Z" fill="#FCFAFF"/>
<path d="M1582 301C1582 309.837 1589.16 317 1598 317C1606.84 317 1614 309.837 1614 301C1614 292.163 1606.84 285 1598 285C1589.16 285 1582 292.163 1582 301Z" fill="#FCFAFF"/>
<path d="M1614 101C1614 92.1634 1606.84 85 1598 85C1589.16 85 1582 92.1634 1582 101C1582 109.837 1589.16 117 1598 117C1606.84 117 1614 109.837 1614 101Z" fill="#FCFAFF"/>
<path d="M1542 461C1542 469.837 1549.16 477 1558 477C1566.84 477 1574 469.837 1574 461C1574 452.163 1566.84 445 1558 445C1549.16 445 1542 452.163 1542 461Z" fill="#F5FCFF"/>
<path d="M1653 141C1653 132.163 1645.84 125 1637 125C1628.16 125 1621 132.163 1621 141C1621 149.837 1628.16 157 1637 157C1645.84 157 1653 149.837 1653 141Z" fill="#FCFAFF"/>
<path d="M1582 381C1582 389.837 1589.16 397 1598 397C1606.84 397 1614 389.837 1614 381C1614 372.163 1606.84 365 1598 365C1589.16 365 1582 372.163 1582 381Z" fill="#F5FCFF"/>
<path d="M1693 261C1693 252.163 1685.84 245 1677 245C1668.16 245 1661 252.163 1661 261C1661 269.837 1668.16 277 1677 277C1685.84 277 1693 269.837 1693 261Z" fill="#FCFAFF"/>
<path d="M1622 421C1622 429.837 1629.16 437 1638 437C1646.84 437 1654 429.837 1654 421C1654 412.163 1646.84 405 1638 405C1629.16 405 1622 412.163 1622 421Z" fill="#FCFAFF"/>
<path d="M1693 101C1693 92.1634 1685.84 85 1677 85C1668.16 85 1661 92.1634 1661 101C1661 109.837 1668.16 117 1677 117C1685.84 117 1693 109.837 1693 101Z" fill="#FEC21E"/>
<path d="M1501 181C1501 189.837 1508.16 197 1517 197C1525.84 197 1533 189.837 1533 181C1533 172.163 1525.84 165 1517 165C1508.16 165 1501 172.163 1501 181Z" fill="#F5FCFF"/>
<path d="M1739 421C1739 412.163 1731.84 405 1723 405C1714.16 405 1707 412.163 1707 421C1707 429.837 1714.16 437 1723 437C1731.84 437 1739 429.837 1739 421Z" fill="#FCFAFF"/>
<path d="M1702 141C1702 149.837 1709.16 157 1718 157C1726.84 157 1734 149.837 1734 141C1734 132.163 1726.84 125 1718 125C1709.16 125 1702 132.163 1702 141Z" fill="#FCFAFF"/>
<path d="M1739 461C1739 452.163 1731.84 445 1723 445C1714.16 445 1707 452.163 1707 461C1707 469.837 1714.16 477 1723 477C1731.84 477 1739 469.837 1739 461Z" fill="#FCFAFF"/>
<path d="M1542 101C1542 109.837 1549.16 117 1558 117C1566.84 117 1574 109.837 1574 101C1574 92.1634 1566.84 85 1558 85C1549.16 85 1542 92.1634 1542 101Z" fill="#F5FCFF"/>
<path d="M1251 401C1246.58 401 1243 404.582 1243 409C1243 413.418 1246.58 417 1251 417C1255.42 417 1259 413.418 1259 409C1259 404.582 1255.42 401 1251 401Z" fill="#F5FCFF"/>
<path d="M1231 497C1235.42 497 1239 493.418 1239 489C1239 484.582 1235.42 481 1231 481C1226.58 481 1223 484.582 1223 489C1223 493.418 1226.58 497 1231 497Z" fill="#F5FCFF"/>
<path d="M1271 441C1266.58 441 1263 444.582 1263 449C1263 453.418 1266.58 457 1271 457C1275.42 457 1279 453.418 1279 449C1279 444.582 1275.42 441 1271 441Z" fill="#F6EDFA"/>
<path d="M1211 457C1215.42 457 1219 453.418 1219 449C1219 444.582 1215.42 441 1211 441C1206.58 441 1203 444.582 1203 449C1203 453.418 1206.58 457 1211 457Z" fill="#F5FCFF"/>
<path d="M1271 381C1266.58 381 1263 384.582 1263 389C1263 393.418 1266.58 397 1271 397C1275.42 397 1279 393.418 1279 389C1279 384.582 1275.42 381 1271 381Z" fill="#FFFAFD"/>
<path d="M1211 517C1215.42 517 1219 513.418 1219 509C1219 504.582 1215.42 501 1211 501C1206.58 501 1203 504.582 1203 509C1203 513.418 1206.58 517 1211 517Z" fill="#DBF0FF"/>
<path d="M1291 441C1286.58 441 1283 444.582 1283 449C1283 453.418 1286.58 457 1291 457C1295.42 457 1299 453.418 1299 449C1299 444.582 1295.42 441 1291 441Z" fill="#F5FCFF"/>
<path d="M1131 421C1126.58 421 1123 424.582 1123 429C1123 433.418 1126.58 437 1131 437C1135.42 437 1139 433.418 1139 429C1139 424.582 1135.42 421 1131 421Z" fill="#B17ACC"/>
<path d="M1331 517C1335.42 517 1339 513.418 1339 509C1339 504.582 1335.42 501 1331 501C1326.58 501 1323 504.582 1323 509C1323 513.418 1326.58 517 1331 517Z" fill="#F5FCFF"/>
<path d="M1171 441C1166.58 441 1163 444.582 1163 449C1163 453.418 1166.58 457 1171 457C1175.42 457 1179 453.418 1179 449C1179 444.582 1175.42 441 1171 441Z" fill="#F5FCFF"/>
<path d="M1291 497C1295.42 497 1299 493.418 1299 489C1299 484.582 1295.42 481 1291 481C1286.58 481 1283 484.582 1283 489C1283 493.418 1286.58 497 1291 497Z" fill="#2DE3DA"/>
<path d="M1151 441C1146.58 441 1143 444.582 1143 449C1143 453.418 1146.58 457 1151 457C1155.42 457 1159 453.418 1159 449C1159 444.582 1155.42 441 1151 441Z" fill="#DBF0FF"/>
<path d="M1311 497C1315.42 497 1319 493.418 1319 489C1319 484.582 1315.42 481 1311 481C1306.58 481 1303 484.582 1303 489C1303 493.418 1306.58 497 1311 497Z" fill="#F6EDFA"/>
<path d="M1151 421C1146.58 421 1143 424.582 1143 429C1143 433.418 1146.58 437 1151 437C1155.42 437 1159 433.418 1159 429C1159 424.582 1155.42 421 1151 421Z" fill="#F5FCFF"/>
<path d="M1311 517C1315.42 517 1319 513.418 1319 509C1319 504.582 1315.42 501 1311 501C1306.58 501 1303 504.582 1303 509C1303 513.418 1306.58 517 1311 517Z" fill="#F5FCFF"/>
<path d="M1291 381C1286.58 381 1283 384.582 1283 389C1283 393.418 1286.58 397 1291 397C1295.42 397 1299 393.418 1299 389C1299 384.582 1295.42 381 1291 381Z" fill="#F5FCFF"/>
<path d="M1191 517C1195.42 517 1199 513.418 1199 509C1199 504.582 1195.42 501 1191 501C1186.58 501 1183 504.582 1183 509C1183 513.418 1186.58 517 1191 517Z" fill="#F5FCFF"/>
<path d="M1311 398C1306.58 398 1303 401.582 1303 406C1303 410.418 1306.58 414 1311 414C1315.42 414 1319 410.418 1319 406C1319 401.582 1315.42 398 1311 398Z" fill="#F5FCFF"/>
<path d="M1171 496.5C1175.42 496.5 1179 492.918 1179 488.5C1179 484.082 1175.42 480.5 1171 480.5C1166.58 480.5 1163 484.082 1163 488.5C1163 492.918 1166.58 496.5 1171 496.5Z" fill="#F5FCFF"/>
<path d="M1331 398C1326.58 398 1323 401.582 1323 406C1323 410.418 1326.58 414 1331 414C1335.42 414 1339 410.418 1339 406C1339 401.582 1335.42 398 1331 398Z" fill="#F5FCFF"/>
<path d="M1151 496.5C1155.42 496.5 1159 492.918 1159 488.5C1159 484.082 1155.42 480.5 1151 480.5C1146.58 480.5 1143 484.082 1143 488.5C1143 492.918 1146.58 496.5 1151 496.5Z" fill="#F5FCFF"/>
<path d="M1516 473.5C1516 469.082 1512.42 465.5 1508 465.5C1503.58 465.5 1500 469.082 1500 473.5C1500 477.918 1503.58 481.5 1508 481.5C1512.42 481.5 1516 477.918 1516 473.5Z" fill="#F6EDFA"/>
<path d="M1460 433.5C1460 437.918 1463.58 441.5 1468 441.5C1472.42 441.5 1476 437.918 1476 433.5C1476 429.082 1472.42 425.5 1468 425.5C1463.58 425.5 1460 429.082 1460 433.5Z" fill="#FFFAFD"/>
<path d="M1476 493.5C1476 489.082 1472.42 485.5 1468 485.5C1463.58 485.5 1460 489.082 1460 493.5C1460 497.918 1463.58 501.5 1468 501.5C1472.42 501.5 1476 497.918 1476 493.5Z" fill="#FFFAFD"/>
<path d="M1536 493.5C1536 489.082 1532.42 485.5 1528 485.5C1523.58 485.5 1520 489.082 1520 493.5C1520 497.918 1523.58 501.5 1528 501.5C1532.42 501.5 1536 497.918 1536 493.5Z" fill="#FCFAFF"/>
<path d="M1460 413.5C1460 417.918 1463.58 421.5 1468 421.5C1472.42 421.5 1476 417.918 1476 413.5C1476 409.082 1472.42 405.5 1468 405.5C1463.58 405.5 1460 409.082 1460 413.5Z" fill="#F6EDFA"/>
<path d="M1556 494C1556 489.582 1552.42 486 1548 486C1543.58 486 1540 489.582 1540 494C1540 498.418 1543.58 502 1548 502C1552.42 502 1556 498.418 1556 494Z" fill="#F5FCFF"/>
<path d="M1440 573.5C1440 577.918 1443.58 581.5 1448 581.5C1452.42 581.5 1456 577.918 1456 573.5C1456 569.082 1452.42 565.5 1448 565.5C1443.58 565.5 1440 569.082 1440 573.5Z" fill="#FFFAFD"/>
<path d="M1536 373.5C1536 369.082 1532.42 365.5 1528 365.5C1523.58 365.5 1520 369.082 1520 373.5C1520 377.918 1523.58 381.5 1528 381.5C1532.42 381.5 1536 377.918 1536 373.5Z" fill="#F6EDFA"/>
<path d="M1560 514C1560 518.418 1563.58 522 1568 522C1572.42 522 1576 518.418 1576 514C1576 509.582 1572.42 506 1568 506C1563.58 506 1560 509.582 1560 514Z" fill="#FFFAFD"/>
<path d="M1516 413.5C1516 409.082 1512.42 405.5 1508 405.5C1503.58 405.5 1500 409.082 1500 413.5C1500 417.918 1503.58 421.5 1508 421.5C1512.42 421.5 1516 417.918 1516 413.5Z" fill="#FFFAFD"/>
<path d="M1460 553.5C1460 557.918 1463.58 561.5 1468 561.5C1472.42 561.5 1476 557.918 1476 553.5C1476 549.082 1472.42 545.5 1468 545.5C1463.58 545.5 1460 549.082 1460 553.5Z" fill="#FCFAFF"/>
<path d="M1516 393.5C1516 389.082 1512.42 385.5 1508 385.5C1503.58 385.5 1500 389.082 1500 393.5C1500 397.918 1503.58 401.5 1508 401.5C1512.42 401.5 1516 397.918 1516 393.5Z" fill="#FFFAFD"/>
<path d="M1440 553.5C1440 557.918 1443.58 561.5 1448 561.5C1452.42 561.5 1456 557.918 1456 553.5C1456 549.082 1452.42 545.5 1448 545.5C1443.58 545.5 1440 549.082 1440 553.5Z" fill="#FFFAFD"/>
<path d="M1536 393.5C1536 389.082 1532.42 385.5 1528 385.5C1523.58 385.5 1520 389.082 1520 393.5C1520 397.918 1523.58 401.5 1528 401.5C1532.42 401.5 1536 397.918 1536 393.5Z" fill="#DBF0FF"/>
<path d="M1400 413.5C1400 417.918 1403.58 421.5 1408 421.5C1412.42 421.5 1416 417.918 1416 413.5C1416 409.082 1412.42 405.5 1408 405.5C1403.58 405.5 1400 409.082 1400 413.5Z" fill="#FFFAFD"/>
<path d="M1536 513.5C1536 509.082 1532.42 505.5 1528 505.5C1523.58 505.5 1520 509.082 1520 513.5C1520 517.918 1523.58 521.5 1528 521.5C1532.42 521.5 1536 517.918 1536 513.5Z" fill="#FFFAFD"/>
<path d="M1417 393.5C1417 397.918 1420.58 401.5 1425 401.5C1429.42 401.5 1433 397.918 1433 393.5C1433 389.082 1429.42 385.5 1425 385.5C1420.58 385.5 1417 389.082 1417 393.5Z" fill="#FFFAFD"/>
<path d="M1515.5 533.5C1515.5 529.082 1511.92 525.5 1507.5 525.5C1503.08 525.5 1499.5 529.082 1499.5 533.5C1499.5 537.918 1503.08 541.5 1507.5 541.5C1511.92 541.5 1515.5 537.918 1515.5 533.5Z" fill="#F6EDFA"/>
<path d="M1417 373.5C1417 377.918 1420.58 381.5 1425 381.5C1429.42 381.5 1433 377.918 1433 373.5C1433 369.082 1429.42 365.5 1425 365.5C1420.58 365.5 1417 369.082 1417 373.5Z" fill="#F5FCFF"/>
<path d="M1515.5 553.5C1515.5 549.082 1511.92 545.5 1507.5 545.5C1503.08 545.5 1499.5 549.082 1499.5 553.5C1499.5 557.918 1503.08 561.5 1507.5 561.5C1511.92 561.5 1515.5 557.918 1515.5 553.5Z" fill="#FCFAFF"/>
<path d="M1250 143.002C1254.42 143.002 1258 139.42 1258 135.002C1258 130.584 1254.42 127.002 1250 127.002C1245.58 127.002 1242 130.584 1242 135.002C1242 139.42 1245.58 143.002 1250 143.002Z" fill="#FCFAFF"/>
<path d="M1270 47.002C1265.58 47.002 1262 50.5837 1262 55.002C1262 59.4202 1265.58 63.002 1270 63.002C1274.42 63.002 1278 59.4202 1278 55.002C1278 50.5837 1274.42 47.002 1270 47.002Z" fill="#F5FCFF"/>
<path d="M1230 103.002C1234.42 103.002 1238 99.4202 1238 95.002C1238 90.5837 1234.42 87.002 1230 87.002C1225.58 87.002 1222 90.5837 1222 95.002C1222 99.4202 1225.58 103.002 1230 103.002Z" fill="#FF5A54"/>
<path d="M1290 87C1285.58 87 1282 90.5817 1282 95C1282 99.4183 1285.58 103 1290 103C1294.42 103 1298 99.4183 1298 95C1298 90.5817 1294.42 87 1290 87Z" fill="#FCFAFF"/>
<path d="M1230 163.002C1234.42 163.002 1238 159.42 1238 155.002C1238 150.584 1234.42 147.002 1230 147.002C1225.58 147.002 1222 150.584 1222 155.002C1222 159.42 1225.58 163.002 1230 163.002Z" fill="#F5FCFF"/>
<path d="M1290 27.002C1285.58 27.002 1282 30.5837 1282 35.002C1282 39.4202 1285.58 43.002 1290 43.002C1294.42 43.002 1298 39.4202 1298 35.002C1298 30.5837 1294.42 27.002 1290 27.002Z" fill="#F5FCFF"/>
<path d="M1210 103.002C1214.42 103.002 1218 99.4202 1218 95.002C1218 90.5837 1214.42 87.002 1210 87.002C1205.58 87.002 1202 90.5837 1202 95.002C1202 99.4202 1205.58 103.002 1210 103.002Z" fill="#F5FCFF"/>
<path d="M1310 107.002C1305.58 107.002 1302 110.584 1302 115.002C1302 119.42 1305.58 123.002 1310 123.002C1314.42 123.002 1318 119.42 1318 115.002C1318 110.584 1314.42 107.002 1310 107.002Z" fill="#FCFAFF"/>
<path d="M1370 123.002C1374.42 123.002 1378 119.42 1378 115.002C1378 110.584 1374.42 107.002 1370 107.002C1365.58 107.002 1362 110.584 1362 115.002C1362 119.42 1365.58 123.002 1370 123.002Z" fill="#FCFAFF"/>
<path d="M1170 27C1165.58 27 1162 30.5817 1162 35C1162 39.4183 1165.58 43 1170 43C1174.42 43 1178 39.4183 1178 35C1178 30.5817 1174.42 27 1170 27Z" fill="#FCFAFF"/>
<path d="M1330 103.002C1334.42 103.002 1338 99.4202 1338 95.002C1338 90.5837 1334.42 87.002 1330 87.002C1325.58 87.002 1322 90.5837 1322 95.002C1322 99.4202 1325.58 103.002 1330 103.002Z" fill="#FCFAFF"/>
<path d="M1210 47C1205.58 47 1202 50.5817 1202 55C1202 59.4183 1205.58 63 1210 63C1214.42 63 1218 59.4183 1218 55C1218 50.5817 1214.42 47 1210 47Z" fill="#FCFAFF"/>
<path d="M1350 103.002C1354.42 103.002 1358 99.4202 1358 95.002C1358 90.5837 1354.42 87.002 1350 87.002C1345.58 87.002 1342 90.5837 1342 95.002C1342 99.4202 1345.58 103.002 1350 103.002Z" fill="#FCFAFF"/>
<path d="M1190 47C1185.58 47 1182 50.5817 1182 55C1182 59.4183 1185.58 63 1190 63C1194.42 63 1198 59.4183 1198 55C1198 50.5817 1194.42 47 1190 47Z" fill="#FCFAFF"/>
<path d="M1310 27.002C1305.58 27.002 1302 30.5837 1302 35.002C1302 39.4202 1305.58 43.002 1310 43.002C1314.42 43.002 1318 39.4202 1318 35.002C1318 30.5837 1314.42 27.002 1310 27.002Z" fill="#FCFAFF"/>
<path d="M1190 146.002C1194.42 146.002 1198 142.42 1198 138.002C1198 133.584 1194.42 130.002 1190 130.002C1185.58 130.002 1182 133.584 1182 138.002C1182 142.42 1185.58 146.002 1190 146.002Z" fill="#DBF0FF"/>
<path d="M1330 47.502C1325.58 47.502 1322 51.0837 1322 55.502C1322 59.9202 1325.58 63.502 1330 63.502C1334.42 63.502 1338 59.9202 1338 55.502C1338 51.0837 1334.42 47.502 1330 47.502Z" fill="#F5FCFF"/>
<path d="M1170 146.002C1174.42 146.002 1178 142.42 1178 138.002C1178 133.584 1174.42 130.002 1170 130.002C1165.58 130.002 1162 133.584 1162 138.002C1162 142.42 1165.58 146.002 1170 146.002Z" fill="#F5FCFF"/>
<path d="M912.2 123.917C909.076 127.042 909.076 132.107 912.2 135.231C915.325 138.355 920.39 138.355 923.514 135.231C926.638 132.107 926.638 127.042 923.514 123.917C920.39 120.793 915.325 120.793 912.2 123.917Z" fill="#FCFAFF"/>
<path d="M965.94 205.942C969.064 202.817 969.064 197.752 965.94 194.628C962.816 191.504 957.751 191.504 954.627 194.628C951.502 197.752 951.502 202.817 954.627 205.942C957.751 209.066 962.816 209.066 965.94 205.942Z" fill="#F5FCFF"/>
<path d="M923.515 191.801C926.64 188.677 926.64 183.611 923.515 180.487C920.391 177.363 915.326 177.363 912.202 180.487C909.078 183.611 909.078 188.677 912.202 191.801C915.326 194.925 920.391 194.925 923.515 191.801Z" fill="#FCFAFF"/>
<path d="M912.2 95.6327C909.076 98.7569 909.076 103.822 912.2 106.946C915.325 110.071 920.39 110.071 923.514 106.946C926.638 103.822 926.638 98.7569 923.514 95.6327C920.39 92.5085 915.325 92.5085 912.2 95.6327Z" fill="#F5FCFF"/>
<path d="M965.94 234.226C969.064 231.102 969.064 226.036 965.94 222.912C962.816 219.788 957.751 219.788 954.627 222.912C951.502 226.036 951.502 231.102 954.627 234.226C957.751 237.35 962.816 237.35 965.94 234.226Z" fill="#F5FCFF"/>
<path d="M968.769 123.917C965.645 127.042 965.645 132.107 968.769 135.231C971.893 138.355 976.958 138.355 980.082 135.231C983.207 132.107 983.207 127.042 980.082 123.917C976.958 120.793 971.893 120.793 968.769 123.917Z" fill="#F5FCFF"/>
<path d="M895.229 191.799C898.354 188.675 898.354 183.61 895.229 180.486C892.105 177.362 887.04 177.362 883.916 180.486C880.791 183.61 880.791 188.675 883.916 191.799C887.04 194.924 892.105 194.924 895.229 191.799Z" fill="#FCFAFF"/>
<path d="M841.489 222.912C838.365 226.036 838.365 231.102 841.489 234.226C844.614 237.35 849.679 237.35 852.803 234.226C855.927 231.102 855.927 226.036 852.803 222.912C849.679 219.788 844.614 219.788 841.489 222.912Z" fill="#FCFAFF"/>
<path d="M1050.79 149.374C1053.92 146.25 1053.92 141.185 1050.79 138.06C1047.67 134.936 1042.61 134.936 1039.48 138.06C1036.36 141.185 1036.36 146.25 1039.48 149.374C1042.61 152.498 1047.67 152.498 1050.79 149.374Z" fill="#FCFAFF"/>
<path d="M883.916 208.77C880.791 211.894 880.791 216.959 883.916 220.084C887.04 223.208 892.105 223.208 895.229 220.084C898.354 216.959 898.354 211.894 895.229 208.77C892.105 205.646 887.04 205.646 883.916 208.77Z" fill="#FCFAFF"/>
<path d="M1008.37 163.516C1011.49 160.392 1011.49 155.327 1008.37 152.203C1005.24 149.078 1000.18 149.078 997.054 152.203C993.93 155.327 993.93 160.392 997.054 163.516C1000.18 166.64 1005.24 166.64 1008.37 163.516Z" fill="#FCFAFF"/>
<path d="M869.774 222.912C866.649 226.036 866.649 231.102 869.774 234.226C872.898 237.35 877.963 237.35 881.087 234.226C884.211 231.102 884.211 226.036 881.087 222.912C877.963 219.788 872.898 219.788 869.774 222.912Z" fill="#FCFAFF"/>
<path d="M1022.51 149.374C1025.63 146.25 1025.63 141.185 1022.51 138.06C1019.39 134.936 1014.32 134.936 1011.2 138.06C1008.07 141.185 1008.07 146.25 1011.2 149.374C1014.32 152.498 1019.39 152.498 1022.51 149.374Z" fill="#FCFAFF"/>
<path d="M951.798 248.368C954.922 245.244 954.922 240.178 951.798 237.054C948.674 233.93 943.609 233.93 940.484 237.054C937.36 240.178 937.36 245.244 940.484 248.368C943.609 251.492 948.674 251.492 951.798 248.368Z" fill="#FCFAFF"/>
<path d="M952.505 79.3695C949.381 82.4937 949.381 87.559 952.505 90.6832C955.629 93.8074 960.695 93.8074 963.819 90.6832C966.943 87.559 966.943 82.4937 963.819 79.3695C960.695 76.2453 955.629 76.2453 952.505 79.3695Z" fill="#DBF0FF"/>
<path d="M923.161 248.014C926.285 244.89 926.285 239.825 923.161 236.701C920.036 233.576 914.971 233.576 911.847 236.701C908.723 239.825 908.723 244.89 911.847 248.014C914.971 251.138 920.036 251.138 923.161 248.014Z" fill="#F5FCFF"/>
<path d="M966.648 65.2274C963.523 68.3516 963.523 73.4169 966.648 76.5411C969.772 79.6653 974.837 79.6653 977.961 76.5411C981.086 73.4169 981.086 68.3516 977.961 65.2274C974.837 62.1032 969.772 62.1032 966.648 65.2274Z" fill="#F5FCFF"/>
</g>
<defs>
<clipPath id="clip0">
<rect width="2000" height="568" fill="white"/>
</clipPath>
</defs>
</svg>
