<svg width="1440" height="1000" viewBox="0 0 1440 1000" fill="none" xmlns="http://www.w3.org/2000/svg">
<path d="M1440 0H0V1000H1440V0Z" fill="#020D19"/>
<path d="M-66.4307 641.47L58.6393 701.83" stroke="#0C2047" stroke-width="1.5"/>
<path d="M-66.4307 641.47L85.9793 852.6" stroke="#0C2047" stroke-width="1.5"/>
<path d="M-68.0605 808.27L85.9795 852.599" stroke="#0C2047" stroke-width="1.5"/>
<path d="M-68.0605 808.27L58.6395 701.83" stroke="#0C2047" stroke-width="1.5"/>
<path d="M-68.0605 808.27L80.9395 951" stroke="#0C2047" stroke-width="1.5"/>
<path d="M-77.1104 996.41L80.9397 951" stroke="#0C2047" stroke-width="1.5"/>
<path d="M-77.1104 996.41L85.9796 852.6" stroke="#0C2047" stroke-width="1.5"/>
<path d="M-103.15 1142.25L80.9396 951" stroke="#0C2047" stroke-width="1.5"/>
<path d="M58.6396 701.83L85.9797 852.6" stroke="#0C2047" stroke-width="1.5"/>
<path d="M58.6396 701.83L230.93 649.37" stroke="#0C2047" stroke-width="1.5"/>
<path d="M58.6396 701.83L80.9397 951" stroke="#0C2047" stroke-width="1.5"/>
<path d="M85.9795 852.6L80.9395 951" stroke="#0C2047" stroke-width="1.5"/>
<path d="M85.9795 852.6L240.71 1001.41" stroke="#0C2047" stroke-width="1.5"/>
<path d="M108.869 1121.27L80.9395 951" stroke="#0C2047" stroke-width="1.5"/>
<path d="M230.93 649.37L384.19 673.18" stroke="#0C2047" stroke-width="1.5"/>
<path d="M230.93 649.37L338.92 795.72" stroke="#0C2047" stroke-width="1.5"/>
<path d="M230.929 649.37L85.9795 852.6" stroke="#0C2047" stroke-width="1.5"/>
<path d="M230.93 649.37L498.43 637.78" stroke="#0C2047" stroke-width="1.5"/>
<path d="M240.71 1001.41L383.14 944.33" stroke="#0C2047" stroke-width="1.5"/>
<path d="M230.659 1142.45L80.9395 951" stroke="#0C2047" stroke-width="1.5"/>
<path d="M230.659 1142.45L383.139 944.33" stroke="#0C2047" stroke-width="1.5"/>
<path d="M230.659 1142.45L85.9795 852.6" stroke="#0C2047" stroke-width="1.5"/>
<path d="M384.189 673.18L498.429 637.78" stroke="#0C2047" stroke-width="1.5"/>
<path d="M384.19 673.18L338.92 795.72" stroke="#0C2047" stroke-width="1.5"/>
<path d="M338.92 795.72L383.14 944.33" stroke="#0C2047" stroke-width="1.5"/>
<path d="M383.14 944.33L528.34 964.21" stroke="#0C2047" stroke-width="1.5"/>
<path d="M383.14 944.33L345.17 1092.52" stroke="#0C2047" stroke-width="1.5"/>
<path d="M383.14 944.33L524.63 856.99" stroke="#0C2047" stroke-width="1.5"/>
<path d="M548.71 561.07L498.43 637.78" stroke="#0C2047" stroke-width="1.5"/>
<path d="M548.71 561.07L669.02 524.78" stroke="#0C2047" stroke-width="1.5"/>
<path d="M498.43 637.78L678.24 677.87" stroke="#0C2047" stroke-width="1.5"/>
<path d="M498.43 637.78L669.02 524.78" stroke="#0C2047" stroke-width="1.5"/>
<path d="M498.43 637.78L524.63 856.99" stroke="#0C2047" stroke-width="1.5"/>
<path d="M524.63 856.99L528.34 964.21" stroke="#0C2047" stroke-width="1.5"/>
<path d="M524.63 856.99L645.94 970.56" stroke="#0C2047" stroke-width="1.5"/>
<path d="M528.34 964.21L645.94 970.56" stroke="#0C2047" stroke-width="1.5"/>
<path d="M528.34 964.21L560.03 1134.84" stroke="#0C2047" stroke-width="1.5"/>
<path d="M528.34 964.21L653.75 1142.88" stroke="#0C2047" stroke-width="1.5"/>
<path d="M528.34 964.21L345.17 1092.52" stroke="#0C2047" stroke-width="1.5"/>
<path d="M560.029 1134.84L645.939 970.56" stroke="#0C2047" stroke-width="1.5"/>
<path d="M643.83 400.41L669.02 524.78" stroke="#0C2047" stroke-width="1.5"/>
<path d="M643.83 400.41L548.71 561.07" stroke="#0C2047" stroke-width="1.5"/>
<path d="M643.83 400.41L850.02 391.43" stroke="#0C2047" stroke-width="1.5"/>
<path d="M643.83 400.41L797.35 542.81" stroke="#0C2047" stroke-width="1.5"/>
<path d="M643.83 400.41L848.15 222.4" stroke="#0C2047" stroke-width="1.5"/>
<path d="M643.83 400.41L498.43 637.78" stroke="#0C2047" stroke-width="1.5"/>
<path d="M669.02 524.78L797.349 542.81" stroke="#0C2047" stroke-width="1.5"/>
<path d="M669.02 524.78L678.24 677.87" stroke="#0C2047" stroke-width="1.5"/>
<path d="M678.239 677.87L709.459 791.49" stroke="#0C2047" stroke-width="1.5"/>
<path d="M678.239 677.87L793.099 712.1" stroke="#0C2047" stroke-width="1.5"/>
<path d="M678.24 677.87L548.71 561.07" stroke="#0C2047" stroke-width="1.5"/>
<path d="M678.239 677.87L797.349 542.81" stroke="#0C2047" stroke-width="1.5"/>
<path d="M709.46 791.49L793.1 712.1" stroke="#0C2047" stroke-width="1.5"/>
<path d="M709.46 791.49L833.84 825.53" stroke="#0C2047" stroke-width="1.5"/>
<path d="M709.46 791.49L816.46 940.31" stroke="#0C2047" stroke-width="1.5"/>
<path d="M709.459 791.49L645.939 970.56" stroke="#0C2047" stroke-width="1.5"/>
<path d="M709.46 791.49L524.63 856.99" stroke="#0C2047" stroke-width="1.5"/>
<path d="M645.939 970.56L653.749 1142.88" stroke="#0C2047" stroke-width="1.5"/>
<path d="M645.939 970.56L816.459 940.31" stroke="#0C2047" stroke-width="1.5"/>
<path d="M653.75 1142.88L816.46 940.31" stroke="#0C2047" stroke-width="1.5"/>
<path d="M848.149 222.4L964.659 211.99" stroke="#0C2047" stroke-width="1.5"/>
<path d="M848.149 222.4L850.019 391.43" stroke="#0C2047" stroke-width="1.5"/>
<path d="M848.149 222.4L960.359 44.0801" stroke="#0C2047" stroke-width="1.5"/>
<path d="M848.149 222.4L1008.99 382.42" stroke="#0C2047" stroke-width="1.5"/>
<path d="M850.02 391.43L1008.99 382.42" stroke="#0C2047" stroke-width="1.5"/>
<path d="M850.02 391.43L797.35 542.81" stroke="#0C2047" stroke-width="1.5"/>
<path d="M793.1 712.1L833.84 825.53" stroke="#0C2047" stroke-width="1.5"/>
<path d="M833.84 825.53L816.46 940.31" stroke="#0C2047" stroke-width="1.5"/>
<path d="M833.84 825.53L972.32 816.91" stroke="#0C2047" stroke-width="1.5"/>
<path d="M824.16 1152.04L816.46 940.31" stroke="#0C2047" stroke-width="1.5"/>
<path d="M824.159 1152.04L991.279 978.55" stroke="#0C2047" stroke-width="1.5"/>
<path d="M824.159 1152.04L645.939 970.56" stroke="#0C2047" stroke-width="1.5"/>
<path d="M956.159 -59.0605L960.359 44.0795" stroke="#0C2047" stroke-width="1.5"/>
<path d="M956.159 -59.0605L1088.3 70.7794" stroke="#0C2047" stroke-width="1.5"/>
<path d="M956.159 -59.0605L964.659 211.989" stroke="#0C2047" stroke-width="1.5"/>
<path d="M956.159 -59.0605L848.149 222.399" stroke="#0C2047" stroke-width="1.5"/>
<path d="M956.159 -59.0605L1132.53 241.529" stroke="#0C2047" stroke-width="1.5"/>
<path d="M960.359 44.0801L1088.3 70.7801" stroke="#0C2047" stroke-width="1.5"/>
<path d="M960.359 44.0801L964.659 211.99" stroke="#0C2047" stroke-width="1.5"/>
<path d="M960.359 44.0799L1121.86 -60.1201" stroke="#0C2047" stroke-width="1.5"/>
<path d="M960.359 44.0801L1132.53 241.53" stroke="#0C2047" stroke-width="1.5"/>
<path d="M1008.99 382.419L1125.13 367.479" stroke="#0C2047" stroke-width="1.5"/>
<path d="M1008.99 382.42L993.529 520.31" stroke="#0C2047" stroke-width="1.5"/>
<path d="M1008.99 382.42L964.659 211.99" stroke="#0C2047" stroke-width="1.5"/>
<path d="M1008.99 382.42L1132.53 241.53" stroke="#0C2047" stroke-width="1.5"/>
<path d="M1008.99 382.42L1146.37 549.63" stroke="#0C2047" stroke-width="1.5"/>
<path d="M993.529 520.31L1146.37 549.63" stroke="#0C2047" stroke-width="1.5"/>
<path d="M977.129 696.33L972.319 816.91" stroke="#0C2047" stroke-width="1.5"/>
<path d="M977.13 696.33L1121.82 644.31" stroke="#0C2047" stroke-width="1.5"/>
<path d="M972.319 816.91L991.279 978.55" stroke="#0C2047" stroke-width="1.5"/>
<path d="M991.28 978.55L983.88 1087.7" stroke="#0C2047" stroke-width="1.5"/>
<path d="M991.279 978.55L1139.25 1001.09" stroke="#0C2047" stroke-width="1.5"/>
<path d="M991.279 978.55L1108.87 1097.85" stroke="#0C2047" stroke-width="1.5"/>
<path d="M991.28 978.55L816.46 940.31" stroke="#0C2047" stroke-width="1.5"/>
<path d="M991.28 978.55L833.84 825.53" stroke="#0C2047" stroke-width="1.5"/>
<path d="M1121.86 -60.1201L1088.3 70.7799" stroke="#0C2047" stroke-width="1.5"/>
<path d="M1088.3 70.7803L1132.53 241.53" stroke="#0C2047" stroke-width="1.5"/>
<path d="M1132.53 241.53L1125.13 367.48" stroke="#0C2047" stroke-width="1.5"/>
<path d="M1132.53 241.53L964.659 211.99" stroke="#0C2047" stroke-width="1.5"/>
<path d="M1146.37 549.63L1121.82 644.31" stroke="#0C2047" stroke-width="1.5"/>
<path d="M1146.37 549.63L1304.57 557.73" stroke="#0C2047" stroke-width="1.5"/>
<path d="M1135.6 801.47L1277.34 838.57" stroke="#0C2047" stroke-width="1.5"/>
<path d="M1135.6 801.47L1249.37 695.88" stroke="#0C2047" stroke-width="1.5"/>
<path d="M1135.6 801.47L1121.82 644.31" stroke="#0C2047" stroke-width="1.5"/>
<path d="M1135.6 801.47L972.319 816.91" stroke="#0C2047" stroke-width="1.5"/>
<path d="M1306.32 -98.5098L1294.47 60.4402" stroke="#0C2047" stroke-width="1.5"/>
<path d="M1306.32 -98.5098L1406.25 73.9802" stroke="#0C2047" stroke-width="1.5"/>
<path d="M1294.47 60.4395L1406.25 73.9795" stroke="#0C2047" stroke-width="1.5"/>
<path d="M1294.47 60.4395L1305.82 187.649" stroke="#0C2047" stroke-width="1.5"/>
<path d="M1294.47 60.44L1407.68 -47.29" stroke="#0C2047" stroke-width="1.5"/>
<path d="M1305.82 187.65L1420.81 255.67" stroke="#0C2047" stroke-width="1.5"/>
<path d="M1305.82 187.649L1406.25 73.9795" stroke="#0C2047" stroke-width="1.5"/>
<path d="M1305.82 187.65L1132.53 241.53" stroke="#0C2047" stroke-width="1.5"/>
<path d="M1304.57 557.73L1398.82 521.9" stroke="#0C2047" stroke-width="1.5"/>
<path d="M1304.57 557.729L1249.37 695.88" stroke="#0C2047" stroke-width="1.5"/>
<path d="M1304.57 557.729L1431.69 641.24" stroke="#0C2047" stroke-width="1.5"/>
<path d="M1249.37 695.88L1121.82 644.31" stroke="#0C2047" stroke-width="1.5"/>
<path d="M1249.37 695.88L1277.34 838.57" stroke="#0C2047" stroke-width="1.5"/>
<path d="M1249.37 695.88L1146.37 549.63" stroke="#0C2047" stroke-width="1.5"/>
<path d="M1277.34 838.57L1264.45 951.28" stroke="#0C2047" stroke-width="1.5"/>
<path d="M1277.34 838.57L1452.03 801.09" stroke="#0C2047" stroke-width="1.5"/>
<path d="M1277.34 838.57L1439.88 972.08" stroke="#0C2047" stroke-width="1.5"/>
<path d="M1264.45 951.28L1139.25 1001.09" stroke="#0C2047" stroke-width="1.5"/>
<path d="M1264.45 951.28L1254.91 1108.63" stroke="#0C2047" stroke-width="1.5"/>
<path d="M1264.45 951.28L1439.88 972.08" stroke="#0C2047" stroke-width="1.5"/>
<path d="M1264.45 951.28L1135.6 801.47" stroke="#0C2047" stroke-width="1.5"/>
<path d="M1264.45 951.28L1108.87 1097.85" stroke="#0C2047" stroke-width="1.5"/>
<path d="M1406.25 73.98L1407.68 -47.29" stroke="#0C2047" stroke-width="1.5"/>
<path d="M1420.81 255.67L1460.69 390.57" stroke="#0C2047" stroke-width="1.5"/>
<path d="M1420.81 255.67L1565.45 233.77" stroke="#0C2047" stroke-width="1.5"/>
<path d="M1420.81 255.669L1406.25 73.9795" stroke="#0C2047" stroke-width="1.5"/>
<path d="M1460.69 390.57L1398.82 521.9" stroke="#0C2047" stroke-width="1.5"/>
<path d="M1398.82 521.9L1431.69 641.24" stroke="#0C2047" stroke-width="1.5"/>
<path d="M1398.82 521.9L1570.73 558.92" stroke="#0C2047" stroke-width="1.5"/>
<path d="M1431.69 641.24L1452.03 801.09" stroke="#0C2047" stroke-width="1.5"/>
<path d="M1431.69 641.24L1570.73 558.92" stroke="#0C2047" stroke-width="1.5"/>
<path d="M1431.69 641.24L1598.24 664.05" stroke="#0C2047" stroke-width="1.5"/>
<path d="M1431.69 641.24L1249.37 695.88" stroke="#0C2047" stroke-width="1.5"/>
<path d="M1452.03 801.09L1439.88 972.08" stroke="#0C2047" stroke-width="1.5"/>
<path d="M1439.88 972.08L1567.09 1003.74" stroke="#0C2047" stroke-width="1.5"/>
<path d="M1439.88 972.08L1416.48 1126.09" stroke="#0C2047" stroke-width="1.5"/>
<path d="M1416.48 1126.09L1264.45 951.28" stroke="#0C2047" stroke-width="1.5"/>
<path d="M1587.02 -90.5898L1406.25 73.9802" stroke="#0C2047" stroke-width="1.5"/>
<path d="M1600.52 89.5395L1406.25 73.9795" stroke="#0C2047" stroke-width="1.5"/>
<path d="M1600.52 89.54L1407.68 -47.29" stroke="#0C2047" stroke-width="1.5"/>
<path d="M1600.52 89.54L1420.81 255.67" stroke="#0C2047" stroke-width="1.5"/>
<path d="M1598.24 664.05L1398.82 521.9" stroke="#0C2047" stroke-width="1.5"/>
<path d="M58.6396 706.83C61.4011 706.83 63.6396 704.592 63.6396 701.83C63.6396 699.069 61.4011 696.83 58.6396 696.83C55.8782 696.83 53.6396 699.069 53.6396 701.83C53.6396 704.592 55.8782 706.83 58.6396 706.83Z" fill="#0C2047"/>
<path d="M85.9795 857.6C88.7409 857.6 90.9795 855.361 90.9795 852.6C90.9795 849.838 88.7409 847.6 85.9795 847.6C83.2181 847.6 80.9795 849.838 80.9795 852.6C80.9795 855.361 83.2181 857.6 85.9795 857.6Z" fill="#0C2047"/>
<path d="M80.9395 956C83.7009 956 85.9395 953.761 85.9395 951C85.9395 948.239 83.7009 946 80.9395 946C78.178 946 75.9395 948.239 75.9395 951C75.9395 953.761 78.178 956 80.9395 956Z" fill="#0C2047"/>
<path d="M230.93 654.37C233.691 654.37 235.93 652.132 235.93 649.37C235.93 646.609 233.691 644.37 230.93 644.37C228.168 644.37 225.93 646.609 225.93 649.37C225.93 652.132 228.168 654.37 230.93 654.37Z" fill="#0C2047"/>
<path d="M240.71 1006.41C243.471 1006.41 245.71 1004.17 245.71 1001.41C245.71 998.649 243.471 996.41 240.71 996.41C237.949 996.41 235.71 998.649 235.71 1001.41C235.71 1004.17 237.949 1006.41 240.71 1006.41Z" fill="#0C2047"/>
<path d="M384.189 678.18C386.951 678.18 389.189 675.941 389.189 673.18C389.189 670.418 386.951 668.18 384.189 668.18C381.428 668.18 379.189 670.418 379.189 673.18C379.189 675.941 381.428 678.18 384.189 678.18Z" fill="#0C2047"/>
<path d="M338.92 800.72C341.681 800.72 343.92 798.481 343.92 795.72C343.92 792.958 341.681 790.72 338.92 790.72C336.158 790.72 333.92 792.958 333.92 795.72C333.92 798.481 336.158 800.72 338.92 800.72Z" fill="#0C2047"/>
<path d="M383.14 949.33C385.901 949.33 388.14 947.092 388.14 944.33C388.14 941.569 385.901 939.33 383.14 939.33C380.378 939.33 378.14 941.569 378.14 944.33C378.14 947.092 380.378 949.33 383.14 949.33Z" fill="#0C2047"/>
<path d="M548.71 566.07C551.471 566.07 553.71 563.832 553.71 561.07C553.71 558.309 551.471 556.07 548.71 556.07C545.949 556.07 543.71 558.309 543.71 561.07C543.71 563.832 545.949 566.07 548.71 566.07Z" fill="#0C2047"/>
<path d="M498.43 642.78C501.191 642.78 503.43 640.542 503.43 637.78C503.43 635.019 501.191 632.78 498.43 632.78C495.668 632.78 493.43 635.019 493.43 637.78C493.43 640.542 495.668 642.78 498.43 642.78Z" fill="#0C2047"/>
<path d="M524.63 861.99C527.391 861.99 529.63 859.752 529.63 856.99C529.63 854.229 527.391 851.99 524.63 851.99C521.868 851.99 519.63 854.229 519.63 856.99C519.63 859.752 521.868 861.99 524.63 861.99Z" fill="#0C2047"/>
<path d="M528.34 969.21C531.101 969.21 533.34 966.971 533.34 964.21C533.34 961.449 531.101 959.21 528.34 959.21C525.578 959.21 523.34 961.449 523.34 964.21C523.34 966.971 525.578 969.21 528.34 969.21Z" fill="#0C2047"/>
<path d="M643.83 405.41C646.592 405.41 648.83 403.172 648.83 400.41C648.83 397.649 646.592 395.41 643.83 395.41C641.069 395.41 638.83 397.649 638.83 400.41C638.83 403.172 641.069 405.41 643.83 405.41Z" fill="#0C2047"/>
<path d="M669.02 529.78C671.781 529.78 674.02 527.542 674.02 524.78C674.02 522.019 671.781 519.78 669.02 519.78C666.258 519.78 664.02 522.019 664.02 524.78C664.02 527.542 666.258 529.78 669.02 529.78Z" fill="#0C2047"/>
<path d="M678.239 682.87C681.001 682.87 683.239 680.632 683.239 677.87C683.239 675.109 681.001 672.87 678.239 672.87C675.478 672.87 673.239 675.109 673.239 677.87C673.239 680.632 675.478 682.87 678.239 682.87Z" fill="#0C2047"/>
<path d="M709.46 796.49C712.221 796.49 714.46 794.252 714.46 791.49C714.46 788.729 712.221 786.49 709.46 786.49C706.699 786.49 704.46 788.729 704.46 791.49C704.46 794.252 706.699 796.49 709.46 796.49Z" fill="#0C2047"/>
<path d="M645.939 975.56C648.701 975.56 650.939 973.321 650.939 970.56C650.939 967.798 648.701 965.56 645.939 965.56C643.178 965.56 640.939 967.798 640.939 970.56C640.939 973.321 643.178 975.56 645.939 975.56Z" fill="#0C2047"/>
<path d="M848.149 227.4C850.911 227.4 853.149 225.162 853.149 222.4C853.149 219.639 850.911 217.4 848.149 217.4C845.388 217.4 843.149 219.639 843.149 222.4C843.149 225.162 845.388 227.4 848.149 227.4Z" fill="#0C2047"/>
<path d="M850.02 396.43C852.781 396.43 855.02 394.191 855.02 391.43C855.02 388.668 852.781 386.43 850.02 386.43C847.258 386.43 845.02 388.668 845.02 391.43C845.02 394.191 847.258 396.43 850.02 396.43Z" fill="#0C2047"/>
<path d="M797.35 547.81C800.111 547.81 802.35 545.571 802.35 542.81C802.35 540.048 800.111 537.81 797.35 537.81C794.588 537.81 792.35 540.048 792.35 542.81C792.35 545.571 794.588 547.81 797.35 547.81Z" fill="#0C2047"/>
<path d="M793.1 717.1C795.861 717.1 798.1 714.861 798.1 712.1C798.1 709.338 795.861 707.1 793.1 707.1C790.338 707.1 788.1 709.338 788.1 712.1C788.1 714.861 790.338 717.1 793.1 717.1Z" fill="#0C2047"/>
<path d="M833.84 830.53C836.601 830.53 838.84 828.292 838.84 825.53C838.84 822.769 836.601 820.53 833.84 820.53C831.078 820.53 828.84 822.769 828.84 825.53C828.84 828.292 831.078 830.53 833.84 830.53Z" fill="#0C2047"/>
<path d="M816.46 945.31C819.221 945.31 821.46 943.071 821.46 940.31C821.46 937.548 819.221 935.31 816.46 935.31C813.699 935.31 811.46 937.548 811.46 940.31C811.46 943.071 813.699 945.31 816.46 945.31Z" fill="#0C2047"/>
<path d="M960.359 49.0801C963.121 49.0801 965.359 46.8415 965.359 44.0801C965.359 41.3187 963.121 39.0801 960.359 39.0801C957.598 39.0801 955.359 41.3187 955.359 44.0801C955.359 46.8415 957.598 49.0801 960.359 49.0801Z" fill="#0C2047"/>
<path d="M964.659 216.99C967.421 216.99 969.659 214.752 969.659 211.99C969.659 209.229 967.421 206.99 964.659 206.99C961.898 206.99 959.659 209.229 959.659 211.99C959.659 214.752 961.898 216.99 964.659 216.99Z" fill="#0C2047"/>
<path d="M1008.99 387.42C1011.75 387.42 1013.99 385.181 1013.99 382.42C1013.99 379.658 1011.75 377.42 1008.99 377.42C1006.23 377.42 1003.99 379.658 1003.99 382.42C1003.99 385.181 1006.23 387.42 1008.99 387.42Z" fill="#0C2047"/>
<path d="M993.529 525.31C996.291 525.31 998.529 523.071 998.529 520.31C998.529 517.548 996.291 515.31 993.529 515.31C990.768 515.31 988.529 517.548 988.529 520.31C988.529 523.071 990.768 525.31 993.529 525.31Z" fill="#0C2047"/>
<path d="M977.13 701.33C979.891 701.33 982.13 699.092 982.13 696.33C982.13 693.569 979.891 691.33 977.13 691.33C974.368 691.33 972.13 693.569 972.13 696.33C972.13 699.092 974.368 701.33 977.13 701.33Z" fill="#0C2047"/>
<path d="M972.319 821.91C975.081 821.91 977.319 819.672 977.319 816.91C977.319 814.149 975.081 811.91 972.319 811.91C969.558 811.91 967.319 814.149 967.319 816.91C967.319 819.672 969.558 821.91 972.319 821.91Z" fill="#0C2047"/>
<path d="M991.279 983.55C994.041 983.55 996.279 981.311 996.279 978.55C996.279 975.788 994.041 973.55 991.279 973.55C988.518 973.55 986.279 975.788 986.279 978.55C986.279 981.311 988.518 983.55 991.279 983.55Z" fill="#0C2047"/>
<path d="M1088.3 75.7803C1091.06 75.7803 1093.3 73.5417 1093.3 70.7803C1093.3 68.0188 1091.06 65.7803 1088.3 65.7803C1085.54 65.7803 1083.3 68.0188 1083.3 70.7803C1083.3 73.5417 1085.54 75.7803 1088.3 75.7803Z" fill="#0C2047"/>
<path d="M1132.53 246.53C1135.29 246.53 1137.53 244.292 1137.53 241.53C1137.53 238.769 1135.29 236.53 1132.53 236.53C1129.77 236.53 1127.53 238.769 1127.53 241.53C1127.53 244.292 1129.77 246.53 1132.53 246.53Z" fill="#0C2047"/>
<path d="M1125.13 372.479C1127.89 372.479 1130.13 370.241 1130.13 367.479C1130.13 364.718 1127.89 362.479 1125.13 362.479C1122.37 362.479 1120.13 364.718 1120.13 367.479C1120.13 370.241 1122.37 372.479 1125.13 372.479Z" fill="#0C2047"/>
<path d="M1146.37 554.63C1149.13 554.63 1151.37 552.391 1151.37 549.63C1151.37 546.868 1149.13 544.63 1146.37 544.63C1143.61 544.63 1141.37 546.868 1141.37 549.63C1141.37 552.391 1143.61 554.63 1146.37 554.63Z" fill="#0C2047"/>
<path d="M1121.82 649.31C1124.58 649.31 1126.82 647.071 1126.82 644.31C1126.82 641.548 1124.58 639.31 1121.82 639.31C1119.06 639.31 1116.82 641.548 1116.82 644.31C1116.82 647.071 1119.06 649.31 1121.82 649.31Z" fill="#0C2047"/>
<path d="M1135.6 806.47C1138.36 806.47 1140.6 804.231 1140.6 801.47C1140.6 798.708 1138.36 796.47 1135.6 796.47C1132.84 796.47 1130.6 798.708 1130.6 801.47C1130.6 804.231 1132.84 806.47 1135.6 806.47Z" fill="#0C2047"/>
<path d="M1139.25 1006.09C1142.01 1006.09 1144.25 1003.85 1144.25 1001.09C1144.25 998.328 1142.01 996.09 1139.25 996.09C1136.49 996.09 1134.25 998.328 1134.25 1001.09C1134.25 1003.85 1136.49 1006.09 1139.25 1006.09Z" fill="#0C2047"/>
<path d="M1294.47 65.4395C1297.23 65.4395 1299.47 63.2009 1299.47 60.4395C1299.47 57.678 1297.23 55.4395 1294.47 55.4395C1291.71 55.4395 1289.47 57.678 1289.47 60.4395C1289.47 63.2009 1291.71 65.4395 1294.47 65.4395Z" fill="#0C2047"/>
<path d="M1305.82 192.65C1308.58 192.65 1310.82 190.412 1310.82 187.65C1310.82 184.889 1308.58 182.65 1305.82 182.65C1303.06 182.65 1300.82 184.889 1300.82 187.65C1300.82 190.412 1303.06 192.65 1305.82 192.65Z" fill="#0C2047"/>
<path d="M1304.57 562.729C1307.33 562.729 1309.57 560.491 1309.57 557.729C1309.57 554.968 1307.33 552.729 1304.57 552.729C1301.81 552.729 1299.57 554.968 1299.57 557.729C1299.57 560.491 1301.81 562.729 1304.57 562.729Z" fill="#0C2047"/>
<path d="M1249.37 700.88C1252.13 700.88 1254.37 698.641 1254.37 695.88C1254.37 693.118 1252.13 690.88 1249.37 690.88C1246.61 690.88 1244.37 693.118 1244.37 695.88C1244.37 698.641 1246.61 700.88 1249.37 700.88Z" fill="#0C2047"/>
<path d="M1277.34 843.57C1280.1 843.57 1282.34 841.332 1282.34 838.57C1282.34 835.809 1280.1 833.57 1277.34 833.57C1274.58 833.57 1272.34 835.809 1272.34 838.57C1272.34 841.332 1274.58 843.57 1277.34 843.57Z" fill="#0C2047"/>
<path d="M1264.45 956.28C1267.21 956.28 1269.45 954.042 1269.45 951.28C1269.45 948.519 1267.21 946.28 1264.45 946.28C1261.69 946.28 1259.45 948.519 1259.45 951.28C1259.45 954.042 1261.69 956.28 1264.45 956.28Z" fill="#0C2047"/>
<path d="M1406.25 78.9795C1409.01 78.9795 1411.25 76.7409 1411.25 73.9795C1411.25 71.2181 1409.01 68.9795 1406.25 68.9795C1403.49 68.9795 1401.25 71.2181 1401.25 73.9795C1401.25 76.7409 1403.49 78.9795 1406.25 78.9795Z" fill="#0C2047"/>
<path d="M1420.81 260.67C1423.57 260.67 1425.81 258.431 1425.81 255.67C1425.81 252.908 1423.57 250.67 1420.81 250.67C1418.05 250.67 1415.81 252.908 1415.81 255.67C1415.81 258.431 1418.05 260.67 1420.81 260.67Z" fill="#0C2047"/>
<path d="M1398.82 526.9C1401.58 526.9 1403.82 524.662 1403.82 521.9C1403.82 519.139 1401.58 516.9 1398.82 516.9C1396.06 516.9 1393.82 519.139 1393.82 521.9C1393.82 524.662 1396.06 526.9 1398.82 526.9Z" fill="#0C2047"/>
<path d="M1431.69 646.24C1434.45 646.24 1436.69 644.002 1436.69 641.24C1436.69 638.479 1434.45 636.24 1431.69 636.24C1428.93 636.24 1426.69 638.479 1426.69 641.24C1426.69 644.002 1428.93 646.24 1431.69 646.24Z" fill="#0C2047"/>
<path d="M1439.88 977.08C1442.64 977.08 1444.88 974.842 1444.88 972.08C1444.88 969.319 1442.64 967.08 1439.88 967.08C1437.12 967.08 1434.88 969.319 1434.88 972.08C1434.88 974.842 1437.12 977.08 1439.88 977.08Z" fill="#0C2047"/>
<path d="M-74.8008 809.12L72.7992 827.18" stroke="black" stroke-width="1.5"/>
<path d="M-74.8008 809.12L104.419 990.52" stroke="black" stroke-width="1.5"/>
<path d="M104.42 990.52L205.68 953.39" stroke="black" stroke-width="1.5"/>
<path d="M104.419 990.52L61.1494 1149.39" stroke="black" stroke-width="1.5"/>
<path d="M104.42 990.52L72.7998 827.18" stroke="black" stroke-width="1.5"/>
<path d="M104.42 990.52L-80.7002 984.03" stroke="black" stroke-width="1.5"/>
<path d="M104.42 990.52L196.97 796.84" stroke="black" stroke-width="1.5"/>
<path d="M196.97 796.84L72.7998 827.18" stroke="black" stroke-width="1.5"/>
<path d="M196.97 796.84L346.14 844.12" stroke="black" stroke-width="1.5"/>
<path d="M196.97 796.84L205.68 953.39" stroke="black" stroke-width="1.5"/>
<path d="M196.97 796.84L354.73 994.01" stroke="black" stroke-width="1.5"/>
<path d="M369.659 1107.88L354.729 994.01" stroke="black" stroke-width="1.5"/>
<path d="M369.66 1107.88L205.68 953.39" stroke="black" stroke-width="1.5"/>
<path d="M369.659 1107.88L546.369 953.63" stroke="black" stroke-width="1.5"/>
<path d="M369.66 1107.88L346.14 844.12" stroke="black" stroke-width="1.5"/>
<path d="M546.369 953.63L655.389 946.57" stroke="black" stroke-width="1.5"/>
<path d="M546.369 953.63L508.819 843.35" stroke="black" stroke-width="1.5"/>
<path d="M546.369 953.63L678.939 827.21" stroke="black" stroke-width="1.5"/>
<path d="M546.37 953.63L540.22 1147.63" stroke="black" stroke-width="1.5"/>
<path d="M710.39 659.86L842.94 647.74" stroke="black" stroke-width="1.5"/>
<path d="M710.389 659.86L678.939 827.21" stroke="black" stroke-width="1.5"/>
<path d="M710.39 659.86L857.75 537.84" stroke="black" stroke-width="1.5"/>
<path d="M678.94 827.21L655.39 946.57" stroke="black" stroke-width="1.5"/>
<path d="M678.939 827.21L508.819 843.35" stroke="black" stroke-width="1.5"/>
<path d="M678.939 827.21L857.199 832.3" stroke="black" stroke-width="1.5"/>
<path d="M678.939 827.21L836.129 981.92" stroke="black" stroke-width="1.5"/>
<path d="M842.939 647.74L857.749 537.84" stroke="black" stroke-width="1.5"/>
<path d="M836.13 981.92L857.2 832.3" stroke="black" stroke-width="1.5"/>
<path d="M836.13 981.92L989.46 970.78" stroke="black" stroke-width="1.5"/>
<path d="M836.13 981.92L858.03 1149.35" stroke="black" stroke-width="1.5"/>
<path d="M981.12 524.37L857.75 537.84" stroke="black" stroke-width="1.5"/>
<path d="M977.359 843.68L857.199 832.3" stroke="black" stroke-width="1.5"/>
<path d="M989.459 970.78L977.359 843.68" stroke="black" stroke-width="1.5"/>
<path d="M989.459 970.78L971.869 1123.7" stroke="black" stroke-width="1.5"/>
<path d="M989.46 970.78L1151.47 961.59" stroke="black" stroke-width="1.5"/>
<path d="M1142.8 509.52L1278.33 508.87" stroke="black" stroke-width="1.5"/>
<path d="M1142.8 509.52L1099.72 365.56" stroke="black" stroke-width="1.5"/>
<path d="M1142.8 509.52L981.119 524.37" stroke="black" stroke-width="1.5"/>
<path d="M1142.8 509.52L1245.77 374.6" stroke="black" stroke-width="1.5"/>
<path d="M1142.8 509.52L1307.13 642.65" stroke="black" stroke-width="1.5"/>
<path d="M1142.8 509.52L1120.52 242.58" stroke="black" stroke-width="1.5"/>
<path d="M1245.77 374.6L1278.33 508.87" stroke="black" stroke-width="1.5"/>
<path d="M1245.77 374.6L1292.79 240.479" stroke="black" stroke-width="1.5"/>
<path d="M1245.77 374.6L1099.72 365.56" stroke="black" stroke-width="1.5"/>
<path d="M1245.77 374.599L1424.33 342.439" stroke="black" stroke-width="1.5"/>
<path d="M1462.28 -107.08L1427.83 89.3699" stroke="black" stroke-width="1.5"/>
<path d="M1462.28 -107.08L1252.99 97.2999" stroke="black" stroke-width="1.5"/>
<path d="M1427.83 89.3701L1538.67 103.03" stroke="black" stroke-width="1.5"/>
<path d="M1427.83 89.3701L1459.09 222.5" stroke="black" stroke-width="1.5"/>
<path d="M1427.83 89.3701L1252.99 97.3001" stroke="black" stroke-width="1.5"/>
<path d="M1459.09 222.5L1424.33 342.44" stroke="black" stroke-width="1.5"/>
<path d="M1430.15 697.61L1307.13 642.65" stroke="black" stroke-width="1.5"/>
<path d="M1430.15 697.61L1429.48 847.65" stroke="black" stroke-width="1.5"/>
<path d="M1430.15 697.61L1438.25 540.91" stroke="black" stroke-width="1.5"/>
<path d="M1397.15 973.52L1429.48 847.65" stroke="black" stroke-width="1.5"/>
<path d="M1397.15 973.52L1403.24 1111.72" stroke="black" stroke-width="1.5"/>
<path d="M1397.15 973.52L1564.06 952.51" stroke="black" stroke-width="1.5"/>
<path d="M-63.1904 1154.07L104.42 990.52" stroke="black" stroke-width="1.5"/>
<path d="M-63.1904 1154.07L205.68 953.39" stroke="black" stroke-width="1.5"/>
<path d="M72.7998 827.18L205.68 953.39" stroke="black" stroke-width="1.5"/>
<path d="M72.7998 827.18L-80.7002 984.03" stroke="black" stroke-width="1.5"/>
<path d="M205.68 953.39L354.73 994.01" stroke="black" stroke-width="1.5"/>
<path d="M205.68 953.39L346.14 844.12" stroke="black" stroke-width="1.5"/>
<path d="M346.14 844.12L354.73 994.01" stroke="black" stroke-width="1.5"/>
<path d="M346.14 844.12L508.82 843.35" stroke="black" stroke-width="1.5"/>
<path d="M346.14 844.12L546.37 953.63" stroke="black" stroke-width="1.5"/>
<path d="M354.729 994.01L546.369 953.63" stroke="black" stroke-width="1.5"/>
<path d="M354.729 994.01L508.819 843.35" stroke="black" stroke-width="1.5"/>
<path d="M354.729 994.01L540.219 1147.63" stroke="black" stroke-width="1.5"/>
<path d="M508.819 843.35L655.389 946.57" stroke="black" stroke-width="1.5"/>
<path d="M655.39 946.57L680.95 1108.8" stroke="black" stroke-width="1.5"/>
<path d="M680.949 1108.8L836.129 981.92" stroke="black" stroke-width="1.5"/>
<path d="M680.949 1108.8L546.369 953.63" stroke="black" stroke-width="1.5"/>
<path d="M680.949 1108.8L678.939 827.21" stroke="black" stroke-width="1.5"/>
<path d="M857.75 537.84L1142.8 509.52" stroke="black" stroke-width="1.5"/>
<path d="M857.749 537.84L857.199 832.3" stroke="black" stroke-width="1.5"/>
<path d="M857.75 537.84L1099.72 365.56" stroke="black" stroke-width="1.5"/>
<path d="M857.199 832.3L842.939 647.74" stroke="black" stroke-width="1.5"/>
<path d="M857.199 832.3L989.459 970.78" stroke="black" stroke-width="1.5"/>
<path d="M857.2 832.3L710.39 659.86" stroke="black" stroke-width="1.5"/>
<path d="M858.029 1149.35L989.459 970.78" stroke="black" stroke-width="1.5"/>
<path d="M1156.42 -51.1299L1252.99 97.3001" stroke="black" stroke-width="1.5"/>
<path d="M1156.42 -51.1299L1120.52 242.58" stroke="black" stroke-width="1.5"/>
<path d="M1156.42 -51.1299L1427.83 89.3701" stroke="black" stroke-width="1.5"/>
<path d="M1120.52 242.58L1099.72 365.56" stroke="black" stroke-width="1.5"/>
<path d="M1120.52 242.579L1292.79 240.479" stroke="black" stroke-width="1.5"/>
<path d="M1099.72 365.56L981.119 524.37" stroke="black" stroke-width="1.5"/>
<path d="M1099.72 365.56L1278.33 508.87" stroke="black" stroke-width="1.5"/>
<path d="M1114.21 819.68L977.359 843.68" stroke="black" stroke-width="1.5"/>
<path d="M1114.21 819.68L1254.53 820.3" stroke="black" stroke-width="1.5"/>
<path d="M1114.21 819.68L1151.47 961.59" stroke="black" stroke-width="1.5"/>
<path d="M1151.47 961.59L1130.27 1102.38" stroke="black" stroke-width="1.5"/>
<path d="M1151.47 961.59L1254.53 820.3" stroke="black" stroke-width="1.5"/>
<path d="M1151.47 961.59L977.359 843.68" stroke="black" stroke-width="1.5"/>
<path d="M1130.27 1102.38L989.46 970.78" stroke="black" stroke-width="1.5"/>
<path d="M1284.68 -88.5098L1252.99 97.3002" stroke="black" stroke-width="1.5"/>
<path d="M1284.68 -88.5098L1427.83 89.3702" stroke="black" stroke-width="1.5"/>
<path d="M1252.99 97.2998L1292.79 240.48" stroke="black" stroke-width="1.5"/>
<path d="M1252.99 97.2998L1120.52 242.58" stroke="black" stroke-width="1.5"/>
<path d="M1252.99 97.2998L1459.09 222.5" stroke="black" stroke-width="1.5"/>
<path d="M1292.79 240.479L1424.33 342.439" stroke="black" stroke-width="1.5"/>
<path d="M1292.79 240.48L1459.09 222.5" stroke="black" stroke-width="1.5"/>
<path d="M1292.79 240.48L1427.83 89.3701" stroke="black" stroke-width="1.5"/>
<path d="M1278.33 508.87L1307.13 642.65" stroke="black" stroke-width="1.5"/>
<path d="M1307.13 642.65L1438.25 540.91" stroke="black" stroke-width="1.5"/>
<path d="M1424.33 342.439L1562.51 383.799" stroke="black" stroke-width="1.5"/>
<path d="M1438.25 540.91L1580.79 508.79" stroke="black" stroke-width="1.5"/>
<path d="M1438.25 540.91L1278.33 508.87" stroke="black" stroke-width="1.5"/>
<path d="M1429.48 847.65L1564.06 952.51" stroke="black" stroke-width="1.5"/>
<path d="M1403.24 1111.72L1564.06 952.51" stroke="black" stroke-width="1.5"/>
<path d="M1403.24 1111.72L1429.48 847.65" stroke="black" stroke-width="1.5"/>
<path d="M1608.74 201.91L1427.83 89.3701" stroke="black" stroke-width="1.5"/>
<path d="M1608.74 201.91L1424.33 342.44" stroke="black" stroke-width="1.5"/>
<path d="M1580.79 508.789L1424.33 342.439" stroke="black" stroke-width="1.5"/>
<path d="M1597.29 709.92L1430.15 697.61" stroke="black" stroke-width="1.5"/>
<path d="M104.42 1015.52C118.227 1015.52 129.42 1004.33 129.42 990.52C129.42 976.712 118.227 965.52 104.42 965.52C90.6128 965.52 79.4199 976.712 79.4199 990.52C79.4199 1004.33 90.6128 1015.52 104.42 1015.52Z" fill="url(#paint0_radial)"/>
<path d="M196.97 821.84C210.777 821.84 221.97 810.647 221.97 796.84C221.97 783.033 210.777 771.84 196.97 771.84C183.163 771.84 171.97 783.033 171.97 796.84C171.97 810.647 183.163 821.84 196.97 821.84Z" fill="url(#paint1_radial)"/>
<path d="M546.369 978.63C560.176 978.63 571.369 967.437 571.369 953.63C571.369 939.823 560.176 928.63 546.369 928.63C532.562 928.63 521.369 939.823 521.369 953.63C521.369 967.437 532.562 978.63 546.369 978.63Z" fill="url(#paint2_radial)"/>
<path d="M710.39 684.86C724.197 684.86 735.39 673.667 735.39 659.86C735.39 646.053 724.197 634.86 710.39 634.86C696.583 634.86 685.39 646.053 685.39 659.86C685.39 673.667 696.583 684.86 710.39 684.86Z" fill="url(#paint3_radial)"/>
<path d="M678.939 852.21C692.747 852.21 703.939 841.017 703.939 827.21C703.939 813.403 692.747 802.21 678.939 802.21C665.132 802.21 653.939 813.403 653.939 827.21C653.939 841.017 665.132 852.21 678.939 852.21Z" fill="url(#paint4_radial)"/>
<path d="M842.939 672.74C856.747 672.74 867.939 661.547 867.939 647.74C867.939 633.933 856.747 622.74 842.939 622.74C829.132 622.74 817.939 633.933 817.939 647.74C817.939 661.547 829.132 672.74 842.939 672.74Z" fill="url(#paint5_radial)"/>
<path d="M836.13 1006.92C849.937 1006.92 861.13 995.727 861.13 981.92C861.13 968.113 849.937 956.92 836.13 956.92C822.323 956.92 811.13 968.113 811.13 981.92C811.13 995.727 822.323 1006.92 836.13 1006.92Z" fill="url(#paint6_radial)"/>
<path d="M981.119 549.37C994.926 549.37 1006.12 538.177 1006.12 524.37C1006.12 510.563 994.926 499.37 981.119 499.37C967.312 499.37 956.119 510.563 956.119 524.37C956.119 538.177 967.312 549.37 981.119 549.37Z" fill="url(#paint7_radial)"/>
<path d="M977.359 868.68C991.166 868.68 1002.36 857.487 1002.36 843.68C1002.36 829.873 991.166 818.68 977.359 818.68C963.552 818.68 952.359 829.873 952.359 843.68C952.359 857.487 963.552 868.68 977.359 868.68Z" fill="url(#paint8_radial)"/>
<path d="M989.46 995.78C1003.27 995.78 1014.46 984.587 1014.46 970.78C1014.46 956.973 1003.27 945.78 989.46 945.78C975.653 945.78 964.46 956.973 964.46 970.78C964.46 984.587 975.653 995.78 989.46 995.78Z" fill="url(#paint9_radial)"/>
<path d="M1142.8 534.52C1156.61 534.52 1167.8 523.327 1167.8 509.52C1167.8 495.712 1156.61 484.52 1142.8 484.52C1128.99 484.52 1117.8 495.712 1117.8 509.52C1117.8 523.327 1128.99 534.52 1142.8 534.52Z" fill="url(#paint10_radial)"/>
<path d="M1245.77 399.6C1259.58 399.6 1270.77 388.407 1270.77 374.6C1270.77 360.792 1259.58 349.6 1245.77 349.6C1231.96 349.6 1220.77 360.792 1220.77 374.6C1220.77 388.407 1231.96 399.6 1245.77 399.6Z" fill="url(#paint11_radial)"/>
<path d="M1427.83 114.37C1441.64 114.37 1452.83 103.177 1452.83 89.3701C1452.83 75.563 1441.64 64.3701 1427.83 64.3701C1414.02 64.3701 1402.83 75.563 1402.83 89.3701C1402.83 103.177 1414.02 114.37 1427.83 114.37Z" fill="url(#paint12_radial)"/>
<path d="M1459.09 247.5C1472.9 247.5 1484.09 236.307 1484.09 222.5C1484.09 208.693 1472.9 197.5 1459.09 197.5C1445.28 197.5 1434.09 208.693 1434.09 222.5C1434.09 236.307 1445.28 247.5 1459.09 247.5Z" fill="url(#paint13_radial)"/>
<path d="M1430.15 722.61C1443.96 722.61 1455.15 711.417 1455.15 697.61C1455.15 683.803 1443.96 672.61 1430.15 672.61C1416.34 672.61 1405.15 683.803 1405.15 697.61C1405.15 711.417 1416.34 722.61 1430.15 722.61Z" fill="url(#paint14_radial)"/>
<path d="M1397.15 998.52C1410.96 998.52 1422.15 987.327 1422.15 973.52C1422.15 959.712 1410.96 948.52 1397.15 948.52C1383.34 948.52 1372.15 959.712 1372.15 973.52C1372.15 987.327 1383.34 998.52 1397.15 998.52Z" fill="url(#paint15_radial)"/>
<path d="M72.7998 832.18C75.5612 832.18 77.7998 829.941 77.7998 827.18C77.7998 824.418 75.5612 822.18 72.7998 822.18C70.0384 822.18 67.7998 824.418 67.7998 827.18C67.7998 829.941 70.0384 832.18 72.7998 832.18Z" fill="#8890B4"/>
<path d="M205.68 958.39C208.441 958.39 210.68 956.151 210.68 953.39C210.68 950.628 208.441 948.39 205.68 948.39C202.918 948.39 200.68 950.628 200.68 953.39C200.68 956.151 202.918 958.39 205.68 958.39Z" fill="#8890B4"/>
<path d="M346.14 849.12C348.901 849.12 351.14 846.882 351.14 844.12C351.14 841.359 348.901 839.12 346.14 839.12C343.378 839.12 341.14 841.359 341.14 844.12C341.14 846.882 343.378 849.12 346.14 849.12Z" fill="#8890B4"/>
<path d="M354.729 999.01C357.491 999.01 359.729 996.771 359.729 994.01C359.729 991.248 357.491 989.01 354.729 989.01C351.968 989.01 349.729 991.248 349.729 994.01C349.729 996.771 351.968 999.01 354.729 999.01Z" fill="#8890B4"/>
<path d="M508.819 848.35C511.581 848.35 513.819 846.111 513.819 843.35C513.819 840.588 511.581 838.35 508.819 838.35C506.058 838.35 503.819 840.588 503.819 843.35C503.819 846.111 506.058 848.35 508.819 848.35Z" fill="#8890B4"/>
<path d="M655.39 951.57C658.151 951.57 660.39 949.332 660.39 946.57C660.39 943.809 658.151 941.57 655.39 941.57C652.628 941.57 650.39 943.809 650.39 946.57C650.39 949.332 652.628 951.57 655.39 951.57Z" fill="#8890B4"/>
<path d="M857.75 542.84C860.511 542.84 862.75 540.601 862.75 537.84C862.75 535.078 860.511 532.84 857.75 532.84C854.989 532.84 852.75 535.078 852.75 537.84C852.75 540.601 854.989 542.84 857.75 542.84Z" fill="#8890B4"/>
<path d="M857.199 837.3C859.961 837.3 862.199 835.061 862.199 832.3C862.199 829.538 859.961 827.3 857.199 827.3C854.438 827.3 852.199 829.538 852.199 832.3C852.199 835.061 854.438 837.3 857.199 837.3Z" fill="#8890B4"/>
<path d="M1120.52 247.58C1123.28 247.58 1125.52 245.342 1125.52 242.58C1125.52 239.819 1123.28 237.58 1120.52 237.58C1117.76 237.58 1115.52 239.819 1115.52 242.58C1115.52 245.342 1117.76 247.58 1120.52 247.58Z" fill="#8890B4"/>
<path d="M1099.72 370.56C1102.48 370.56 1104.72 368.321 1104.72 365.56C1104.72 362.798 1102.48 360.56 1099.72 360.56C1096.96 360.56 1094.72 362.798 1094.72 365.56C1094.72 368.321 1096.96 370.56 1099.72 370.56Z" fill="#8890B4"/>
<path d="M1114.21 824.68C1116.97 824.68 1119.21 822.441 1119.21 819.68C1119.21 816.918 1116.97 814.68 1114.21 814.68C1111.45 814.68 1109.21 816.918 1109.21 819.68C1109.21 822.441 1111.45 824.68 1114.21 824.68Z" fill="#8890B4"/>
<path d="M1151.47 966.59C1154.23 966.59 1156.47 964.351 1156.47 961.59C1156.47 958.828 1154.23 956.59 1151.47 956.59C1148.71 956.59 1146.47 958.828 1146.47 961.59C1146.47 964.351 1148.71 966.59 1151.47 966.59Z" fill="#8890B4"/>
<path d="M1252.99 102.3C1255.75 102.3 1257.99 100.061 1257.99 97.2998C1257.99 94.5384 1255.75 92.2998 1252.99 92.2998C1250.23 92.2998 1247.99 94.5384 1247.99 97.2998C1247.99 100.061 1250.23 102.3 1252.99 102.3Z" fill="#8890B4"/>
<path d="M1292.79 245.479C1295.55 245.479 1297.79 243.241 1297.79 240.479C1297.79 237.718 1295.55 235.479 1292.79 235.479C1290.03 235.479 1287.79 237.718 1287.79 240.479C1287.79 243.241 1290.03 245.479 1292.79 245.479Z" fill="#8890B4"/>
<path d="M1278.33 513.87C1281.09 513.87 1283.33 511.632 1283.33 508.87C1283.33 506.109 1281.09 503.87 1278.33 503.87C1275.57 503.87 1273.33 506.109 1273.33 508.87C1273.33 511.632 1275.57 513.87 1278.33 513.87Z" fill="#8890B4"/>
<path d="M1307.13 647.65C1309.89 647.65 1312.13 645.412 1312.13 642.65C1312.13 639.889 1309.89 637.65 1307.13 637.65C1304.37 637.65 1302.13 639.889 1302.13 642.65C1302.13 645.412 1304.37 647.65 1307.13 647.65Z" fill="#8890B4"/>
<path d="M1254.53 825.3C1257.29 825.3 1259.53 823.061 1259.53 820.3C1259.53 817.538 1257.29 815.3 1254.53 815.3C1251.77 815.3 1249.53 817.538 1249.53 820.3C1249.53 823.061 1251.77 825.3 1254.53 825.3Z" fill="#8890B4"/>
<path d="M1424.33 347.439C1427.09 347.439 1429.33 345.201 1429.33 342.439C1429.33 339.678 1427.09 337.439 1424.33 337.439C1421.57 337.439 1419.33 339.678 1419.33 342.439C1419.33 345.201 1421.57 347.439 1424.33 347.439Z" fill="#8890B4"/>
<path d="M1438.25 545.91C1441.01 545.91 1443.25 543.672 1443.25 540.91C1443.25 538.149 1441.01 535.91 1438.25 535.91C1435.49 535.91 1433.25 538.149 1433.25 540.91C1433.25 543.672 1435.49 545.91 1438.25 545.91Z" fill="#8890B4"/>
<path d="M1429.48 852.65C1432.24 852.65 1434.48 850.412 1434.48 847.65C1434.48 844.889 1432.24 842.65 1429.48 842.65C1426.72 842.65 1424.48 844.889 1424.48 847.65C1424.48 850.412 1426.72 852.65 1429.48 852.65Z" fill="#8890B4"/>
<defs>
<radialGradient id="paint0_radial" cx="0" cy="0" r="1" gradientUnits="userSpaceOnUse" gradientTransform="translate(104.42 990.52) scale(25)">
<stop offset="0.1" stop-color="white"/>
<stop offset="0.2" stop-color="#102169"/>
<stop offset="1" stop-color="#102169" stop-opacity="0"/>
</radialGradient>
<radialGradient id="paint1_radial" cx="0" cy="0" r="1" gradientUnits="userSpaceOnUse" gradientTransform="translate(196.97 796.84) scale(25)">
<stop offset="0.1" stop-color="white"/>
<stop offset="0.2" stop-color="#102169"/>
<stop offset="1" stop-color="#102169" stop-opacity="0"/>
</radialGradient>
<radialGradient id="paint2_radial" cx="0" cy="0" r="1" gradientUnits="userSpaceOnUse" gradientTransform="translate(546.369 953.63) scale(25)">
<stop offset="0.1" stop-color="white"/>
<stop offset="0.2" stop-color="#102169"/>
<stop offset="1" stop-color="#102169" stop-opacity="0"/>
</radialGradient>
<radialGradient id="paint3_radial" cx="0" cy="0" r="1" gradientUnits="userSpaceOnUse" gradientTransform="translate(710.39 659.86) scale(25)">
<stop offset="0.1" stop-color="white"/>
<stop offset="0.2" stop-color="#102169"/>
<stop offset="1" stop-color="#102169" stop-opacity="0"/>
</radialGradient>
<radialGradient id="paint4_radial" cx="0" cy="0" r="1" gradientUnits="userSpaceOnUse" gradientTransform="translate(678.939 827.21) scale(25)">
<stop offset="0.1" stop-color="white"/>
<stop offset="0.2" stop-color="#102169"/>
<stop offset="1" stop-color="#102169" stop-opacity="0"/>
</radialGradient>
<radialGradient id="paint5_radial" cx="0" cy="0" r="1" gradientUnits="userSpaceOnUse" gradientTransform="translate(842.939 647.74) scale(25)">
<stop offset="0.1" stop-color="white"/>
<stop offset="0.2" stop-color="#102169"/>
<stop offset="1" stop-color="#102169" stop-opacity="0"/>
</radialGradient>
<radialGradient id="paint6_radial" cx="0" cy="0" r="1" gradientUnits="userSpaceOnUse" gradientTransform="translate(836.13 981.92) scale(25)">
<stop offset="0.1" stop-color="white"/>
<stop offset="0.2" stop-color="#102169"/>
<stop offset="1" stop-color="#102169" stop-opacity="0"/>
</radialGradient>
<radialGradient id="paint7_radial" cx="0" cy="0" r="1" gradientUnits="userSpaceOnUse" gradientTransform="translate(981.119 524.37) scale(25)">
<stop offset="0.1" stop-color="white"/>
<stop offset="0.2" stop-color="#102169"/>
<stop offset="1" stop-color="#102169" stop-opacity="0"/>
</radialGradient>
<radialGradient id="paint8_radial" cx="0" cy="0" r="1" gradientUnits="userSpaceOnUse" gradientTransform="translate(977.359 843.68) scale(25)">
<stop offset="0.1" stop-color="white"/>
<stop offset="0.2" stop-color="#102169"/>
<stop offset="1" stop-color="#102169" stop-opacity="0"/>
</radialGradient>
<radialGradient id="paint9_radial" cx="0" cy="0" r="1" gradientUnits="userSpaceOnUse" gradientTransform="translate(989.46 970.78) scale(25)">
<stop offset="0.1" stop-color="white"/>
<stop offset="0.2" stop-color="#102169"/>
<stop offset="1" stop-color="#102169" stop-opacity="0"/>
</radialGradient>
<radialGradient id="paint10_radial" cx="0" cy="0" r="1" gradientUnits="userSpaceOnUse" gradientTransform="translate(1142.8 509.52) scale(25)">
<stop offset="0.1" stop-color="white"/>
<stop offset="0.2" stop-color="#102169"/>
<stop offset="1" stop-color="#102169" stop-opacity="0"/>
</radialGradient>
<radialGradient id="paint11_radial" cx="0" cy="0" r="1" gradientUnits="userSpaceOnUse" gradientTransform="translate(1245.77 374.6) scale(25)">
<stop offset="0.1" stop-color="white"/>
<stop offset="0.2" stop-color="#102169"/>
<stop offset="1" stop-color="#102169" stop-opacity="0"/>
</radialGradient>
<radialGradient id="paint12_radial" cx="0" cy="0" r="1" gradientUnits="userSpaceOnUse" gradientTransform="translate(1427.83 89.3701) scale(25)">
<stop offset="0.1" stop-color="white"/>
<stop offset="0.2" stop-color="#102169"/>
<stop offset="1" stop-color="#102169" stop-opacity="0"/>
</radialGradient>
<radialGradient id="paint13_radial" cx="0" cy="0" r="1" gradientUnits="userSpaceOnUse" gradientTransform="translate(1459.09 222.5) scale(25)">
<stop offset="0.1" stop-color="white"/>
<stop offset="0.2" stop-color="#102169"/>
<stop offset="1" stop-color="#102169" stop-opacity="0"/>
</radialGradient>
<radialGradient id="paint14_radial" cx="0" cy="0" r="1" gradientUnits="userSpaceOnUse" gradientTransform="translate(1430.15 697.61) scale(25)">
<stop offset="0.1" stop-color="white"/>
<stop offset="0.2" stop-color="#102169"/>
<stop offset="1" stop-color="#102169" stop-opacity="0"/>
</radialGradient>
<radialGradient id="paint15_radial" cx="0" cy="0" r="1" gradientUnits="userSpaceOnUse" gradientTransform="translate(1397.15 973.52) scale(25)">
<stop offset="0.1" stop-color="white"/>
<stop offset="0.2" stop-color="#102169"/>
<stop offset="1" stop-color="#102169" stop-opacity="0"/>
</radialGradient>
</defs>
</svg>
