<?xml version="1.0" encoding="UTF-8"?>
<svg xmlns="http://www.w3.org/2000/svg" xmlns:xlink="http://www.w3.org/1999/xlink" width="375pt" height="374.999991pt" viewBox="0 0 375 374.999991" version="1.2">
<defs>
<clipPath id="clip1">
  <path d="M 10.347656 24 L 363 24 L 363 349 L 10.347656 349 Z M 10.347656 24 "/>
</clipPath>
</defs>
<g id="surface1">
<g clip-path="url(#clip1)" clip-rule="nonzero">
<path style=" stroke:none;fill-rule:nonzero;fill:rgb(54.119873%,66.668701%,89.7995%);fill-opacity:1;" d="M 122.195312 232.152344 C 68.128906 232.152344 58.6875 171.347656 58.6875 171.347656 C 64.085938 158.804688 70.457031 163.050781 77.664062 151.628906 C 100.019531 116.15625 109.542969 101.296875 139.863281 101.722656 L 168.628906 64.808594 C 171.203125 67.382812 187.246094 106.117188 191.570312 116.628906 C 246.410156 158.785156 243.167969 288.46875 238.609375 347.078125 C 241.4375 346.441406 244.25 345.703125 247.015625 344.917969 C 257.105469 342.046875 263.371094 339.84375 271.355469 335.78125 C 276.308594 333.253906 281.1875 330.492188 285.65625 327.160156 C 285.394531 327.308594 289.023438 324.269531 289.789062 323.519531 C 290.589844 322.742188 294.308594 318.617188 293.4375 319.8125 C 299.421875 311.574219 301.261719 305.207031 298.402344 295.363281 C 292.964844 276.703125 278.308594 260.300781 268.523438 243.703125 C 260.074219 229.375 251.179688 213.867188 247.734375 197.40625 C 240.226562 161.472656 260.511719 133.03125 284.472656 108.351562 C 297.550781 94.878906 317.949219 115.566406 304.921875 128.980469 C 293.257812 140.996094 279.855469 154.90625 275.894531 171.773438 C 272.933594 184.398438 276.792969 197.03125 282.484375 208.644531 C 292.144531 228.371094 304.628906 246.484375 316.140625 265.132812 C 323.195312 276.574219 329.269531 290.621094 328.683594 304.449219 C 350.039062 275.339844 362.652344 239.417969 362.652344 200.558594 C 362.652344 103.441406 283.917969 24.695312 186.800781 24.695312 C 89.679688 24.699219 10.9375 103.441406 10.9375 200.558594 C 10.941406 262.757812 43.238281 317.414062 91.976562 348.675781 C 105.277344 283.476562 157.894531 232.152344 122.195312 232.152344 "/>
</g>
</g>
</svg>
