<svg xmlns="http://www.w3.org/2000/svg" version="1.1" xmlns:xlink="http://www.w3.org/1999/xlink" xmlns:svgjs="http://svgjs.com/svgjs" width="1440" height="560" preserveAspectRatio="none" viewBox="0 0 1440 560">
    <g mask="url(&quot;#SvgjsMask1069&quot;)" fill="none">
        <path d="M95.94 438.92 a131.1 131.1 0 1 0 262.2 0 a131.1 131.1 0 1 0 -262.2 0z" fill="rgba(10, 71, 137, 0.4)" class="triangle-float1"></path>
        <path d="M1008.98 545.93 a102.76 102.76 0 1 0 205.52 0 a102.76 102.76 0 1 0 -205.52 0z" fill="rgba(10, 71, 137, 0.4)" class="triangle-float2"></path>
        <path d="M1177.96 256.71 a178.01 178.01 0 1 0 356.02 0 a178.01 178.01 0 1 0 -356.02 0z" fill="rgba(10, 71, 137, 0.4)" class="triangle-float3"></path>
        <path d="M-6.95 128.11 a152.25 152.25 0 1 0 304.5 0 a152.25 152.25 0 1 0 -304.5 0z" fill="rgba(10, 71, 137, 0.4)" class="triangle-float1"></path>
        <path d="M923.38 441.71 a110.67 110.67 0 1 0 221.34 0 a110.67 110.67 0 1 0 -221.34 0z" fill="rgba(10, 71, 137, 0.4)" class="triangle-float2"></path>
    </g>
    <defs>
        <mask id="SvgjsMask1069">
            <rect width="1440" height="560" fill="#ffffff"></rect>
        </mask>
        <style>
            @keyframes float1 {
                0%{transform: translate(0, 0)}
                50%{transform: translate(-10px, 0)}
                100%{transform: translate(0, 0)}
            }

            .triangle-float1 {
                animation: float1 5s infinite;
            }

            @keyframes float2 {
                0%{transform: translate(0, 0)}
                50%{transform: translate(-5px, -5px)}
                100%{transform: translate(0, 0)}
            }

            .triangle-float2 {
                animation: float2 4s infinite;
            }

            @keyframes float3 {
                0%{transform: translate(0, 0)}
                50%{transform: translate(0, -10px)}
                100%{transform: translate(0, 0)}
            }

            .triangle-float3 {
                animation: float3 6s infinite;
            }
        </style>
    </defs>
</svg>