<svg xmlns="http://www.w3.org/2000/svg" version="1.1" xmlns:xlink="http://www.w3.org/1999/xlink" xmlns:svgjs="http://svgjs.com/svgjs" width="1440" height="560" preserveAspectRatio="none" viewBox="0 0 1440 560"><g mask="url(&quot;#SvgjsMask1080&quot;)" fill="none"><path d="M -222.79576989249097,267 C -165.2,295.4 -50,407.2 65.20423010750903,409 C 180.4,410.8 238,270.6 353.20423010750903,276 C 468.4,281.4 526,444.2 641.204230107509,436 C 756.4,427.8 814,235.4 929.204230107509,235 C 1044.4,234.6 1102,433 1217.204230107509,434 C 1332.4,435 1460.65,240.6 1505.204230107509,240 C 1549.76,239.4 1453.04,392.8 1440,431" stroke="rgba(51, 121, 194, 0.58)" stroke-width="2"></path><path d="M -389.1825006840377,331 C -331.58,309.8 -216.38,215.8 -101.18250068403765,225 C 14.02,234.2 71.62,395.4 186.81749931596235,377 C 302.02,358.6 359.62,125.8 474.8174993159623,133 C 590.02,140.2 647.62,395.2 762.8174993159623,413 C 878.02,430.8 935.62,233.8 1050.8174993159623,222 C 1166.02,210.2 1260.98,361 1338.8174993159623,354 C 1416.65,347 1419.76,220.4 1440,187" stroke="rgba(51, 121, 194, 0.58)" stroke-width="2"></path><path d="M -258.21551166798383,239 C -200.62,262.6 -85.42,359 29.78448833201618,357 C 144.98,355 202.58,232 317.78448833201617,229 C 432.98,226 490.58,349.8 605.7844883320162,342 C 720.98,334.2 778.58,201.6 893.7844883320162,190 C 1008.98,178.4 1066.58,277.4 1181.7844883320163,284 C 1296.98,290.6 1418.14,199.2 1469.7844883320163,223 C 1521.43,246.8 1445.96,367 1440,403" stroke="rgba(51, 121, 194, 0.58)" stroke-width="2"></path><path d="M -374.0322834781874,155 C -316.43,187 -201.23,306.2 -86.03228347818745,315 C 29.17,323.8 86.77,187.6 201.96771652181255,199 C 317.17,210.4 374.77,369.2 489.9677165218126,372 C 605.17,374.8 662.77,218.6 777.9677165218126,213 C 893.17,207.4 950.77,336.2 1065.9677165218125,344 C 1181.17,351.8 1279.16,245.6 1353.9677165218125,252 C 1428.77,258.4 1422.79,351.2 1440,376" stroke="rgba(51, 121, 194, 0.58)" stroke-width="2"></path><path d="M -6.735504496896624,274 C 50.86,304.2 166.06,453 281.2644955031034,425 C 396.46,397 454.06,132.8 569.2644955031034,134 C 684.46,135.2 742.06,402.4 857.2644955031034,431 C 972.46,459.6 1030.06,296.4 1145.2644955031033,277 C 1260.46,257.6 1318.06,345 1433.2644955031033,334 C 1548.46,323 1719.92,202.6 1721.2644955031033,222 C 1722.61,241.4 1496.25,389.2 1440,431" stroke="rgba(51, 121, 194, 0.58)" stroke-width="2"></path></g><defs><mask id="SvgjsMask1080"><rect width="1440" height="560" fill="#ffffff"></rect></mask></defs></svg>